<svg width="121" height="120" viewBox="0 0 121 120" fill="none" xmlns="http://www.w3.org/2000/svg">
<path d="M109.52 23.1893C129.269 49.5045 122.641 87.82 96.3257 107.581C70.0105 127.329 32.6698 122.018 12.9212 95.7024C-6.82742 69.3872 -1.51565 32.0464 24.7996 12.2978C51.1148 -7.45078 89.7592 -3.1259 109.52 23.1893Z" fill="#F4F6FA"/>
<g clip-path="url(#clip0_3536_1009)">
<path d="M85.4405 72.8503H80.646V67.119H85.4405V72.8503Z" fill="white"/>
<path d="M85.4405 60.4324H80.646V54.701H85.4405V60.4324Z" fill="white"/>
<path d="M72.0156 60.4324H66.2622V53.7458H72.0156V60.4324Z" fill="white"/>
<path d="M85.5879 86.5316H79.8345V79.845H85.5879V86.5316Z" fill="white"/>
<path d="M72.0156 86.2234H66.2622V79.5369H72.0156V86.2234Z" fill="white"/>
<path d="M57.6323 86.2234H51.8789V79.5369H57.6323V86.2234Z" fill="white"/>
<path d="M44.2075 86.2234H38.4541V79.5369H44.2075V86.2234Z" fill="white"/>
<path d="M44.2075 73.8055H38.4541V67.119H44.2075V73.8055Z" fill="white"/>
<path d="M28.7759 46.6652V91.0212C28.7759 92.6438 30.1023 93.9722 31.7464 93.9722H93.3769C95.021 93.9722 96.3474 92.6438 96.3474 91.0212V46.6652H28.7759ZM45.7949 85.9751C45.7949 86.0976 45.7706 86.2188 45.7234 86.332C45.6762 86.4451 45.6071 86.5479 45.5199 86.6345C45.4327 86.7211 45.3293 86.7898 45.2154 86.8367C45.1015 86.8835 44.9794 86.9077 44.8561 86.9077H39.922C39.7988 86.9077 39.6767 86.8835 39.5628 86.8367C39.4489 86.7898 39.3454 86.7211 39.2583 86.6345C39.1711 86.5479 39.1019 86.4451 39.0548 86.332C39.0076 86.2188 38.9833 86.0976 38.9833 85.9751V81.0734C38.9833 80.5581 39.4033 80.1409 39.922 80.1409H44.8561C45.3749 80.1409 45.7949 80.5581 45.7949 81.0734V85.9751ZM45.7949 73.1494C45.7949 73.3967 45.696 73.6339 45.5199 73.8088C45.3439 73.9837 45.1051 74.0819 44.8561 74.0819H39.922C39.6731 74.0819 39.4343 73.9837 39.2583 73.8088C39.0822 73.6339 38.9833 73.3967 38.9833 73.1494V68.2477C38.9833 67.7324 39.4033 67.3151 39.922 67.3151H44.8561C45.3749 67.3151 45.7949 67.7324 45.7949 68.2477V73.1494ZM59.6961 85.9751C59.6961 86.0976 59.6719 86.2188 59.6247 86.332C59.5775 86.4451 59.5084 86.5479 59.4212 86.6345C59.334 86.7211 59.2305 86.7898 59.1166 86.8367C59.0028 86.8835 58.8807 86.9077 58.7574 86.9077H53.8233C53.7 86.9077 53.578 86.8835 53.4641 86.8367C53.3502 86.7898 53.2467 86.7211 53.1595 86.6345C53.0724 86.5479 53.0032 86.4451 52.9561 86.332C52.9089 86.2188 52.8846 86.0976 52.8846 85.9751V81.0734C52.8846 80.5581 53.3046 80.1409 53.8233 80.1409H58.7574C59.2761 80.1409 59.6961 80.5581 59.6961 81.0734V85.9751ZM59.6961 73.1494C59.6961 73.3967 59.5972 73.6339 59.4212 73.8088C59.2451 73.9837 59.0064 74.0819 58.7574 74.0819H53.8233C53.5744 74.0819 53.3356 73.9837 53.1595 73.8088C52.9835 73.6339 52.8846 73.3967 52.8846 73.1494V68.2477C52.8846 67.7324 53.3046 67.3151 53.8233 67.3151H58.7574C59.2761 67.3151 59.6961 67.7324 59.6961 68.2477V73.1494ZM59.6961 60.3236C59.6961 60.571 59.5972 60.8082 59.4212 60.9831C59.2451 61.158 59.0064 61.2562 58.7574 61.2562H53.8233C53.5744 61.2562 53.3356 61.158 53.1595 60.9831C52.9835 60.8082 52.8846 60.571 52.8846 60.3236V55.422C52.8846 54.9066 53.3046 54.4894 53.8233 54.4894H58.7574C59.2761 54.4894 59.6961 54.9066 59.6961 55.422V60.3236ZM73.5956 85.9751C73.5956 86.0976 73.5713 86.2188 73.5242 86.332C73.477 86.4451 73.4078 86.5479 73.3207 86.6345C73.2335 86.7211 73.13 86.7898 73.0161 86.8367C72.9022 86.8835 72.7802 86.9077 72.6569 86.9077H67.7228C67.5995 86.9077 67.4775 86.8835 67.3636 86.8367C67.2497 86.7898 67.1462 86.7211 67.059 86.6345C66.9719 86.5479 66.9027 86.4451 66.8555 86.332C66.8084 86.2188 66.7841 86.0976 66.7841 85.9751V81.0734C66.7841 80.5581 67.2041 80.1409 67.7228 80.1409H72.6569C73.1756 80.1409 73.5956 80.5581 73.5956 81.0734V85.9751ZM73.5956 73.1494C73.5956 73.3967 73.4967 73.6339 73.3207 73.8088C73.1446 73.9837 72.9059 74.0819 72.6569 74.0819H67.7228C67.4738 74.0819 67.2351 73.9837 67.059 73.8088C66.883 73.6339 66.7841 73.3967 66.7841 73.1494V68.2477C66.7841 67.7324 67.2041 67.3151 67.7228 67.3151H72.6569C73.1756 67.3151 73.5956 67.7324 73.5956 68.2477V73.1494ZM73.5956 60.3236C73.5956 60.571 73.4967 60.8082 73.3207 60.9831C73.1446 61.158 72.9059 61.2562 72.6569 61.2562H67.7228C67.4738 61.2562 67.2351 61.158 67.059 60.9831C66.883 60.8082 66.7841 60.571 66.7841 60.3236V55.422C66.7841 54.9066 67.2041 54.4894 67.7228 54.4894H72.6569C73.1756 54.4894 73.5956 54.9066 73.5956 55.422V60.3236ZM87.4969 85.9751C87.4969 86.0976 87.4726 86.2188 87.4254 86.332C87.3783 86.4451 87.3091 86.5479 87.222 86.6345C87.1348 86.7211 87.0313 86.7898 86.9174 86.8367C86.8035 86.8835 86.6815 86.9077 86.5582 86.9077H81.6241C81.5008 86.9077 81.3787 86.8835 81.2648 86.8367C81.151 86.7898 81.0475 86.7211 80.9603 86.6345C80.8731 86.5479 80.804 86.4451 80.7568 86.332C80.7096 86.2188 80.6854 86.0976 80.6854 85.9751V81.0734C80.6854 80.5581 81.1054 80.1409 81.6241 80.1409H86.5582C87.0769 80.1409 87.4969 80.5581 87.4969 81.0734V85.9751ZM87.4969 73.1494C87.4969 73.3967 87.398 73.6339 87.222 73.8088C87.0459 73.9837 86.8071 74.0819 86.5582 74.0819H81.6241C81.3751 74.0819 81.1363 73.9837 80.9603 73.8088C80.7843 73.6339 80.6854 73.3967 80.6854 73.1494V68.2477C80.6854 67.7324 81.1054 67.3151 81.6241 67.3151H86.5582C87.0769 67.3151 87.4969 67.7324 87.4969 68.2477V73.1494ZM87.4969 60.3236C87.4969 60.571 87.398 60.8082 87.222 60.9831C87.0459 61.158 86.8071 61.2562 86.5582 61.2562H81.6241C81.3751 61.2562 81.1363 61.158 80.9603 60.9831C80.7843 60.8082 80.6854 60.571 80.6854 60.3236V55.422C80.6854 54.9066 81.1054 54.4894 81.6241 54.4894H86.5582C87.0769 54.4894 87.4969 54.9066 87.4969 55.422V60.3236Z" fill="#EEF0F4"/>
<path d="M57.6323 60.4324H51.8789V53.7458H57.6323V60.4324Z" fill="white"/>
<path d="M57.6323 73.8055H51.8789V67.119H57.6323V73.8055Z" fill="white"/>
<path d="M72.296 73.3741H65.8345V66.9033H72.296V73.3741Z" fill="#37F826"/>
<path d="M58.296 73.3741H51.8345V66.9033H58.296V73.3741Z" fill="#37F826"/>
<path d="M91.9983 94.4947H30.366C29.2054 94.4933 28.0927 94.0346 27.2721 93.2193C26.4514 92.4041 25.9897 91.2987 25.9883 90.1457V37.3985C25.9897 36.2456 26.4514 35.1402 27.2721 34.3249C28.0927 33.5097 29.2054 33.051 30.366 33.0496H37.6532V35.8472H30.366C29.5044 35.8472 28.8044 36.5427 28.8026 37.4003V45.2423H93.558V37.3985C93.558 36.5427 92.858 35.8455 91.9965 35.8455H84.7093V33.0478H91.9965C93.1571 33.0492 94.2697 33.5079 95.0904 34.3231C95.9111 35.1384 96.3728 36.2438 96.3742 37.3967V90.1439C96.3742 91.2972 95.9133 92.4033 95.0927 93.2191C94.2722 94.0349 93.1592 94.4937 91.9983 94.4947ZM28.8044 90.1457C28.8044 91.0016 29.5062 91.6988 30.3678 91.6988H91.9983C92.8598 91.6988 93.5598 91.0016 93.5598 90.1457V48.0364H28.8044V90.1457ZM85.1778 87.4301H80.2437C79.6216 87.4296 79.0252 87.1839 78.5854 86.747C78.1456 86.31 77.8982 85.7175 77.8978 85.0996V80.1979C77.8978 78.9123 78.9496 77.8674 80.2437 77.8674H85.1778C86.4719 77.8674 87.5237 78.9123 87.5237 80.1979V85.0996C87.5237 86.3834 86.4719 87.4301 85.1778 87.4301ZM80.7121 84.6324H84.7075V80.6633H80.7121V84.6324ZM71.2783 87.4301H66.3442C65.7222 87.4296 65.1257 87.1839 64.6859 86.747C64.2461 86.31 63.9988 85.7175 63.9983 85.0996V80.1979C63.9983 78.9123 65.0501 77.8674 66.3442 77.8674H71.2783C72.5724 77.8674 73.6242 78.9123 73.6242 80.1979V85.0996C73.6228 85.7173 73.3751 86.3092 72.9355 86.746C72.4959 87.1827 71.9 87.4287 71.2783 87.4301ZM66.8126 84.6324H70.808V80.6633H66.8126V84.6324ZM57.377 87.4301H52.4429C51.8209 87.4296 51.2245 87.1839 50.7846 86.747C50.3448 86.31 50.0975 85.7175 50.097 85.0996V80.1979C50.097 78.9123 51.1488 77.8674 52.4429 77.8674H57.377C58.6711 77.8674 59.7229 78.9123 59.7229 80.1979V85.0996C59.7229 86.3834 58.6711 87.4301 57.377 87.4301ZM52.9114 84.6324H56.9067V80.6633H52.9114V84.6324ZM43.4775 87.4301H38.5416C37.9196 87.4296 37.3232 87.1839 36.8833 86.747C36.4435 86.31 36.1962 85.7175 36.1957 85.0996V80.1979C36.1957 78.9123 37.2475 77.8674 38.5416 77.8674H43.4757C44.7698 77.8674 45.8216 78.9123 45.8216 80.1979V85.0996C45.8216 86.3852 44.7716 87.4283 43.4775 87.4301ZM39.0119 84.6324H43.0073V80.6633H39.0119V84.6324ZM85.1778 74.6044H80.2437C79.6216 74.6039 79.0252 74.3582 78.5854 73.9213C78.1456 73.4843 77.8982 72.8918 77.8978 72.2739V67.3722C77.8978 66.0866 78.9496 65.0417 80.2437 65.0417H85.1778C86.4719 65.0417 87.5237 66.0866 87.5237 67.3722V72.2739C87.5237 73.5595 86.4719 74.6044 85.1778 74.6044ZM80.7121 71.8067H84.7075V67.8376H80.7121V71.8067ZM71.2783 74.6044H66.3442C65.7222 74.6039 65.1257 74.3582 64.6859 73.9213C64.2461 73.4843 63.9988 72.8918 63.9983 72.2739V67.3722C63.9983 66.0866 65.0501 65.0417 66.3442 65.0417H71.2783C72.5724 65.0417 73.6242 66.0866 73.6242 67.3722V72.2739C73.6242 73.5595 72.5706 74.6044 71.2783 74.6044ZM66.8126 71.8067H70.808V67.8376H66.8126V71.8067ZM57.377 74.6044H52.4429C51.8209 74.6039 51.2245 74.3582 50.7846 73.9213C50.3448 73.4843 50.0975 72.8918 50.097 72.2739V67.3722C50.097 66.0866 51.1488 65.0417 52.4429 65.0417H57.377C58.6711 65.0417 59.7229 66.0866 59.7229 67.3722V72.2739C59.7229 73.5595 58.6711 74.6044 57.377 74.6044ZM52.9114 71.8067H56.9067V67.8376H52.9114V71.8067ZM43.4775 74.6044H38.5416C37.9196 74.6039 37.3232 74.3582 36.8833 73.9213C36.4435 73.4843 36.1962 72.8918 36.1957 72.2739V67.3722C36.1957 66.0866 37.2475 65.0417 38.5416 65.0417H43.4757C44.7698 65.0417 45.8216 66.0866 45.8216 67.3722V72.2739C45.8216 73.5595 44.7716 74.6026 43.4775 74.6044ZM39.0119 71.8067H43.0073V67.8376H39.0119V71.8067ZM85.1778 61.7786H80.2437C79.6216 61.7782 79.0252 61.5325 78.5854 61.0955C78.1456 60.6586 77.8982 60.0661 77.8978 59.4482V54.5465C77.8978 53.2609 78.9496 52.216 80.2437 52.216H85.1778C86.4719 52.216 87.5237 53.2609 87.5237 54.5465V59.4482C87.5237 60.7338 86.4719 61.7786 85.1778 61.7786ZM80.7121 58.9828H84.7075V55.0118H80.7121V58.9828ZM71.2783 61.7786H66.3442C65.7222 61.7782 65.1257 61.5325 64.6859 61.0955C64.2461 60.6586 63.9988 60.0661 63.9983 59.4482V54.5465C63.9983 53.2609 65.0501 52.216 66.3442 52.216H71.2783C72.5724 52.216 73.6242 53.2609 73.6242 54.5465V59.4482C73.6242 60.7338 72.5706 61.7786 71.2783 61.7786ZM66.8126 58.9828H70.808V55.0118H66.8126V58.9828ZM57.377 61.7786H52.4429C51.8209 61.7782 51.2245 61.5325 50.7846 61.0955C50.3448 60.6586 50.0975 60.0661 50.097 59.4482V54.5465C50.097 53.2609 51.1488 52.216 52.4429 52.216H57.377C58.6711 52.216 59.7229 53.2609 59.7229 54.5465V59.4482C59.7229 60.7338 58.6711 61.7786 57.377 61.7786ZM52.9114 58.9828H56.9067V55.0118H52.9114V58.9828ZM82.3921 41.6548H79.576V28.4974H82.3921V41.6548ZM62.5911 41.6548H59.7749V28.4974H62.5911V41.6548ZM42.7901 41.6548H39.9739V28.4974H42.7901V41.6548ZM77.2552 35.8455H64.9101V33.0478H77.2552V35.8455ZM57.4542 35.8455H45.1091V33.0478H57.4542V35.8455Z" fill="#313133"/>
</g>
<defs>
<clipPath id="clip0_3536_1009">
<rect width="70" height="66.8657" fill="white" transform="translate(25.9883 26.9996)"/>
</clipPath>
</defs>
</svg>
