<svg width="120" height="120" viewBox="0 0 120 120" fill="none" xmlns="http://www.w3.org/2000/svg">
<path d="M108.524 23.2835C128.272 49.7056 121.645 88.1767 95.3304 108.018C69.0161 127.847 31.6765 122.513 11.9286 96.0911C-7.81936 69.669 -2.50776 32.1766 23.8066 12.3478C50.121 -7.48104 88.7641 -3.1386 108.524 23.2835Z" fill="#F4F6FA"/>
<g clip-path="url(#clip0_3536_878)">
<path fill-rule="evenodd" clip-rule="evenodd" d="M78.8583 72.9994C71.0211 72.8884 58.159 72.7624 56.2827 73.0967V76.7937C56.2827 77.7742 56.6744 78.7145 57.3717 79.4078C58.069 80.1011 59.0147 80.4906 60.0008 80.4906H78.6661L84.9956 89.8662C85.6782 90.877 87.2636 90.3967 87.2636 89.1796V80.4899H90.9817C91.9678 80.4899 92.9135 80.1004 93.6108 79.4071C94.308 78.7138 94.6998 77.7735 94.6998 76.793V55.8462C94.6998 54.8657 94.308 53.9254 93.6108 53.232C92.9135 52.5387 91.9678 52.1492 90.9817 52.1492H84.7854L84.8862 67.0452C84.9085 70.3605 82.1919 73.0466 78.8583 72.9994Z" fill="#EEF0F4"/>
<path d="M26.7197 31.4996C27.18 31.0518 27.8041 30.8 28.455 30.7994H77.545C78.1959 30.8 78.82 31.0518 79.2803 31.4996C79.7406 31.9473 79.9994 32.5545 80 33.1877V66.9996C79.9994 67.6328 79.7406 68.2399 79.2803 68.6877C78.82 69.1355 78.1959 69.3873 77.545 69.3878H50.7823L38.5875 83.9996V69.3878H28.455C27.8041 69.3873 27.18 69.1355 26.7197 68.6877C26.2594 68.2399 26.0006 67.6328 26 66.9996V33.1877C26.0006 32.5545 26.2594 31.9473 26.7197 31.4996Z" fill="white"/>
<path d="M86.0158 91.7067C85.5999 91.7064 85.1905 91.604 84.824 91.4085C84.4575 91.2131 84.1452 90.9307 83.9148 90.5863L77.9719 81.7842H60C58.6694 81.7827 57.3937 81.2564 56.4529 80.3208C55.5121 79.3852 54.9829 78.1167 54.9816 76.7936V73.0974H57.5837V76.7936C57.5843 77.4307 57.839 78.0416 58.292 78.4922C58.745 78.9427 59.3593 79.1962 60 79.1969H79.3594L85.9618 88.9756V79.1969H90.9809C91.6216 79.1962 92.2359 78.9427 92.6889 78.4922C93.1419 78.0416 93.3966 77.4307 93.3972 76.7936V55.8469C93.3966 55.2098 93.1419 54.5989 92.6889 54.1483C92.2359 53.6978 91.6216 53.4443 90.9809 53.4436H84.7838V50.8563H90.9809C92.3115 50.8578 93.5872 51.3841 94.528 52.3197C95.4688 53.2553 95.9979 54.5238 95.9993 55.8469V76.7936C95.9979 78.1167 95.4688 79.3852 94.528 80.3208C93.5872 81.2564 92.3115 81.7827 90.9809 81.7842H88.5638V89.1782C88.5661 89.7203 88.3919 90.2487 88.0674 90.6844C87.7429 91.1201 87.2854 91.4398 86.7631 91.5958C86.5209 91.6694 86.269 91.7068 86.0158 91.7067ZM38.9458 85.2564C38.6563 85.2564 38.3611 85.207 38.0731 85.1039C37.5788 84.9313 37.1511 84.6094 36.8498 84.1833C36.5485 83.7571 36.3887 83.248 36.3926 82.7271V70.6941H29.0191C27.6884 70.6926 26.4127 70.1663 25.4718 69.2307C24.5308 68.2951 24.0015 67.0266 24 65.7035V34.283C24.0015 32.9598 24.5308 31.6913 25.4718 30.7557C26.4127 29.8202 27.6884 29.2939 29.0191 29.2924H77.3491C78.6798 29.2939 79.9556 29.8202 80.8965 30.7557C81.8374 31.6913 82.3667 32.9598 82.3682 34.283V65.7035C82.3667 67.0266 81.8374 68.2951 80.8965 69.2307C79.9556 70.1663 78.6798 70.6926 77.3491 70.6941H52.2262L40.8912 84.3357C40.6559 84.6231 40.3593 84.8548 40.0228 85.0141C39.6863 85.1733 39.3184 85.2561 38.9458 85.2564ZM29.0191 31.8797C28.3783 31.8802 27.7638 32.1336 27.3106 32.5842C26.8575 33.0348 26.6027 33.6457 26.6021 34.283V65.7035C26.6027 66.3407 26.8575 66.9517 27.3106 67.4023C27.7638 67.8528 28.3783 68.1062 29.0191 68.1068H38.9947V82.5553L51.0007 68.1068H77.3491C77.99 68.1062 78.6044 67.8528 79.0576 67.4023C79.5108 66.9517 79.7656 66.3407 79.7662 65.7035V34.283C79.7656 33.6457 79.5108 33.0348 79.0576 32.5842C78.6044 32.1336 77.99 31.8802 77.3491 31.8797H29.0191Z" fill="#313133"/>
<circle cx="38.5" cy="51.5" r="4.5" fill="#37F826" stroke="#313133" stroke-width="2"/>
<circle cx="52.5" cy="51.5" r="4.5" fill="#37F826" stroke="#313133" stroke-width="2"/>
<circle cx="66.5" cy="51.5" r="4.5" fill="#37F826" stroke="#313133" stroke-width="2"/>
</g>
<defs>
<clipPath id="clip0_3536_878">
<rect width="72" height="63" fill="white" transform="translate(24 28.9996)"/>
</clipPath>
</defs>
</svg>
