<svg width="121" height="120" viewBox="0 0 121 120" fill="none" xmlns="http://www.w3.org/2000/svg">
<path d="M109.52 23.1893C129.269 49.5045 122.641 87.82 96.3257 107.581C70.0105 127.329 32.6698 122.018 12.9212 95.7024C-6.82742 69.3872 -1.51565 32.0464 24.7996 12.2978C51.1148 -7.45078 89.7592 -3.1259 109.52 23.1893Z" fill="#F4F6FA"/>
<g clip-path="url(#clip0_3536_970)">
<rect x="25.9883" y="25.9996" width="53" height="69" fill="white"/>
<path d="M63.9343 78.2053L66.6375 67.0663L74.2922 72.9035L63.9343 78.2053Z" fill="#37F826"/>
<path fill-rule="evenodd" clip-rule="evenodd" d="M97.6925 31.1278L101.652 34.207C103.144 35.3666 103.411 37.5129 102.25 39.0027L75.433 72.9906L66.073 65.7124L92.892 31.7246C93.1678 31.3703 93.5108 31.0739 93.9014 30.8521C94.292 30.6304 94.7225 30.4878 95.1684 30.4323C95.6143 30.3769 96.0667 30.4098 96.4998 30.5291C96.9329 30.6485 97.3382 30.8519 97.6925 31.1278Z" fill="#EEF0F4"/>
<path d="M78.6131 95.3147H26.1243C25.7973 95.3147 25.4837 95.185 25.2525 94.9541C25.0213 94.7231 24.8914 94.41 24.8914 94.0834V27.321C24.8914 26.6408 25.4431 26.0898 26.1243 26.0898H78.6131C79.2944 26.0898 79.8461 26.6408 79.8461 27.321V43.3015C79.8461 43.6281 79.7162 43.9412 79.485 44.1722C79.2537 44.4031 78.9401 44.5328 78.6131 44.5328C78.2861 44.5328 77.9725 44.4031 77.7413 44.1722C77.51 43.9412 77.3801 43.6281 77.3801 43.3015V28.5523H27.3573V92.8542H77.3801V74.4927C77.3801 74.1662 77.51 73.853 77.7413 73.6221C77.9725 73.3912 78.2861 73.2615 78.6131 73.2615C78.9401 73.2615 79.2537 73.3912 79.485 73.6221C79.7162 73.853 79.8461 74.1662 79.8461 74.4927V94.0854C79.8456 94.4116 79.7154 94.7243 79.4843 94.9548C79.2531 95.1852 78.9398 95.3147 78.6131 95.3147ZM52.5749 82.7236H32.4367C32.1097 82.7236 31.7961 82.5939 31.5648 82.363C31.3336 82.1321 31.2037 81.8189 31.2037 81.4924C31.2037 81.1658 31.3336 80.8527 31.5648 80.6217C31.7961 80.3908 32.1097 80.2611 32.4367 80.2611H52.5749C52.9019 80.2611 53.2155 80.3908 53.4468 80.6217C53.678 80.8527 53.8079 81.1658 53.8079 81.4924C53.8079 81.8189 53.678 82.1321 53.4468 82.363C53.2155 82.5939 52.9019 82.7236 52.5749 82.7236ZM62.7157 80.7564C62.5295 80.756 62.3458 80.7136 62.1784 80.6323C62.0109 80.551 61.864 80.433 61.7487 80.287C61.6334 80.1411 61.5526 79.971 61.5124 79.7894C61.4722 79.6079 61.4736 79.4196 61.5166 79.2387L64.8172 65.3806C64.8537 65.2116 64.9256 65.0523 65.0283 64.9132V64.9112L65.0542 64.8774L91.8713 30.8915C92.6313 29.9212 93.7456 29.2913 94.9699 29.1399C96.1942 28.9885 97.4286 29.328 98.4027 30.0839L102.363 33.163C103.343 33.9249 103.968 35.0249 104.122 36.2561C104.198 36.8618 104.154 37.4767 103.992 38.0653C103.83 38.6539 103.552 39.2045 103.175 39.6853L100.558 42.9992C100.483 43.1508 100.377 43.2849 100.247 43.393L76.3523 73.6811L76.3503 73.6831V73.6851L76.3483 73.6871C76.236 73.8279 76.0938 73.942 75.932 74.0213L63.2874 80.6152C63.111 80.7075 62.9149 80.7559 62.7157 80.7564ZM66.7792 67.7894L64.5423 77.184L73.1135 72.7125L66.7792 67.7894ZM72.4402 69.0684L75.1751 71.1948L97.6996 42.6451L94.9866 40.5347L72.4402 69.0684ZM67.7612 65.4303L70.4941 67.5547L93.0385 39.023L90.2837 36.8807L67.7612 65.4303ZM91.8095 34.9473L99.2234 40.7117L101.231 38.1657C101.586 37.7082 101.745 37.1313 101.671 36.5585C101.637 36.2736 101.546 35.9984 101.404 35.7488C101.262 35.4992 101.072 35.2802 100.845 35.1044L96.8849 32.0253C96.4266 31.6698 95.8459 31.5104 95.2701 31.582C94.6942 31.6536 94.1704 31.9504 93.8134 32.4072L93.8114 32.4132L91.8095 34.9473ZM56.6842 72.0541H32.4367C32.1097 72.0541 31.7961 71.9243 31.5648 71.6934C31.3336 71.4625 31.2037 71.1494 31.2037 70.8228C31.2037 70.4963 31.3336 70.1831 31.5648 69.9522C31.7961 69.7213 32.1097 69.5915 32.4367 69.5915H56.6842C57.0112 69.5915 57.3248 69.7213 57.5561 69.9522C57.7873 70.1831 57.9172 70.4963 57.9172 70.8228C57.9172 71.1494 57.7873 71.4625 57.5561 71.6934C57.3248 71.9243 57.0112 72.0541 56.6842 72.0541ZM63.2595 61.3845H32.4367C32.1097 61.3845 31.7961 61.2548 31.5648 61.0239C31.3336 60.793 31.2037 60.4798 31.2037 60.1532C31.2037 59.8267 31.3336 59.5135 31.5648 59.2826C31.7961 59.0517 32.1097 58.922 32.4367 58.922H63.2595C63.5865 58.922 63.9001 59.0517 64.1314 59.2826C64.3626 59.5135 64.4925 59.8267 64.4925 60.1532C64.4925 60.4798 64.3626 60.793 64.1314 61.0239C63.9001 61.2548 63.5865 61.3845 63.2595 61.3845ZM72.3008 50.7129H32.4367C32.1097 50.7129 31.7961 50.5832 31.5648 50.3523C31.3336 50.1214 31.2037 49.8082 31.2037 49.4817C31.2037 49.1551 31.3336 48.842 31.5648 48.611C31.7961 48.3801 32.1097 48.2504 32.4367 48.2504H72.3008C72.6278 48.2504 72.9414 48.3801 73.1726 48.611C73.4039 48.842 73.5338 49.1551 73.5338 49.4817C73.5338 49.8082 73.4039 50.1214 73.1726 50.3523C72.9414 50.5832 72.6278 50.7129 72.3008 50.7129ZM72.3008 40.0434H32.4367C32.1097 40.0434 31.7961 39.9136 31.5648 39.6827C31.3336 39.4518 31.2037 39.1387 31.2037 38.8121C31.2037 38.4856 31.3336 38.1724 31.5648 37.9415C31.7961 37.7106 32.1097 37.5809 32.4367 37.5809H72.3008C72.4627 37.5809 72.623 37.6127 72.7726 37.6746C72.9222 37.7365 73.0581 37.8271 73.1726 37.9415C73.2871 38.0558 73.3779 38.1915 73.4399 38.3409C73.5019 38.4903 73.5338 38.6504 73.5338 38.8121C73.5338 38.9738 73.5019 39.1339 73.4399 39.2833C73.3779 39.4327 73.2871 39.5684 73.1726 39.6827C73.0581 39.7971 72.9222 39.8878 72.7726 39.9496C72.623 40.0115 72.4627 40.0434 72.3008 40.0434Z" fill="#313133"/>
</g>
<defs>
<clipPath id="clip0_3536_970">
<rect width="79.6763" height="71.6078" fill="white" transform="translate(24.8914 24.8984)"/>
</clipPath>
</defs>
</svg>
