<svg width="121" height="120" viewBox="0 0 121 120" fill="none" xmlns="http://www.w3.org/2000/svg">
<path d="M109.52 23.1893C129.269 49.5045 122.641 87.82 96.3257 107.581C70.0105 127.329 32.6698 122.018 12.9212 95.7024C-6.82742 69.3872 -1.51565 32.0464 24.7996 12.2978C51.1148 -7.45078 89.7592 -3.1259 109.52 23.1893Z" fill="#F4F6FA"/>
<g clip-path="url(#clip0_3536_1045)">
<rect x="25.9883" y="25.9996" width="53" height="69" fill="white"/>
<path d="M63.9341 78.2053L66.6373 67.0663L74.292 72.9035L63.9341 78.2053Z" fill="#37F826"/>
<path fill-rule="evenodd" clip-rule="evenodd" d="M97.6923 31.1278L101.652 34.207C103.144 35.3666 103.411 37.5129 102.25 39.0027L75.4327 72.9906L66.0728 65.7124L92.8918 31.7246C93.1676 31.3703 93.5106 31.0739 93.9012 30.8521C94.2918 30.6304 94.7223 30.4878 95.1682 30.4323C95.614 30.3769 96.0664 30.4098 96.4996 30.5291C96.9327 30.6485 97.338 30.8519 97.6923 31.1278Z" fill="#EEF0F4"/>
<path d="M78.6129 95.3147H26.1241C25.7971 95.3147 25.4835 95.185 25.2522 94.9541C25.021 94.7231 24.8911 94.41 24.8911 94.0834V27.321C24.8911 26.6408 25.4429 26.0898 26.1241 26.0898H78.6129C79.2941 26.0898 79.8459 26.6408 79.8459 27.321V43.3015C79.8459 43.6281 79.716 43.9412 79.4847 44.1722C79.2535 44.4031 78.9399 44.5328 78.6129 44.5328C78.2859 44.5328 77.9723 44.4031 77.741 44.1722C77.5098 43.9412 77.3799 43.6281 77.3799 43.3015V28.5523H27.3571V92.8542H77.3799V74.4927C77.3799 74.1662 77.5098 73.853 77.741 73.6221C77.9723 73.3912 78.2859 73.2615 78.6129 73.2615C78.9399 73.2615 79.2535 73.3912 79.4847 73.6221C79.716 73.853 79.8459 74.1662 79.8459 74.4927V94.0854C79.8453 94.4116 79.7152 94.7243 79.484 94.9548C79.2529 95.1852 78.9395 95.3147 78.6129 95.3147ZM52.5747 82.7236H32.4365C32.1095 82.7236 31.7958 82.5939 31.5646 82.363C31.3334 82.1321 31.2035 81.8189 31.2035 81.4924C31.2035 81.1658 31.3334 80.8527 31.5646 80.6217C31.7958 80.3908 32.1095 80.2611 32.4365 80.2611H52.5747C52.9017 80.2611 53.2153 80.3908 53.4465 80.6217C53.6777 80.8527 53.8076 81.1658 53.8076 81.4924C53.8076 81.8189 53.6777 82.1321 53.4465 82.363C53.2153 82.5939 52.9017 82.7236 52.5747 82.7236ZM62.7155 80.7564C62.5293 80.756 62.3456 80.7136 62.1781 80.6323C62.0107 80.551 61.8638 80.433 61.7485 80.287C61.6331 80.1411 61.5524 79.971 61.5122 79.7894C61.472 79.6079 61.4734 79.4196 61.5163 79.2387L64.8169 65.3806C64.8534 65.2116 64.9254 65.0523 65.0281 64.9132V64.9112L65.054 64.8774L91.871 30.8915C92.6311 29.9212 93.7453 29.2913 94.9696 29.1399C96.1939 28.9885 97.4284 29.328 98.4025 30.0839L102.362 33.163C103.342 33.9249 103.968 35.0249 104.121 36.2561C104.198 36.8618 104.154 37.4767 103.992 38.0653C103.829 38.6539 103.552 39.2045 103.175 39.6853L100.558 42.9992C100.483 43.1508 100.377 43.2849 100.247 43.393L76.3521 73.6811L76.3501 73.6831V73.6851L76.3481 73.6871C76.2358 73.8279 76.0936 73.942 75.9318 74.0213L63.2871 80.6152C63.1107 80.7075 62.9146 80.7559 62.7155 80.7564ZM66.779 67.7894L64.542 77.184L73.1132 72.7125L66.779 67.7894ZM72.44 69.0684L75.1748 71.1948L97.6993 42.6451L94.9864 40.5347L72.44 69.0684ZM67.761 65.4303L70.4939 67.5547L93.0383 39.023L90.2835 36.8807L67.761 65.4303ZM91.8093 34.9473L99.2232 40.7117L101.231 38.1657C101.586 37.7082 101.745 37.1313 101.671 36.5585C101.636 36.2736 101.545 35.9984 101.404 35.7488C101.262 35.4992 101.072 35.2802 100.845 35.1044L96.8847 32.0253C96.4264 31.6698 95.8456 31.5104 95.2698 31.582C94.694 31.6536 94.1701 31.9504 93.8131 32.4072L93.8111 32.4132L91.8093 34.9473ZM56.684 72.0541H32.4365C32.1095 72.0541 31.7958 71.9243 31.5646 71.6934C31.3334 71.4625 31.2035 71.1494 31.2035 70.8228C31.2035 70.4963 31.3334 70.1831 31.5646 69.9522C31.7958 69.7213 32.1095 69.5915 32.4365 69.5915H56.684C57.011 69.5915 57.3246 69.7213 57.5558 69.9522C57.787 70.1831 57.917 70.4963 57.917 70.8228C57.917 71.1494 57.787 71.4625 57.5558 71.6934C57.3246 71.9243 57.011 72.0541 56.684 72.0541ZM63.2592 61.3845H32.4365C32.1095 61.3845 31.7958 61.2548 31.5646 61.0239C31.3334 60.793 31.2035 60.4798 31.2035 60.1532C31.2035 59.8267 31.3334 59.5135 31.5646 59.2826C31.7958 59.0517 32.1095 58.922 32.4365 58.922H63.2592C63.5863 58.922 63.8999 59.0517 64.1311 59.2826C64.3623 59.5135 64.4922 59.8267 64.4922 60.1532C64.4922 60.4798 64.3623 60.793 64.1311 61.0239C63.8999 61.2548 63.5863 61.3845 63.2592 61.3845ZM72.3005 50.7129H32.4365C32.1095 50.7129 31.7958 50.5832 31.5646 50.3523C31.3334 50.1214 31.2035 49.8082 31.2035 49.4817C31.2035 49.1551 31.3334 48.842 31.5646 48.611C31.7958 48.3801 32.1095 48.2504 32.4365 48.2504H72.3005C72.6275 48.2504 72.9411 48.3801 73.1724 48.611C73.4036 48.842 73.5335 49.1551 73.5335 49.4817C73.5335 49.8082 73.4036 50.1214 73.1724 50.3523C72.9411 50.5832 72.6275 50.7129 72.3005 50.7129ZM72.3005 40.0434H32.4365C32.1095 40.0434 31.7958 39.9136 31.5646 39.6827C31.3334 39.4518 31.2035 39.1387 31.2035 38.8121C31.2035 38.4856 31.3334 38.1724 31.5646 37.9415C31.7958 37.7106 32.1095 37.5809 32.4365 37.5809H72.3005C72.4624 37.5809 72.6228 37.6127 72.7724 37.6746C72.922 37.7365 73.0579 37.8271 73.1724 37.9415C73.2869 38.0558 73.3777 38.1915 73.4397 38.3409C73.5016 38.4903 73.5335 38.6504 73.5335 38.8121C73.5335 38.9738 73.5016 39.1339 73.4397 39.2833C73.3777 39.4327 73.2869 39.5684 73.1724 39.6827C73.0579 39.7971 72.922 39.8878 72.7724 39.9496C72.6228 40.0115 72.4624 40.0434 72.3005 40.0434Z" fill="#313133"/>
</g>
<defs>
<clipPath id="clip0_3536_1045">
<rect width="79.6763" height="71.6078" fill="white" transform="translate(24.8911 24.8984)"/>
</clipPath>
</defs>
</svg>
