<svg width="120" height="120" viewBox="0 0 120 120" fill="none" xmlns="http://www.w3.org/2000/svg">
<path d="M108.52 23.2835C128.268 49.7056 121.641 88.1767 95.3265 108.018C69.0122 127.847 31.6726 122.513 11.9247 96.0911C-7.82326 69.669 -2.51166 32.1766 23.8027 12.3478C50.117 -7.48104 88.7602 -3.1386 108.52 23.2835Z" fill="#F4F6FA"/>
<g clip-path="url(#clip0_3536_873)">
<path d="M63.3682 68.2436C62.3382 68.4476 59.3002 71.3436 59.1762 71.3556C59.0302 71.3416 55.9462 68.4356 54.9762 68.2436C53.7822 68.0096 52.6002 68.5216 51.5562 68.9756C51.0702 69.1856 50.1602 69.5676 49.9222 69.5236C49.6782 69.3816 49.3102 68.4456 49.1122 67.9416C48.7002 66.8916 48.2322 65.7016 47.2402 65.0376C46.2465 64.3712 44.9736 64.3892 43.8485 64.4052L43.8202 64.4056C43.6362 64.4096 43.3942 64.4136 43.1502 64.4096C43.1502 64.4096 41.8622 63.4236 41.9462 62.1656C41.9562 61.1256 41.9102 60.0016 41.3102 59.1056C40.6462 58.1116 39.4562 57.6436 38.4062 57.2316C37.9022 57.0336 36.9662 56.6656 36.8322 56.4436C36.7723 56.1721 37.1606 55.2773 37.3709 54.7926L37.3722 54.7896C37.8262 53.7456 38.3382 52.5596 38.1042 51.3696C37.8753 50.215 36.9688 49.3378 36.1675 48.5625L36.1562 48.5516L36.1395 48.5353C35.7397 48.1478 35.0198 47.4498 34.9922 47.1796C35.0198 46.9034 35.7402 46.2049 36.1398 45.8174L36.1562 45.8016C36.9622 45.0236 37.8742 44.1416 38.1042 42.9816C38.3402 41.7917 37.8263 40.6079 37.3724 39.562L37.3722 39.5616L37.3665 39.5484C37.1552 39.0614 36.7707 38.1753 36.8242 37.9276C36.9662 37.6856 37.9042 37.3176 38.4082 37.1156C39.4582 36.7036 40.6482 36.2356 41.3122 35.2436C41.9806 34.2459 41.9603 32.9656 41.9423 31.8336L41.9422 31.8256L41.942 31.8141C41.934 31.2775 41.9193 30.2961 42.0682 30.0856C42.2942 29.9196 43.2842 29.9396 43.8222 29.9456C44.9502 29.9656 46.2402 29.9856 47.2422 29.3156C48.2342 28.6516 48.7022 27.4636 49.1142 26.4136L49.1209 26.3964C49.3205 25.8905 49.6827 24.9721 49.9022 24.8396C50.1782 24.7736 51.0742 25.1716 51.5562 25.3796C52.6022 25.8336 53.7902 26.3436 54.9762 26.1116C56.1332 25.8822 57.0136 24.9723 57.7901 24.1698L57.7962 24.1636C58.1782 23.7676 58.8922 23.0276 59.1662 22.9996C59.4424 23.0272 60.1409 23.7476 60.5283 24.1472L60.5442 24.1636L60.5506 24.1702C61.329 24.9746 62.2074 25.8822 63.3642 26.1116C64.5602 26.3456 65.7422 25.8336 66.7862 25.3796C67.2702 25.1696 68.1782 24.7856 68.4202 24.8316C68.6642 24.9756 69.0322 25.9116 69.2302 26.4156C69.6422 27.4656 70.1102 28.6536 71.1022 29.3196C72.1019 29.9881 73.3844 29.9677 74.5145 29.9497L74.5222 29.9496C75.0542 29.9436 76.0502 29.9256 76.2622 30.0756C76.4282 30.3016 76.4122 31.2956 76.4022 31.8296L76.4021 31.8375C76.3841 32.9696 76.3638 34.2499 77.0322 35.2476C77.6962 36.2416 78.8862 36.7096 79.9362 37.1216C80.4402 37.3196 81.3762 37.6876 81.5102 37.9096C81.5701 38.181 81.1818 39.0758 80.9715 39.5605L80.9702 39.5636C80.5162 40.6076 80.0042 41.7936 80.2382 42.9836C80.4671 44.1401 81.3736 45.0173 82.1749 45.7926L82.1862 45.8036L82.2029 45.8198C82.6027 46.2074 83.3226 46.9054 83.3502 47.1756C83.3222 47.4576 82.5842 48.1716 82.1862 48.5556L82.1798 48.5618C81.3773 49.3383 80.4696 50.2167 80.2402 51.3736C80.0042 52.5634 80.5181 53.7473 80.972 54.7932L80.9722 54.7936C81.1822 55.2776 81.5722 56.1776 81.5202 56.4276C81.3782 56.6696 80.4402 57.0396 79.9362 57.2376C78.8862 57.6496 77.6962 58.1176 77.0322 59.1096C76.3638 60.1072 76.3841 61.3876 76.4021 62.5196L76.4022 62.5276L76.4024 62.539C76.4104 63.0757 76.4251 64.0571 76.2762 64.2676C76.0522 64.4316 75.0582 64.4136 74.5222 64.4076L74.4929 64.4072C73.3622 64.3912 72.0936 64.3733 71.1022 65.0376C70.1102 65.7016 69.6422 66.8916 69.2302 67.9416L69.2234 67.9587C69.0239 68.4647 68.6617 69.3831 68.4422 69.5156C68.1775 69.5793 67.2792 69.1895 66.7934 68.9787L66.7862 68.9756C65.7422 68.5216 64.5562 68.0076 63.3682 68.2436Z" fill="white"/>
<path d="M66.205 95.9996C65.9945 96.0002 65.7864 95.9552 65.595 95.8676C65.3673 95.7595 65.1708 95.5955 65.0235 95.3909C64.8763 95.1863 64.7832 94.9478 64.753 94.6976C61.627 72.9996 61.6712 72.3016 61.8072 72.1296L61.8812 72.0376L62.9922 70.1296C70.1724 72.2595 68.9922 71.9898 71.9922 65.9996C75.9922 66.9898 77.4107 65.4741 77.933 65.2816L78.213 64.6796L93.043 93.7456C93.1587 94.0134 93.1934 94.3093 93.1425 94.5965C93.0917 94.8838 92.9576 95.1498 92.757 95.3616C92.5559 95.5668 92.2998 95.7095 92.0195 95.7727C91.7392 95.8358 91.4467 95.8167 91.177 95.7176L75.859 89.8656L67.029 95.7536C66.7845 95.9148 66.4978 96.0004 66.205 95.9996ZM52.9286 96.0276C52.6355 96.0278 52.3485 95.943 52.1026 95.7836L43.2746 89.8956L27.9566 95.7436C27.6865 95.8408 27.3943 95.8592 27.1141 95.7965C26.834 95.7338 26.5775 95.5927 26.3746 95.3896C26.1771 95.1814 26.0442 94.9203 25.992 94.6381C25.9398 94.3559 25.9706 94.0647 26.0806 93.7996L40.7626 64.9996L45.992 66.9996L49.992 70.8816L55.992 70.1296L54.3806 94.7336C54.349 94.9824 54.2554 95.2192 54.1082 95.4223C53.9611 95.6254 53.7652 95.7881 53.5386 95.8956C53.3472 95.9831 53.1391 96.0282 52.9286 96.0276Z" fill="#EEF0F4"/>
<path d="M52.8263 97.0236C52.3266 97.0246 51.8379 96.877 51.4223 96.5996L43.0423 91.0116L28.2303 96.6696C27.7683 96.8423 27.2661 96.8767 26.7848 96.7688C26.3036 96.6608 25.8642 96.4151 25.5203 96.0616C25.1824 95.7054 24.955 95.2589 24.8655 94.7762C24.7761 94.2935 24.8284 93.7952 25.0163 93.3416L25.0623 93.2456L39.3063 65.3076C38.9103 64.4056 38.9283 63.3436 38.9443 62.3756C38.9543 61.8096 38.9683 60.8636 38.8023 60.6156C38.6403 60.3736 37.7663 60.0316 37.2443 59.8256C36.0103 59.3396 34.6103 58.7896 34.0503 57.4376C33.4983 56.1056 34.0903 54.7396 34.6143 53.5356C34.8563 52.9776 35.2223 52.1336 35.1623 51.8296C35.1083 51.5596 34.4423 50.9156 34.0443 50.5316C33.0823 49.6056 31.9923 48.5536 31.9923 47.0736C31.9923 45.5936 33.0803 44.5436 34.0403 43.6156C34.4383 43.2316 35.1063 42.5876 35.1583 42.3176C35.2183 42.0136 34.8523 41.1696 34.6103 40.6116C34.0883 39.4076 33.4963 38.0416 34.0483 36.7096C34.6103 35.3576 36.0083 34.8076 37.2443 34.3216C37.7663 34.1156 38.6403 33.7716 38.8023 33.5316C38.9683 33.2836 38.9523 32.3356 38.9443 31.7716C38.9223 30.4516 38.8983 28.9556 39.9263 27.9296C40.9523 26.9016 42.4503 26.9316 43.7683 26.9476C44.3303 26.9576 45.2803 26.9736 45.5303 26.8056C45.7703 26.6456 46.1123 25.7716 46.3183 25.2496C46.8043 24.0156 47.3543 22.6156 48.7063 22.0536C50.0343 21.5036 51.4023 22.0936 52.6083 22.6156C53.1663 22.8576 54.0123 23.2316 54.3143 23.1636C54.5863 23.1116 55.2303 22.4436 55.6143 22.0456C56.5383 21.0876 57.5883 19.9996 59.0683 19.9996C60.5463 19.9996 61.5983 21.0876 62.5263 22.0476C62.9123 22.4456 63.5563 23.1136 63.8243 23.1656C64.1443 23.2276 64.9743 22.8596 65.5323 22.6176C66.7363 22.0956 68.1043 21.5036 69.4343 22.0556C70.7863 22.6156 71.3363 24.0156 71.8223 25.2516C72.0283 25.7736 72.3723 26.6476 72.6123 26.8096C72.8603 26.9736 73.8083 26.9616 74.3723 26.9496C75.6903 26.9336 77.1883 26.9036 78.2143 27.9296C79.2423 28.9576 79.2163 30.4536 79.1963 31.7716C79.1863 32.3376 79.1723 33.2836 79.3383 33.5316C79.5003 33.7736 80.3743 34.1176 80.8963 34.3216C82.1303 34.8076 83.5303 35.3556 84.0903 36.7096C84.6423 38.0416 84.0503 39.4076 83.5263 40.6116C83.2843 41.1696 82.9183 42.0136 82.9783 42.3176C83.0303 42.5876 83.6983 43.2316 84.0963 43.6156C85.0563 44.5416 86.1443 45.5936 86.1443 47.0736C86.1443 48.5536 85.0563 49.6036 84.0963 50.5316C83.6983 50.9156 83.0303 51.5616 82.9783 51.8296C82.9183 52.1336 83.2843 52.9776 83.5263 53.5356C84.0503 54.7396 84.6423 56.1056 84.0903 57.4376C83.5283 58.7896 82.1303 59.3396 80.8943 59.8256C80.3723 60.0316 79.4983 60.3756 79.3363 60.6156C79.1703 60.8636 79.1863 61.8116 79.1943 62.3756C79.2103 63.3456 79.2263 64.4116 78.8283 65.3156L93.0783 93.2436L93.1223 93.3376C93.3105 93.792 93.3626 94.2914 93.2725 94.7749C93.1823 95.2585 92.9536 95.7055 92.6143 96.0616C92.2707 96.4136 91.8322 96.6582 91.3522 96.7658C90.8722 96.8734 90.3713 96.8392 89.9103 96.6676L75.0963 91.0096L66.7163 96.5996C65.9863 97.0836 65.0563 97.1576 64.2603 96.7916C63.8699 96.6086 63.5326 96.3291 63.2803 95.9795C63.028 95.6299 62.869 95.2217 62.8183 94.7936L59.9663 74.0096C59.3463 74.1956 58.6823 74.1836 58.0683 73.9756L55.3183 94.8196C55.2243 95.6596 54.6703 96.4276 53.8763 96.7956C53.547 96.9471 53.1887 97.0249 52.8263 97.0236ZM62.6143 72.0116L65.6123 93.8576L74.1103 88.1896C74.3027 88.0618 74.5228 87.9818 74.7524 87.956C74.9819 87.9303 75.2143 87.9596 75.4303 88.0416L90.0123 93.6116L76.4803 67.0896C75.7923 67.2236 75.0603 67.2116 74.3723 67.2016C73.8063 67.1916 72.8603 67.1776 72.6103 67.3436C72.3703 67.5036 72.0263 68.3776 71.8223 68.9016C71.3363 70.1356 70.7863 71.5356 69.4363 72.0956C68.1003 72.6476 66.7363 72.0556 65.5323 71.5336C64.9743 71.2916 64.1343 70.9256 63.8263 70.9856C63.5743 71.0316 63.0023 71.6096 62.6143 72.0116ZM43.2243 87.9456C43.5063 87.9456 43.7863 88.0276 44.0283 88.1896L52.5243 93.8556L55.4223 71.9076C55.0423 71.5176 54.5423 71.0296 54.3123 70.9836C53.9963 70.9176 53.1643 71.2896 52.6063 71.5316C51.4003 72.0536 50.0323 72.6456 48.7043 72.0936C47.3523 71.5336 46.8023 70.1336 46.3163 68.8996C46.1103 68.3776 45.7683 67.5036 45.5283 67.3416C45.2803 67.1776 44.3343 67.1936 43.7663 67.1996C43.0803 67.2096 42.3443 67.2216 41.6503 67.0856L28.1243 93.6116L42.7083 88.0416C42.8729 87.9782 43.0479 87.9457 43.2243 87.9456ZM59.0723 71.2536C59.1963 71.2416 62.2343 68.3456 63.2643 68.1416C64.4523 67.9056 65.6383 68.4196 66.6823 68.8736C67.1663 69.0836 68.0723 69.4776 68.3383 69.4136C68.5603 69.2796 68.9283 68.3416 69.1263 67.8396C69.5383 66.7896 70.0063 65.5996 70.9983 64.9356C71.9983 64.2656 73.2803 64.2896 74.4183 64.3056C74.9543 64.3116 75.9483 64.3296 76.1723 64.1656C76.3223 63.9536 76.3063 62.9596 76.2983 62.4256C76.2803 61.2916 76.2583 60.0076 76.9283 59.0076C77.5923 58.0156 78.7823 57.5476 79.8323 57.1356C80.3363 56.9376 81.2743 56.5676 81.4163 56.3256C81.4683 56.0756 81.0783 55.1756 80.8683 54.6916C80.4143 53.6456 79.9003 52.4616 80.1363 51.2716C80.3663 50.1116 81.2783 49.2316 82.0823 48.4536C82.4803 48.0696 83.2183 47.3556 83.2463 47.0736C83.2183 46.7996 82.4783 46.0856 82.0823 45.7016C81.2783 44.9236 80.3643 44.0436 80.1343 42.8816C79.9003 41.6916 80.4123 40.5056 80.8663 39.4616C81.0763 38.9776 81.4663 38.0796 81.4063 37.8076C81.2723 37.5856 80.3363 37.2176 79.8323 37.0196C78.7823 36.6076 77.5923 36.1396 76.9283 35.1456C76.2583 34.1456 76.2803 32.8616 76.2983 31.7276C76.3083 31.1936 76.3243 30.1996 76.1583 29.9736C75.9463 29.8236 74.9503 29.8416 74.4183 29.8476C73.2863 29.8656 72.0003 29.8876 70.9983 29.2176C70.0063 28.5516 69.5383 27.3636 69.1263 26.3136C68.9283 25.8096 68.5603 24.8736 68.3163 24.7296C68.0743 24.6836 67.1663 25.0676 66.6823 25.2776C65.6383 25.7316 64.4563 26.2436 63.2603 26.0096C62.1003 25.7796 61.2203 24.8676 60.4403 24.0616C60.0563 23.6656 59.3423 22.9256 59.0623 22.8976C58.7883 22.9256 58.0743 23.6656 57.6923 24.0616C56.9143 24.8656 56.0323 25.7796 54.8723 26.0096C53.6863 26.2416 52.4983 25.7316 51.4523 25.2776C50.9703 25.0696 50.0743 24.6716 49.7983 24.7376C49.5763 24.8716 49.2083 25.8096 49.0103 26.3116C48.5983 27.3616 48.1303 28.5496 47.1383 29.2136C46.1363 29.8836 44.8463 29.8636 43.7183 29.8436C43.1803 29.8376 42.1903 29.8176 41.9643 29.9836C41.8143 30.1956 41.8303 31.1896 41.8383 31.7236C41.8563 32.8576 41.8783 34.1416 41.2083 35.1416C40.5443 36.1336 39.3543 36.6016 38.3043 37.0136C37.8003 37.2156 36.8623 37.5836 36.7203 37.8256C36.6663 38.0756 37.0583 38.9756 37.2683 39.4596C37.7223 40.5056 38.2363 41.6896 38.0003 42.8796C37.7703 44.0396 36.8583 44.9216 36.0523 45.6996C35.6563 46.0836 34.9163 46.7976 34.8883 47.0776C34.9163 47.3516 35.6563 48.0656 36.0523 48.4496C36.8563 49.2276 37.7703 50.1076 38.0003 51.2676C38.2343 52.4576 37.7223 53.6436 37.2683 54.6876C37.0583 55.1716 36.6683 56.0696 36.7283 56.3416C36.8623 56.5636 37.7983 56.9316 38.3023 57.1296C39.3523 57.5416 40.5423 58.0096 41.2063 59.0036C41.8063 59.8996 41.8523 61.0236 41.8423 62.0636C41.7583 63.3216 43.0463 64.3076 43.0463 64.3076C43.2903 64.3116 43.5323 64.3076 43.7163 64.3036C44.8483 64.2876 46.1343 64.2636 47.1363 64.9356C48.1283 65.5996 48.5963 66.7896 49.0083 67.8396C49.2063 68.3436 49.5743 69.2796 49.8183 69.4216C50.0563 69.4656 50.9663 69.0836 51.4523 68.8736C52.4963 68.4196 53.6783 67.9076 54.8723 68.1416C55.8423 68.3336 58.9263 71.2396 59.0723 71.2536Z" fill="#313133"/>
<path d="M72.1077 39.0418L72.1077 39.0418C71.3337 38.235 70.0486 38.2195 69.2553 39.0073L55.2696 52.8958L49.8378 47.549C49.0752 46.7983 47.8568 46.7809 47.073 47.5096L46.0847 48.4283C45.2503 49.2041 45.2315 50.5192 46.0435 51.3185L53.867 59.0195C54.6476 59.7878 55.9009 59.7854 56.6785 59.0141L73.006 42.8187C73.781 42.05 73.7964 40.8018 73.0407 40.0141L72.1077 39.0418Z" fill="#37F826" stroke="#313133" stroke-width="2"/>
</g>
<defs>
<clipPath id="clip0_3536_873">
<rect width="72" height="80" fill="white" transform="translate(23.9922 19.9996)"/>
</clipPath>
</defs>
</svg>
