<svg width="120" height="120" viewBox="0 0 120 120" fill="none" xmlns="http://www.w3.org/2000/svg">
<path d="M108.532 23.284C128.28 49.7062 121.653 88.1775 95.3374 108.019C69.0222 127.847 31.6815 122.514 11.9329 96.0919C-7.8157 69.6697 -2.50393 32.1771 23.8113 12.3482C50.1265 -7.48064 88.7709 -3.13818 108.532 23.284Z" fill="#F4F6FA"/>
<path fill-rule="evenodd" clip-rule="evenodd" d="M52.611 95.921C51.801 95.921 51.01 95.68 50.325 95.215L49.479 94.641C48.576 94.029 47.966 93.1 47.76 92.029C47.703 91.732 47.679 91.433 47.687 91.138C47.685 91.138 47.684 91.138 47.683 91.138C46.873 91.138 46.082 90.896 45.397 90.432L44.551 89.858C43.648 89.246 43.038 88.317 42.832 87.246C42.817 87.168 42.804 87.091 42.794 87.014C41.856 87.099 40.93 86.86 40.14 86.324L39.295 85.75C38.392 85.138 37.781 84.209 37.575 83.138C37.437 82.419 37.492 81.692 37.729 81.019C37.174 80.919 36.64 80.703 36.16 80.377L35.314 79.803C34.089 78.972 33.459 77.59 33.528 76.21L22.95 69.036C22.33 69.468 21.626 69.783 20.864 69.963C19.226 70.348 17.553 70.052 16.147 69.132L12.75 66.896C10.002 65.097 9.18104 61.484 10.883 58.673L22.713 39.13C24.396 36.35 27.952 35.39 30.803 36.937L34.089 38.542C35.596 39.358 36.645 40.673 37.091 42.271C37.319 43.088 37.374 43.924 37.262 44.737C38.538 45.472 40.609 46.56 41.912 46.838C43.194 47.11 47.267 46.895 50.24 46.644C52.265 43.616 56.076 39.76 58.949 38.158C60.753 37.151 62.283 36.911 63.496 37.448C71.222 40.864 79.002 41.79 82.256 42.036C82.273 40.193 83.283 38.41 85.014 37.513L90.523 34.656C91.75 34.02 93.151 33.906 94.465 34.331C95.778 34.758 96.843 35.674 97.461 36.909L108.615 59.176C109.849 61.64 108.928 64.615 106.519 65.951L100.965 69.028C99.727 69.715 98.302 69.859 96.954 69.437C96.116 69.175 95.379 68.717 94.791 68.105L90.342 70.36C90.373 70.523 90.397 70.687 90.413 70.853C90.573 72.448 90.039 74.037 88.951 75.212C87.446 76.836 85.167 77.38 83.146 76.738C83.132 77.772 82.826 78.813 82.208 79.74L81.87 80.155C80.753 81.778 78.825 82.652 76.874 82.561C77.001 84.151 76.488 85.834 75.506 87.01C73.877 88.961 71.592 89.6 69.462 88.776C69.389 89.596 69.136 90.389 68.688 91.068C67.206 93.307 63.773 94.055 61.489 92.641L58.223 90.85L55.999 94.128C55.387 95.031 54.458 95.642 53.386 95.848C53.13 95.896 52.87 95.921 52.611 95.921ZM54.789 85.378C54.327 85.378 53.872 85.6 53.594 86.01L50.582 90.45C50.366 90.769 50.287 91.152 50.36 91.53C50.432 91.908 50.648 92.235 50.966 92.451L51.812 93.025C52.13 93.241 52.513 93.32 52.892 93.248C53.27 93.176 53.597 92.96 53.813 92.642L56.825 88.202C57.271 87.544 57.099 86.646 56.442 86.2L55.596 85.626C55.348 85.459 55.067 85.378 54.789 85.378ZM59.549 88.558L62.824 90.357C63.966 91.061 65.782 90.668 66.483 89.608C67.087 88.696 66.852 87.062 66.07 86.191L65.65 85.821L63.654 84.221L65.311 82.158L67.352 83.797C67.585 83.965 67.802 84.155 67.999 84.365L69.965 86.093C71.637 87.07 72.881 86.032 73.478 85.317C74.043 84.641 74.344 83.56 74.226 82.628C74.169 82.181 73.991 81.568 73.464 81.189L68.412 77.521L69.966 75.38L75.013 79.044C75.21 79.185 75.393 79.343 75.562 79.515C76.913 80.303 78.874 79.888 79.716 78.625L80.047 78.219C80.771 77.081 80.614 75.632 79.721 74.681L74.407 71.055L75.886 68.861L80.796 72.128C81.008 72.28 81.206 72.443 81.389 72.616L83.105 73.786C84.336 74.672 86.006 74.504 87.016 73.416C87.59 72.797 87.87 71.959 87.787 71.118C87.704 70.296 87.281 69.546 86.621 69.052L64.775 56.216C61.489 53.49 59.017 55.783 58.746 56.054C58.486 56.295 53.382 60.971 49.287 61.485C47.919 61.656 46.548 61.687 45.205 61.575C44.183 61.49 43.305 60.889 42.859 59.966C42.412 59.045 42.484 57.984 43.051 57.128C43.57 56.345 44.481 55.279 45.445 54.15C46.587 52.813 48.712 50.325 48.854 49.574C48.862 49.518 48.872 49.461 48.884 49.403C46.343 49.585 42.868 49.747 41.362 49.425C39.762 49.084 37.658 48.001 36.322 47.248L24.751 67.061L34.526 73.69L35.834 71.762C36.446 70.859 37.375 70.248 38.447 70.042C39.522 69.838 40.607 70.062 41.51 70.674L42.355 71.248C43.292 71.884 43.882 72.843 44.077 73.876C45.068 73.745 46.063 73.98 46.897 74.547L47.742 75.121C48.745 75.801 49.35 76.852 49.498 77.968C50.401 77.884 51.343 78.105 52.153 78.654L52.999 79.228C54.199 80.041 54.828 81.384 54.789 82.735C54.791 82.735 54.792 82.735 54.793 82.735C55.583 82.735 56.379 82.963 57.08 83.439L57.926 84.013C59.434 85.034 60.042 86.897 59.549 88.558ZM49.861 80.594C49.399 80.594 48.944 80.816 48.666 81.226L45.654 85.666C45.438 85.985 45.359 86.368 45.432 86.746C45.504 87.124 45.72 87.451 46.038 87.667L46.885 88.241C47.204 88.457 47.584 88.538 47.964 88.463C48.342 88.391 48.669 88.175 48.885 87.857L51.897 83.417C52.343 82.759 52.171 81.861 51.513 81.415L50.667 80.841C50.42 80.675 50.14 80.594 49.861 80.594ZM44.606 76.486C44.515 76.486 44.423 76.495 44.331 76.513C43.953 76.585 43.626 76.801 43.41 77.119L40.398 81.559C40.182 81.878 40.103 82.261 40.176 82.639C40.248 83.017 40.464 83.344 40.782 83.56L41.628 84.134C41.948 84.35 42.332 84.428 42.708 84.357C43.086 84.285 43.413 84.069 43.629 83.751L46.641 79.311C47.087 78.653 46.915 77.755 46.257 77.309L45.411 76.735C45.17 76.572 44.891 76.486 44.606 76.486ZM39.218 72.614C39.127 72.614 39.035 72.623 38.944 72.64C38.566 72.712 38.239 72.928 38.023 73.246L36.418 75.613C35.972 76.271 36.144 77.169 36.802 77.615L37.647 78.189C38.304 78.634 39.202 78.463 39.649 77.805L41.254 75.439C41.7 74.781 41.528 73.883 40.87 73.437L40.024 72.863C39.782 72.699 39.503 72.614 39.218 72.614ZM66.378 54.11L88.118 66.87C88.546 67.178 88.925 67.543 89.245 67.951L93.409 65.84L82.983 44.738C80.287 44.598 71.425 43.846 62.428 39.868C62.126 39.735 61.395 39.824 60.239 40.469C56.268 42.683 51.651 48.663 51.475 49.942C51.286 51.305 49.831 53.091 47.458 55.87C46.548 56.936 45.687 57.943 45.257 58.591C45.21 58.662 45.204 58.737 45.241 58.813C45.278 58.889 45.34 58.931 45.426 58.938C46.583 59.034 47.773 59.008 48.959 58.86C51.666 58.521 55.614 55.347 56.907 54.154C58.333 52.682 62.214 50.723 66.378 54.11ZM27.9 38.854C26.731 38.854 25.615 39.445 24.976 40.5L13.149 60.044C12.189 61.631 12.652 63.67 14.204 64.686L17.601 66.922C18.392 67.44 19.334 67.608 20.26 67.389C21.183 67.172 21.955 66.601 22.434 65.782L34.202 45.634C34.674 44.826 34.795 43.885 34.543 42.984C34.292 42.082 33.7 41.34 32.877 40.894L29.592 39.289C29.048 38.993 28.468 38.854 27.9 38.854ZM92.88 36.726C92.489 36.726 92.101 36.82 91.743 37.005L86.234 39.862C85.045 40.478 84.561 41.956 85.153 43.158L96.263 65.646C96.566 66.259 97.092 66.709 97.744 66.913C98.399 67.119 99.087 67.046 99.683 66.716L105.237 63.638C106.402 62.992 106.847 61.553 106.251 60.362L95.098 38.094C94.798 37.497 94.284 37.055 93.649 36.848C93.397 36.766 93.137 36.726 92.88 36.726Z" fill="#313133"/>
<path fill-rule="evenodd" clip-rule="evenodd" d="M27.8998 38.854C26.7308 38.854 25.6148 39.445 24.9758 40.5L13.1488 60.044C12.1888 61.631 12.6518 63.67 14.2038 64.686L17.6008 66.922C18.3918 67.44 19.3338 67.608 20.2598 67.389C21.1828 67.172 21.9548 66.601 22.4338 65.782L34.2018 45.634C34.6738 44.826 34.7948 43.885 34.5428 42.984C34.2918 42.082 33.6998 41.34 32.8768 40.894L29.5918 39.289C29.0478 38.993 28.4678 38.854 27.8998 38.854Z" fill="#37F826"/>
<path fill-rule="evenodd" clip-rule="evenodd" d="M92.88 36.726C92.489 36.726 92.101 36.82 91.743 37.005L86.234 39.862C85.045 40.478 84.561 41.956 85.153 43.158L96.263 65.646C96.566 66.259 97.092 66.709 97.744 66.913C98.399 67.119 99.087 67.046 99.683 66.716L105.237 63.638C106.402 62.992 106.847 61.553 106.251 60.362L95.098 38.094C94.798 37.497 94.284 37.055 93.649 36.848C93.397 36.766 93.137 36.726 92.88 36.726Z" fill="#37F826"/>
</svg>
