<svg width="120" height="120" viewBox="0 0 120 120" fill="none" xmlns="http://www.w3.org/2000/svg"><path d="M108.532 23.285c19.748 26.423 13.121 64.896-13.195 84.738-26.315 19.829-63.656 14.496-83.404-11.927C-7.816 69.672-2.504 32.178 23.81 12.349c26.316-19.83 64.96-15.487 84.721 10.936Z" fill="#F4F6FA"/><path d="m88 58.5-28.5-26L31 58v37h57.5L88 58.5Z" fill="#fff" stroke="#000" stroke-width="2"/><path d="m95.25 57.728-7.545-6.907-1.547-1.42L66.344 31.25l-5.067-4.64L59.526 25l-18.26 16.706-1.785 1.636-1.12 1.022-1.956 1.791L23.75 57.728 18 62.991h8.561l3.598-3.289 2.161-1.974 10.048-9.184 7.349-6.717 4.597-4.198 2.102-1.921 2.734-2.502.376-.338 2.153 1.965L73.752 45.87l1.222 1.116 1.82 1.654 9.937 9.088.316.286 2.777 2.536L92.498 63H101l-5.75-5.272Z" fill="#EEF0F4"/><path d="m101.601 60.783-10.03-9.107V35.058h2.023c.671 0 1.215-.546 1.215-1.22v-5.224c0-.674-.544-1.22-1.215-1.22H77.145c-.671 0-1.216.546-1.216 1.22v5.224c0 .674.544 1.22 1.216 1.22h2.023v5.36L60.342 23.314a1.218 1.218 0 0 0-1.633 0L17.4 60.784c-.255.23-.399.563-.399.896 0 .145.026.298.085.444.178.469.629.785 1.13.785h8.518c.297 0 .586-.12.807-.316l2.253-2.04v35.054h2.422V58.351l27.302-24.735 27.31 24.735v37.256h2.431V60.544l2.253 2.049c.221.196.51.307.816.307h8.458c.501 0 .952-.307 1.13-.776.06-.146.085-.3.085-.444 0-.333-.145-.666-.399-.897Zm-23.24-28.166v-2.782h14.025v2.782H78.362Zm10.787 2.441v14.416L81.6 42.62v-7.562h7.548Zm3.647 25.41L60.341 31.072a1.207 1.207 0 0 0-1.624-.008L26.265 60.468h-4.896l38.157-34.602L97.63 60.468h-4.837Z" fill="#313133"/><path d="M71.243 54.022a.456.456 0 0 0-.2-.118 6.72 6.72 0 0 0-1.79-.243 6.598 6.598 0 0 0-5.556 3.014h5.549l1.998-1.995a.481.481 0 0 0 0-.658Zm4.287 4.364a.455.455 0 0 0-.118-.201.474.474 0 0 0-.5-.097.411.411 0 0 0-.159.097l-3.676 3.671c-.146.139-.492.146-.909.007-.52-.18-.735-.187-1.248-.693l-.284-.277c-.507-.52-.895-1.108-1.075-1.628-.132-.408-.132-.74 0-.9 0-.007.006-.007.006-.014l1.679-1.676h-5.549a6.536 6.536 0 0 0-.957 4.724c.035.235.083.471.152.7l.05.159-2.644 2.64-14.406 14.38-.825.824-1.02 1.018v.007l-.256.25a3.031 3.031 0 0 0-.888 2.029c-.007.042-.007.09-.007.132 0 .769.284 1.496.805 2.057.007.02.027.035.041.055.021.014.035.035.056.042.561.52 1.29.804 2.06.804.818 0 1.588-.326 2.164-.894l9.114-9.11 7.11-7.1.276-.276.66-.651.755-.756 1.228-1.233.167.049c.59.173 1.207.256 1.824.256a6.583 6.583 0 0 0 4.682-1.932 6.553 6.553 0 0 0 1.699-2.924 6.694 6.694 0 0 0-.007-3.54Z" fill="#37F826"/><path d="M47.361 82.537c-.4-.402-1.02-.513-1.545-.312-.187.07-.36.173-.504.319a1.392 1.392 0 0 0-.317.505c-.2.52-.09 1.144.317 1.545.27.278.635.43 1.028.43a1.44 1.44 0 0 0 1.34-.898 1.458 1.458 0 0 0-.319-1.59Zm-.655 1.406a.534.534 0 0 1-.739-.007.52.52 0 0 1 0-.734c.2-.201.553-.194.739-.007a.57.57 0 0 1 .158.374c0 .139-.055.27-.158.374Zm.655-1.406c-.4-.402-1.02-.513-1.545-.312-.187.07-.36.173-.504.319a1.392 1.392 0 0 0-.317.505c-.2.52-.09 1.144.317 1.545.27.278.635.43 1.028.43a1.44 1.44 0 0 0 1.34-.898 1.458 1.458 0 0 0-.319-1.59Zm-.655 1.406a.534.534 0 0 1-.739-.007.52.52 0 0 1 0-.734c.2-.201.553-.194.739-.007a.57.57 0 0 1 .158.374c0 .139-.055.27-.158.374Zm16.884-8.072-1.394 1.4 9.274 9.312 1.394-1.4-9.274-9.312Zm3.015-1.358v-2.875a.993.993 0 0 0-.786-.97c-.02-.007-.042-.007-.062-.014-.325-.07-.614-.125-.883-.18l2.546-2.557a7.27 7.27 0 0 0 1.69.194 7.5 7.5 0 0 0 5.355-2.23 7.78 7.78 0 0 0 .841-1.012 7.515 7.515 0 0 0 1.373-4.365 7.71 7.71 0 0 0-.282-2.058 1.436 1.436 0 0 0-.366-.624c-.532-.54-1.511-.54-2.05-.007l-3.456 3.472c-.028-.007-.056-.014-.097-.028l-.228-.076c-.317-.104-.372-.118-.635-.374l-.275-.278c-.27-.27-.5-.578-.684-.914a2.06 2.06 0 0 1-.151-.34c-.007-.034-.021-.069-.028-.097l3.457-3.47c.269-.264.42-.638.42-1.026s-.158-.762-.434-1.04a1.402 1.402 0 0 0-.62-.36A7.493 7.493 0 0 0 69.206 53c-2.022 0-3.926.79-5.355 2.231a7.56 7.56 0 0 0-2.215 5.377c0 .568.063 1.136.187 1.69L57.042 67.1l-3.533-3.54-.483-2.447a.999.999 0 0 0-.42-.63l-6.549-4.379a.972.972 0 0 0-1.242.125l-2.18 2.19a.99.99 0 0 0-.124 1.246l4.36 6.576c.145.214.373.367.628.422l2.443.492c.407.409 1.352 1.358 3.519 3.54L43.18 81.02A4.028 4.028 0 0 0 42 83.881a4.026 4.026 0 0 0 1.083 2.757.21.21 0 0 0 .056.056c.013.014.027.028.04.048a4.011 4.011 0 0 0 5.597-.097l8.052-8.085c.048.263.11.547.173.88.007.02.007.048.013.069a.99.99 0 0 0 .966.79h2.864l8.446 8.473c.62.631 1.448.97 2.332.97a3.27 3.27 0 0 0 2.332-.97l1.09-1.094a3.276 3.276 0 0 0 .973-2.342c0-.887-.345-1.718-.973-2.342l-8.439-8.48Zm-15.483-8.972a.973.973 0 0 0-.504-.27l-2.332-.472-3.685-5.556 1.035-1.047 5.534 3.707.47 2.335a.954.954 0 0 0 .268.506l3.381 3.402-.772.804-3.395-3.41Zm-3.74 19.698a2.02 2.02 0 0 1-1.456.61c-.52-.002-1.02-.2-1.4-.555a2.038 2.038 0 0 1-.546-1.22v-.006c-.007-.062-.007-.125-.007-.187 0-.554.214-1.074.6-1.462l19.045-19.123c.255-.256.352-.63.255-.977l-.048-.16a5.616 5.616 0 0 1-.125-2.542c.021-.125.042-.243.083-.367a5.449 5.449 0 0 1 1.463-2.62 5.617 5.617 0 0 1 4.547-1.62l-1.642 1.655-1.339 1.344c-.352.382-.462.943-.303 1.608.02.097.048.194.083.298.158.457.42.935.78 1.392.151.208.324.416.517.61l.704-.693-.697.7.283.284c.565.554.931.7 1.421.86l.2.069c.787.263 1.463.187 1.918-.243l2.96-2.98c.021.195.035.396.035.59 0 .173-.007.353-.028.526a5.583 5.583 0 0 1-1.614 3.45 5.569 5.569 0 0 1-3.96 1.65 5.823 5.823 0 0 1-1.547-.215l-.158-.049a.983.983 0 0 0-.98.25L47.382 85.239Zm26.268 1.04-1.09 1.094a1.35 1.35 0 0 1-1.877 0l-8.708-8.737c-.262-.284-.29-.319-2.884-.319h-.303c-.042-.194-.076-.38-.11-.561a27.278 27.278 0 0 1-.173-.86l4.712-4.738c.235.048.532.11.856.18.18.034.366.07.559.11 0 2.883.02 2.904.29 3.174l8.728 8.772c.518.52.518 1.365 0 1.884ZM62.196 77.27l9.274 9.312 1.394-1.4-9.274-9.312-1.394 1.4Zm-16.38 4.954c-.187.07-.36.173-.504.319a1.392 1.392 0 0 0-.317.505c-.2.52-.09 1.144.317 1.545.27.278.635.43 1.028.43a1.44 1.44 0 0 0 1.34-.898 1.458 1.458 0 0 0-.319-1.59c-.4-.401-1.02-.512-1.545-.311Zm.89 1.718a.534.534 0 0 1-.739-.007.52.52 0 0 1 0-.734c.2-.201.553-.194.739-.007a.57.57 0 0 1 .158.374c0 .139-.055.27-.158.374Zm16.884-8.072-1.394 1.4 9.274 9.312 1.394-1.4-9.274-9.312Z" fill="#313133"/></svg>
