<svg width="120" height="120" viewBox="0 0 120 120" fill="none" xmlns="http://www.w3.org/2000/svg">
<path d="M108.532 23.2845C128.28 49.7077 121.653 88.1805 95.3374 108.022C69.0222 127.852 31.6815 122.518 11.9329 96.0952C-7.8157 69.672 -2.50393 32.178 23.8113 12.3483C50.1265 -7.48136 88.7709 -3.13873 108.532 23.2845Z" fill="#F4F6FA"/>
<g clip-path="url(#clip0_3602_35121)">
<path d="M78.453 88.2667C85.1595 88.2667 90.5962 82.83 90.5962 76.1235C90.5962 69.417 85.1595 63.9803 78.453 63.9803C71.7465 63.9803 66.3098 69.417 66.3098 76.1235C66.3098 82.83 71.7465 88.2667 78.453 88.2667Z" fill="#37F826"/>
<path d="M99.8463 93.1396C99.6007 93.6068 99.1095 93.8964 98.5727 93.842L93.3703 93.4428L92.6367 98.6076C92.6005 98.8637 92.4901 99.1036 92.3192 99.2977C92.1484 99.4919 91.9244 99.6318 91.675 99.7003C91.4256 99.7687 91.1616 99.7627 90.9155 99.683C90.6695 99.6033 90.4522 99.4533 90.2903 99.2516L82.5767 89.6436C82.5511 89.6116 82.5327 89.5756 82.5103 89.5412C81.3607 89.8612 80.1551 90.046 78.9055 90.046C77.8431 90.046 76.8143 89.9092 75.8223 89.6756L68.1351 99.2516C67.9728 99.4526 67.7555 99.6019 67.5096 99.6812C67.2638 99.7605 67.0001 99.7663 66.751 99.6979C66.5019 99.6296 66.2782 99.49 66.1072 99.2963C65.9363 99.1026 65.8256 98.8633 65.7887 98.6076L65.0543 93.4428L59.8519 93.842C59.3159 93.898 58.8239 93.606 58.5783 93.1396C58.4573 92.911 58.406 92.6519 58.4306 92.3945C58.4552 92.137 58.5546 91.8924 58.7167 91.6908L66.4303 82.0828C66.4703 82.0332 66.5167 81.9916 66.5615 81.9492C65.8193 80.2555 65.4363 78.4264 65.4367 76.5772C65.4367 69.15 71.4783 63.1084 78.9055 63.1084C86.3327 63.1084 92.3743 69.15 92.3743 76.5772C92.3743 78.374 92.0143 80.086 91.3727 81.6548C91.6095 81.7316 91.8279 81.8748 91.9951 82.0828L99.7079 91.6908C100.039 92.1036 100.093 92.6724 99.8463 93.1396ZM73.1687 88.7452C71.0947 87.7629 69.3045 86.2694 67.9663 84.4052L62.6999 90.9652L66.0895 90.7044C66.426 90.6755 66.7606 90.7773 67.024 90.9887C67.2874 91.2001 67.4593 91.5048 67.5039 91.8396L67.9831 95.206L73.1687 88.7452ZM78.9055 87.3948C84.8703 87.3948 89.7231 82.542 89.7231 76.5772C89.7231 70.6124 84.8703 65.7596 78.9055 65.7596C72.9407 65.7596 68.0879 70.6124 68.0879 76.5772C68.0879 82.542 72.9399 87.3948 78.9055 87.3948ZM95.7255 90.9652L90.1335 83.9996C88.862 85.9139 87.1247 87.4734 85.0847 88.5316L90.4423 95.206L90.9199 91.8396C90.9645 91.5048 91.1364 91.2001 91.3997 90.9887C91.6631 90.7773 91.9978 90.6755 92.3343 90.7044L95.7255 90.9652ZM84.1327 71.114L76.5207 78.726L74.2919 76.4972C74.0419 76.2557 73.707 76.1221 73.3594 76.1251C73.0119 76.1281 72.6794 76.2675 72.4336 76.5133C72.1878 76.7591 72.0484 77.0916 72.0454 77.4392C72.0424 77.7867 72.176 78.1216 72.4175 78.3716L75.5839 81.538C75.7069 81.6614 75.853 81.7592 76.0139 81.826C76.1748 81.8928 76.3473 81.9272 76.5215 81.9272C76.6957 81.9272 76.8682 81.8928 77.0291 81.826C77.19 81.7592 77.3361 81.6614 77.4591 81.538L86.0079 72.9892C86.2566 72.7405 86.3963 72.4033 86.3963 72.0516C86.3963 71.6999 86.2566 71.3627 86.0079 71.114C85.7592 70.8653 85.4219 70.7256 85.0703 70.7256C84.7186 70.7256 84.3813 70.8653 84.1327 71.114Z" fill="#313133"/>
<path d="M24.3357 81.3923C24.6143 81.528 24.9207 81.5986 25.2312 81.5988L64.3999 81.5993C62.0144 71.9991 66.3393 66.7786 68.7999 65.3683C65.9077 64.6132 63.1681 63.6748 62.0074 62.4475C60.3828 60.7297 62.6672 56.5263 65.0078 52.5833C65.7991 50.959 67.3819 46.382 67.3819 41.0686L67.3117 35.6456C67.3117 35.6456 67.477 23.9996 54.0037 23.9996H54.0022C40.5288 23.9996 40.6934 35.6456 40.6934 35.6456L40.6177 41.0693C40.5593 45.2569 41.5284 49.1022 42.9318 52.8598C45.1211 56.7704 47.2097 60.8641 45.7575 62.4482C42.9778 65.4791 32.4175 66.4963 30.2782 67.6201C29.1247 68.2249 27.8939 69.2862 26.8972 70.6379C26.2202 71.5713 25.6258 72.5608 25.1205 73.5953L25.0651 73.705C24.9957 73.8487 24.9278 73.9946 24.8615 74.1391C24.3086 75.3108 23.7033 77.4055 23.2658 79.0777C23.1874 79.3753 23.1789 79.6867 23.2409 79.988C23.3029 80.2894 23.4339 80.5726 23.6236 80.816C23.8134 81.0595 24.057 81.2566 24.3357 81.3923Z" fill="white"/>
<path fill-rule="evenodd" clip-rule="evenodd" d="M38.64 35.6393L38.64 35.6058C38.6401 35.5747 38.6406 35.5326 38.6419 35.4803C38.6445 35.3758 38.6502 35.2299 38.6627 35.0487C38.6877 34.6868 38.7399 34.1806 38.8486 33.5776C39.0648 32.3774 39.5109 30.7604 40.4385 29.1302C42.3485 25.7737 46.1726 22.5995 53.4603 22.5995H53.4619C60.7496 22.5995 64.5735 25.7737 66.4832 29.1302C67.4108 30.7605 67.8568 32.3775 68.0729 33.5777C68.1815 34.1807 68.2337 34.6869 68.2586 35.0488C68.2712 35.23 68.2769 35.3758 68.2795 35.4804C68.2808 35.5327 68.2813 35.5748 68.2814 35.6059L68.2814 35.6404L68.3521 41.0594V41.0685C68.3521 46.6233 66.6942 51.4103 65.8147 53.2006L65.7891 53.2526L65.7594 53.3023C64.5734 55.2836 63.4711 57.2199 62.8552 58.8458C62.5469 59.6595 62.3969 60.3043 62.3816 60.781C62.3667 61.2411 62.4772 61.4094 62.5457 61.4812C62.9364 61.8909 63.7424 62.3645 64.9848 62.8493C66.1849 63.3176 67.6301 63.7364 69.1421 64.1175L68.4579 66.8326C66.9024 66.4406 65.327 65.9885 63.9669 65.4577C62.649 64.9435 61.3549 64.2897 60.5194 63.4136C59.7689 62.6266 59.5529 61.6253 59.583 60.6909C59.6126 59.7732 59.8789 58.7986 60.2367 57.8539C60.9468 55.9796 62.161 53.8637 63.3258 51.9162C64.0516 50.4112 65.5503 46.0893 65.5521 41.0776L65.4812 35.6447L65.4814 35.6305V35.6296L65.4814 35.6185C65.4814 35.6055 65.4811 35.5822 65.4803 35.5492C65.4787 35.4832 65.4748 35.3788 65.4653 35.2416C65.4463 34.9666 65.4053 34.563 65.3173 34.0741C65.1402 33.0907 64.7786 31.7962 64.0496 30.5149C62.6462 28.0484 59.7604 25.3995 53.4619 25.3995H53.4603C47.1618 25.3995 44.2757 28.0484 42.8721 30.515C42.143 31.7963 41.7814 33.0908 41.6042 34.0742C41.5161 34.563 41.4751 34.9667 41.4561 35.2417C41.4466 35.3789 41.4427 35.4833 41.441 35.5493C41.4402 35.5823 41.44 35.6056 41.4399 35.6186L41.4399 35.6296L41.4402 35.6455L41.3636 41.089C41.3085 45.0042 42.2111 48.6367 43.5698 52.2663C44.6523 54.1868 45.7614 56.2446 46.4152 58.0497C46.7469 58.9656 46.9944 59.9029 47.0285 60.7771C47.0628 61.6561 46.8835 62.6317 46.1746 63.3985C45.2431 64.4057 43.7935 65.1308 42.3235 65.6865C40.812 66.2579 39.0813 66.7206 37.4211 67.112C36.3803 67.3573 35.3229 67.5842 34.3578 67.7913C33.8 67.9111 33.273 68.0242 32.7978 68.1304C32.1317 68.2793 31.5572 68.4165 31.0912 68.5474C30.604 68.6842 30.3187 68.7917 30.1843 68.8617L30.1834 68.8622C29.2333 69.3562 28.1503 70.2661 27.255 71.4687C26.6215 72.3355 26.0653 73.254 25.5926 74.2139L25.5885 74.2222L25.5341 74.3289C25.4718 74.4572 25.4095 74.59 25.346 74.7271L25.3429 74.7339L25.3397 74.7407C24.8471 75.7757 24.2661 77.7444 23.8201 79.4349L23.8195 79.4372C23.7963 79.5245 23.7938 79.6154 23.8121 79.7035C23.8304 79.7916 23.8694 79.8764 23.9279 79.9508C23.9864 80.0253 24.0633 80.0878 24.154 80.1315C24.2447 80.1753 24.3458 80.1987 24.4491 80.1988L64.5581 80.1995L64.5581 82.9995L24.4483 82.9988C23.9254 82.9985 23.4077 82.8805 22.9365 82.653C22.4651 82.4254 22.0508 82.0936 21.7266 81.6812C21.4024 81.2688 21.1773 80.7871 21.0705 80.2726C20.9638 79.7584 20.9784 79.2268 21.1131 78.7193C21.5487 77.0684 22.1866 74.8534 22.808 73.5445C22.8756 73.3984 22.9475 73.2452 23.0222 73.0918L23.0276 73.0807L23.0848 72.9683C23.6294 71.8638 24.2696 70.8076 24.9981 69.8114L25.0047 69.8024C26.1187 68.3043 27.5159 67.0935 28.8907 66.3785C29.2957 66.1675 29.8151 65.9974 30.3341 65.8517C30.8743 65.7 31.5076 65.5497 32.187 65.3978C32.7109 65.2807 33.2583 65.1633 33.8245 65.0419C34.764 64.8404 35.7555 64.6278 36.7787 64.3866C38.4008 64.0043 39.9926 63.5743 41.3335 63.0674C42.7157 62.5448 43.6484 62.0061 44.1185 61.4979M38.64 35.6393L38.5639 41.0496C38.5016 45.4736 39.5361 49.5008 40.987 53.3532L41.025 53.4541L41.078 53.548C42.1863 55.5112 43.2082 57.4174 43.7825 59.0032C44.0702 59.7975 44.2127 60.425 44.2306 60.8861C44.2484 61.341 44.1422 61.4721 44.1185 61.4979" fill="#313133"/>
</g>
<defs>
<clipPath id="clip0_3602_35121">
<rect width="80" height="80" fill="white" transform="translate(20 19.9996)"/>
</clipPath>
</defs>
</svg>
