<svg width="121" height="120" viewBox="0 0 121 120" fill="none" xmlns="http://www.w3.org/2000/svg">
<path d="M109.52 23.2836C129.269 49.7058 122.641 88.1771 96.3257 108.018C70.0105 127.847 32.6698 122.514 12.9212 96.0915C-6.82742 69.6693 -1.51565 32.1767 24.7996 12.3478C51.1148 -7.48107 89.7592 -3.13861 109.52 23.2836Z" fill="#F4F6FA"/>
<path d="M31.5726 80.7389L30.1628 80.7381C30.0597 80.738 29.958 80.7143 29.8654 80.6688C29.7729 80.6233 29.692 80.5572 29.629 80.4756C29.566 80.394 29.5225 80.299 29.5019 80.198C29.4813 80.0969 29.4841 79.9925 29.5102 79.8927L29.5108 79.8902C29.9841 78.0639 30.6013 75.9338 31.1253 74.8127L31.1286 74.8055L31.1319 74.7982C31.1993 74.65 31.2655 74.5062 31.3318 74.3674L31.3851 74.2608L31.3895 74.252L31.3938 74.2432C31.8961 73.2047 32.4868 72.2113 33.1595 71.2742C34.1107 69.9731 35.2596 68.9912 36.2645 68.4592L36.2655 68.4587C36.4055 68.3844 36.7057 68.2689 37.2221 68.1213C37.7157 67.9801 38.3245 67.832 39.0312 67.6712C39.5349 67.5565 40.0938 67.4344 40.6856 67.3051C41.7101 67.0812 42.8331 66.8358 43.9379 66.5706C45.7002 66.1476 47.5386 65.6472 49.1446 65.029C50.7071 64.4276 52.248 63.6428 53.2373 62.5536L53.2375 62.5533C53.9867 61.728 54.1744 60.6824 54.1384 59.7409C54.1025 58.802 53.8412 57.7933 53.4896 56.8047C52.7965 54.8562 51.6201 52.6337 50.4708 50.5578C49.028 46.6333 48.0682 42.7028 48.1268 38.4649L48.2077 32.6044L48.208 32.5835L48.2078 32.5672L48.2078 32.5671L48.2078 32.5666L48.2078 32.5543C48.2078 32.54 48.2081 32.5145 48.209 32.4786C48.2107 32.4067 48.2149 32.2934 48.225 32.1445C48.2453 31.8461 48.2889 31.4085 48.3827 30.8788C48.5713 29.813 48.9561 28.4108 49.7314 27.0234C50.5013 25.6457 51.6545 24.2841 53.4008 23.2596C55.147 22.2352 57.5688 21.4996 60.9495 21.4996H60.9511C64.3318 21.4996 66.7535 22.2352 68.4997 23.2596C70.2459 24.2841 71.3989 25.6457 72.1687 27.0233C72.944 28.4107 73.3287 29.8129 73.5172 30.8787C73.6109 31.4085 73.6545 31.846 73.6748 32.1444C73.6849 32.2933 73.6891 32.4066 73.6908 32.4785C73.6917 32.5144 73.6919 32.5399 73.692 32.5542L73.692 32.5667L73.692 32.567L73.692 32.5671V32.5676L73.6918 32.5827L73.692 32.6029L73.767 38.4529C73.7651 43.8764 72.1723 48.5524 71.4008 50.1807C70.1644 52.2857 68.8767 54.5706 68.1241 56.5935C67.7448 57.6132 67.4637 58.662 67.4326 59.6475C67.4009 60.648 67.6271 61.722 68.421 62.5696C69.3893 63.6035 70.9505 64.3615 72.5234 64.9507C74.1515 65.5606 76.0325 66.0739 77.8404 66.5149C78.9762 66.792 80.1269 67.0506 81.1758 67.2863C81.781 67.4223 82.3523 67.5507 82.8673 67.6707C83.5882 67.8385 84.2071 67.9914 84.7036 68.1337C85.2276 68.2838 85.5157 68.3949 85.6343 68.4578L85.6346 68.458C86.6424 68.9923 87.7974 69.9748 88.7464 71.2735C89.3762 72.1522 89.9333 73.0808 90.4122 74.05L90.4149 74.0554L90.4191 74.0648L90.4328 74.095L90.4454 74.1226L90.4592 74.1497C91.1064 75.4263 91.8442 77.8789 92.3823 79.8999L92.3824 79.9003C92.4935 80.317 92.1788 80.7389 91.7286 80.7389H31.5726Z" fill="#EEF0F4" stroke="#313133" stroke-width="3"/>
<mask id="path-3-outside-1_3602_35094" maskUnits="userSpaceOnUse" x="28" y="89" width="66" height="13" fill="black">
<rect fill="white" x="28" y="89" width="66" height="13"/>
<path d="M35.544 93.2864L34.5561 90.246C34.4498 89.918 33.9843 89.918 33.8796 90.246L32.8917 93.2864C32.8439 93.4339 32.7071 93.5328 32.5522 93.5328H29.356C29.2808 93.5329 29.2075 93.5569 29.1467 93.6012C29.0859 93.6455 29.0406 93.7079 29.0174 93.7795C28.9942 93.851 28.9942 93.9281 29.0174 93.9997C29.0406 94.0712 29.0859 94.1336 29.1467 94.1779L31.7323 96.0566C31.7931 96.101 31.8384 96.1634 31.8616 96.235C31.8848 96.3067 31.8849 96.3838 31.8617 96.4554L30.8738 99.4958C30.8506 99.5675 30.8506 99.6446 30.8739 99.7161C30.8972 99.7877 30.9426 99.8501 31.0035 99.8943C31.0644 99.9386 31.1377 99.9625 31.2129 99.9625C31.2882 99.9626 31.3616 99.9388 31.4225 99.8946L34.0082 98.016C34.0692 97.9718 34.1425 97.9481 34.2179 97.9481C34.2932 97.9481 34.3666 97.9718 34.4276 98.016L37.0132 99.8946C37.0741 99.9388 37.1475 99.9626 37.2228 99.9625C37.298 99.9625 37.3714 99.9386 37.4322 99.8943C37.4931 99.8501 37.5385 99.7877 37.5618 99.7161C37.5851 99.6446 37.5851 99.5675 37.5619 99.4958L36.574 96.4554C36.5506 96.3838 36.5505 96.3066 36.5737 96.2349C36.597 96.1633 36.6424 96.1008 36.7034 96.0566L39.289 94.1779C39.5691 93.9752 39.4249 93.5328 39.0797 93.5328H35.8835C35.7286 93.5336 35.5918 93.4331 35.544 93.2864Z"/>
<path d="M48.7325 93.2864L47.7446 90.246C47.6374 89.918 47.1727 89.918 47.0681 90.246L46.0801 93.2864C46.0324 93.4339 45.8956 93.5328 45.7407 93.5328H42.5445C42.4692 93.5329 42.396 93.5569 42.3352 93.6012C42.2744 93.6455 42.2291 93.7079 42.2059 93.7795C42.1827 93.851 42.1827 93.9281 42.2059 93.9997C42.2291 94.0712 42.2744 94.1336 42.3352 94.1779L44.9208 96.0566C44.9816 96.101 45.0268 96.1634 45.0501 96.235C45.0733 96.3067 45.0733 96.3838 45.0502 96.4554L44.0622 99.4958C44.0391 99.5675 44.0391 99.6446 44.0624 99.7161C44.0857 99.7877 44.131 99.8501 44.1919 99.8943C44.2528 99.9386 44.3262 99.9625 44.4014 99.9625C44.4767 99.9626 44.5501 99.9388 44.611 99.8946L47.1966 98.016C47.2576 97.9718 47.331 97.9481 47.4063 97.9481C47.4816 97.9481 47.555 97.9718 47.616 98.016L50.2016 99.8946C50.2626 99.9388 50.336 99.9626 50.4112 99.9625C50.4865 99.9625 50.5598 99.9386 50.6207 99.8943C50.6816 99.8501 50.7269 99.7877 50.7502 99.7161C50.7735 99.6446 50.7736 99.5675 50.7504 99.4958L49.7625 96.4554C49.7391 96.3838 49.739 96.3066 49.7622 96.2349C49.7855 96.1633 49.8308 96.1008 49.8918 96.0566L52.4775 94.1779C52.7576 93.9752 52.6134 93.5328 52.2682 93.5328H49.072C48.9171 93.5336 48.7803 93.4331 48.7325 93.2864Z"/>
<path d="M61.9202 93.2864L60.9322 90.246C60.8259 89.918 60.3604 89.918 60.2557 90.246L59.2678 93.2864C59.22 93.4339 59.0832 93.5328 58.9283 93.5328H55.7321C55.6569 93.5329 55.5836 93.5569 55.5228 93.6012C55.462 93.6455 55.4168 93.7079 55.3935 93.7795C55.3703 93.851 55.3703 93.9281 55.3935 93.9997C55.4168 94.0712 55.462 94.1336 55.5229 94.1779L58.1085 96.0566C58.1693 96.101 58.2145 96.1634 58.2377 96.235C58.261 96.3067 58.261 96.3838 58.2378 96.4554L57.2499 99.4958C57.2267 99.5675 57.2268 99.6446 57.2501 99.7161C57.2734 99.7877 57.3187 99.8501 57.3796 99.8943C57.4405 99.9386 57.5138 99.9625 57.5891 99.9625C57.6643 99.9626 57.7377 99.9388 57.7987 99.8946L60.3843 98.016C60.4453 97.9718 60.5187 97.9481 60.594 97.9481C60.6693 97.9481 60.7427 97.9718 60.8037 98.016L63.3893 99.8946C63.4503 99.9388 63.5236 99.9626 63.5989 99.9625C63.6742 99.9625 63.7475 99.9386 63.8084 99.8943C63.8693 99.8501 63.9146 99.7877 63.9379 99.7161C63.9612 99.6446 63.9612 99.5675 63.9381 99.4958L62.9501 96.4554C62.9267 96.3838 62.9266 96.3066 62.9499 96.2349C62.9731 96.1633 63.0185 96.1008 63.0795 96.0566L65.6651 94.1779C65.9453 93.9752 65.8011 93.5328 65.4558 93.5328H62.2596C62.1047 93.5336 61.9679 93.4331 61.9202 93.2864Z"/>
<path d="M75.0765 93.2864L74.0886 90.246C73.9814 89.918 73.5167 89.918 73.4129 90.246L72.425 93.2864C72.3772 93.4339 72.2404 93.5328 72.0855 93.5328H68.8893C68.8141 93.5329 68.7408 93.5569 68.68 93.6012C68.6192 93.6455 68.5739 93.7079 68.5507 93.7795C68.5275 93.851 68.5275 93.9281 68.5507 93.9997C68.5739 94.0712 68.6192 94.1336 68.68 94.1779L71.2656 96.0566C71.3264 96.101 71.3717 96.1634 71.3949 96.235C71.4181 96.3067 71.4182 96.3838 71.395 96.4554L70.4071 99.4958C70.3839 99.5675 70.3839 99.6446 70.4072 99.7161C70.4305 99.7877 70.4759 99.8501 70.5367 99.8943C70.5976 99.9386 70.671 99.9625 70.7462 99.9625C70.8215 99.9626 70.8949 99.9388 70.9558 99.8946L73.5414 98.016C73.6024 97.9718 73.6758 97.9481 73.7511 97.9481C73.8264 97.9481 73.8998 97.9718 73.9608 98.016L76.5465 99.8946C76.6074 99.9388 76.6808 99.9626 76.756 99.9625C76.8313 99.9625 76.9046 99.9386 76.9655 99.8943C77.0264 99.8501 77.0718 99.7877 77.0951 99.7161C77.1183 99.6446 77.1184 99.5675 77.0952 99.4958L76.1073 96.4554C76.0839 96.3838 76.0838 96.3066 76.107 96.2349C76.1303 96.1633 76.1757 96.1008 76.2366 96.0566L78.8223 94.1779C79.1016 93.9752 78.9574 93.5328 78.6122 93.5328H75.416C75.2611 93.5336 75.1243 93.4331 75.0765 93.2864Z"/>
<path d="M88.3387 93.3306L87.3507 90.2902C87.2436 89.9623 86.7789 89.9623 86.6742 90.2902L85.6863 93.3306C85.6385 93.4781 85.5017 93.577 85.3468 93.577H82.1506C82.0754 93.5772 82.0021 93.6011 81.9413 93.6454C81.8805 93.6897 81.8352 93.7521 81.812 93.8237C81.7888 93.8953 81.7888 93.9724 81.812 94.0439C81.8353 94.1155 81.8805 94.1779 81.9413 94.2222L84.527 96.1008C84.5878 96.1452 84.633 96.2077 84.6562 96.2793C84.6794 96.3509 84.6795 96.428 84.6563 96.4996L83.6684 99.5401C83.6452 99.6117 83.6453 99.6888 83.6686 99.7604C83.6918 99.832 83.7372 99.8943 83.7981 99.9386C83.859 99.9828 83.9323 100.007 84.0076 100.007C84.0828 100.007 84.1562 99.9831 84.2172 99.9389L86.8028 98.0602C86.8638 98.0161 86.9372 97.9923 87.0125 97.9923C87.0878 97.9923 87.1612 98.0161 87.2222 98.0602L89.8078 99.9389C89.8687 99.9831 89.9421 100.007 90.0174 100.007C90.0927 100.007 90.166 99.9828 90.2269 99.9386C90.2878 99.8943 90.3331 99.832 90.3564 99.7604C90.3797 99.6888 90.3797 99.6117 90.3566 99.5401L89.3686 96.4996C89.3452 96.428 89.3451 96.3508 89.3684 96.2792C89.3916 96.2075 89.437 96.1451 89.498 96.1008L92.0836 94.2222C92.3638 94.0195 92.2196 93.577 91.8743 93.577H88.6781C88.5232 93.5778 88.3864 93.4773 88.3387 93.3306Z"/>
</mask>
<path d="M35.544 93.2864L34.5561 90.246C34.4498 89.918 33.9843 89.918 33.8796 90.246L32.8917 93.2864C32.8439 93.4339 32.7071 93.5328 32.5522 93.5328H29.356C29.2808 93.5329 29.2075 93.5569 29.1467 93.6012C29.0859 93.6455 29.0406 93.7079 29.0174 93.7795C28.9942 93.851 28.9942 93.9281 29.0174 93.9997C29.0406 94.0712 29.0859 94.1336 29.1467 94.1779L31.7323 96.0566C31.7931 96.101 31.8384 96.1634 31.8616 96.235C31.8848 96.3067 31.8849 96.3838 31.8617 96.4554L30.8738 99.4958C30.8506 99.5675 30.8506 99.6446 30.8739 99.7161C30.8972 99.7877 30.9426 99.8501 31.0035 99.8943C31.0644 99.9386 31.1377 99.9625 31.2129 99.9625C31.2882 99.9626 31.3616 99.9388 31.4225 99.8946L34.0082 98.016C34.0692 97.9718 34.1425 97.9481 34.2179 97.9481C34.2932 97.9481 34.3666 97.9718 34.4276 98.016L37.0132 99.8946C37.0741 99.9388 37.1475 99.9626 37.2228 99.9625C37.298 99.9625 37.3714 99.9386 37.4322 99.8943C37.4931 99.8501 37.5385 99.7877 37.5618 99.7161C37.5851 99.6446 37.5851 99.5675 37.5619 99.4958L36.574 96.4554C36.5506 96.3838 36.5505 96.3066 36.5737 96.2349C36.597 96.1633 36.6424 96.1008 36.7034 96.0566L39.289 94.1779C39.5691 93.9752 39.4249 93.5328 39.0797 93.5328H35.8835C35.7286 93.5336 35.5918 93.4331 35.544 93.2864Z" fill="#37F826"/>
<path d="M48.7325 93.2864L47.7446 90.246C47.6374 89.918 47.1727 89.918 47.0681 90.246L46.0801 93.2864C46.0324 93.4339 45.8956 93.5328 45.7407 93.5328H42.5445C42.4692 93.5329 42.396 93.5569 42.3352 93.6012C42.2744 93.6455 42.2291 93.7079 42.2059 93.7795C42.1827 93.851 42.1827 93.9281 42.2059 93.9997C42.2291 94.0712 42.2744 94.1336 42.3352 94.1779L44.9208 96.0566C44.9816 96.101 45.0268 96.1634 45.0501 96.235C45.0733 96.3067 45.0733 96.3838 45.0502 96.4554L44.0622 99.4958C44.0391 99.5675 44.0391 99.6446 44.0624 99.7161C44.0857 99.7877 44.131 99.8501 44.1919 99.8943C44.2528 99.9386 44.3262 99.9625 44.4014 99.9625C44.4767 99.9626 44.5501 99.9388 44.611 99.8946L47.1966 98.016C47.2576 97.9718 47.331 97.9481 47.4063 97.9481C47.4816 97.9481 47.555 97.9718 47.616 98.016L50.2016 99.8946C50.2626 99.9388 50.336 99.9626 50.4112 99.9625C50.4865 99.9625 50.5598 99.9386 50.6207 99.8943C50.6816 99.8501 50.7269 99.7877 50.7502 99.7161C50.7735 99.6446 50.7736 99.5675 50.7504 99.4958L49.7625 96.4554C49.7391 96.3838 49.739 96.3066 49.7622 96.2349C49.7855 96.1633 49.8308 96.1008 49.8918 96.0566L52.4775 94.1779C52.7576 93.9752 52.6134 93.5328 52.2682 93.5328H49.072C48.9171 93.5336 48.7803 93.4331 48.7325 93.2864Z" fill="#37F826"/>
<path d="M61.9202 93.2864L60.9322 90.246C60.8259 89.918 60.3604 89.918 60.2557 90.246L59.2678 93.2864C59.22 93.4339 59.0832 93.5328 58.9283 93.5328H55.7321C55.6569 93.5329 55.5836 93.5569 55.5228 93.6012C55.462 93.6455 55.4168 93.7079 55.3935 93.7795C55.3703 93.851 55.3703 93.9281 55.3935 93.9997C55.4168 94.0712 55.462 94.1336 55.5229 94.1779L58.1085 96.0566C58.1693 96.101 58.2145 96.1634 58.2377 96.235C58.261 96.3067 58.261 96.3838 58.2378 96.4554L57.2499 99.4958C57.2267 99.5675 57.2268 99.6446 57.2501 99.7161C57.2734 99.7877 57.3187 99.8501 57.3796 99.8943C57.4405 99.9386 57.5138 99.9625 57.5891 99.9625C57.6643 99.9626 57.7377 99.9388 57.7987 99.8946L60.3843 98.016C60.4453 97.9718 60.5187 97.9481 60.594 97.9481C60.6693 97.9481 60.7427 97.9718 60.8037 98.016L63.3893 99.8946C63.4503 99.9388 63.5236 99.9626 63.5989 99.9625C63.6742 99.9625 63.7475 99.9386 63.8084 99.8943C63.8693 99.8501 63.9146 99.7877 63.9379 99.7161C63.9612 99.6446 63.9612 99.5675 63.9381 99.4958L62.9501 96.4554C62.9267 96.3838 62.9266 96.3066 62.9499 96.2349C62.9731 96.1633 63.0185 96.1008 63.0795 96.0566L65.6651 94.1779C65.9453 93.9752 65.8011 93.5328 65.4558 93.5328H62.2596C62.1047 93.5336 61.9679 93.4331 61.9202 93.2864Z" fill="#37F826"/>
<path d="M75.0765 93.2864L74.0886 90.246C73.9814 89.918 73.5167 89.918 73.4129 90.246L72.425 93.2864C72.3772 93.4339 72.2404 93.5328 72.0855 93.5328H68.8893C68.8141 93.5329 68.7408 93.5569 68.68 93.6012C68.6192 93.6455 68.5739 93.7079 68.5507 93.7795C68.5275 93.851 68.5275 93.9281 68.5507 93.9997C68.5739 94.0712 68.6192 94.1336 68.68 94.1779L71.2656 96.0566C71.3264 96.101 71.3717 96.1634 71.3949 96.235C71.4181 96.3067 71.4182 96.3838 71.395 96.4554L70.4071 99.4958C70.3839 99.5675 70.3839 99.6446 70.4072 99.7161C70.4305 99.7877 70.4759 99.8501 70.5367 99.8943C70.5976 99.9386 70.671 99.9625 70.7462 99.9625C70.8215 99.9626 70.8949 99.9388 70.9558 99.8946L73.5414 98.016C73.6024 97.9718 73.6758 97.9481 73.7511 97.9481C73.8264 97.9481 73.8998 97.9718 73.9608 98.016L76.5465 99.8946C76.6074 99.9388 76.6808 99.9626 76.756 99.9625C76.8313 99.9625 76.9046 99.9386 76.9655 99.8943C77.0264 99.8501 77.0718 99.7877 77.0951 99.7161C77.1183 99.6446 77.1184 99.5675 77.0952 99.4958L76.1073 96.4554C76.0839 96.3838 76.0838 96.3066 76.107 96.2349C76.1303 96.1633 76.1757 96.1008 76.2366 96.0566L78.8223 94.1779C79.1016 93.9752 78.9574 93.5328 78.6122 93.5328H75.416C75.2611 93.5336 75.1243 93.4331 75.0765 93.2864Z" fill="#37F826"/>
<path d="M88.3387 93.3306L87.3507 90.2902C87.2436 89.9623 86.7789 89.9623 86.6742 90.2902L85.6863 93.3306C85.6385 93.4781 85.5017 93.577 85.3468 93.577H82.1506C82.0754 93.5772 82.0021 93.6011 81.9413 93.6454C81.8805 93.6897 81.8352 93.7521 81.812 93.8237C81.7888 93.8953 81.7888 93.9724 81.812 94.0439C81.8353 94.1155 81.8805 94.1779 81.9413 94.2222L84.527 96.1008C84.5878 96.1452 84.633 96.2077 84.6562 96.2793C84.6794 96.3509 84.6795 96.428 84.6563 96.4996L83.6684 99.5401C83.6452 99.6117 83.6453 99.6888 83.6686 99.7604C83.6918 99.832 83.7372 99.8943 83.7981 99.9386C83.859 99.9828 83.9323 100.007 84.0076 100.007C84.0828 100.007 84.1562 99.9831 84.2172 99.9389L86.8028 98.0602C86.8638 98.0161 86.9372 97.9923 87.0125 97.9923C87.0878 97.9923 87.1612 98.0161 87.2222 98.0602L89.8078 99.9389C89.8687 99.9831 89.9421 100.007 90.0174 100.007C90.0927 100.007 90.166 99.9828 90.2269 99.9386C90.2878 99.8943 90.3331 99.832 90.3564 99.7604C90.3797 99.6888 90.3797 99.6117 90.3566 99.5401L89.3686 96.4996C89.3452 96.428 89.3451 96.3508 89.3684 96.2792C89.3916 96.2075 89.437 96.1451 89.498 96.1008L92.0836 94.2222C92.3638 94.0195 92.2196 93.577 91.8743 93.577H88.6781C88.5232 93.5778 88.3864 93.4773 88.3387 93.3306Z" fill="#37F826"/>
<path d="M35.544 93.2864L34.5561 90.246C34.4498 89.918 33.9843 89.918 33.8796 90.246L32.8917 93.2864C32.8439 93.4339 32.7071 93.5328 32.5522 93.5328H29.356C29.2808 93.5329 29.2075 93.5569 29.1467 93.6012C29.0859 93.6455 29.0406 93.7079 29.0174 93.7795C28.9942 93.851 28.9942 93.9281 29.0174 93.9997C29.0406 94.0712 29.0859 94.1336 29.1467 94.1779L31.7323 96.0566C31.7931 96.101 31.8384 96.1634 31.8616 96.235C31.8848 96.3067 31.8849 96.3838 31.8617 96.4554L30.8738 99.4958C30.8506 99.5675 30.8506 99.6446 30.8739 99.7161C30.8972 99.7877 30.9426 99.8501 31.0035 99.8943C31.0644 99.9386 31.1377 99.9625 31.2129 99.9625C31.2882 99.9626 31.3616 99.9388 31.4225 99.8946L34.0082 98.016C34.0692 97.9718 34.1425 97.9481 34.2179 97.9481C34.2932 97.9481 34.3666 97.9718 34.4276 98.016L37.0132 99.8946C37.0741 99.9388 37.1475 99.9626 37.2228 99.9625C37.298 99.9625 37.3714 99.9386 37.4322 99.8943C37.4931 99.8501 37.5385 99.7877 37.5618 99.7161C37.5851 99.6446 37.5851 99.5675 37.5619 99.4958L36.574 96.4554C36.5506 96.3838 36.5505 96.3066 36.5737 96.2349C36.597 96.1633 36.6424 96.1008 36.7034 96.0566L39.289 94.1779C39.5691 93.9752 39.4249 93.5328 39.0797 93.5328H35.8835C35.7286 93.5336 35.5918 93.4331 35.544 93.2864Z" stroke="#313133" stroke-width="2" mask="url(#path-3-outside-1_3602_35094)"/>
<path d="M48.7325 93.2864L47.7446 90.246C47.6374 89.918 47.1727 89.918 47.0681 90.246L46.0801 93.2864C46.0324 93.4339 45.8956 93.5328 45.7407 93.5328H42.5445C42.4692 93.5329 42.396 93.5569 42.3352 93.6012C42.2744 93.6455 42.2291 93.7079 42.2059 93.7795C42.1827 93.851 42.1827 93.9281 42.2059 93.9997C42.2291 94.0712 42.2744 94.1336 42.3352 94.1779L44.9208 96.0566C44.9816 96.101 45.0268 96.1634 45.0501 96.235C45.0733 96.3067 45.0733 96.3838 45.0502 96.4554L44.0622 99.4958C44.0391 99.5675 44.0391 99.6446 44.0624 99.7161C44.0857 99.7877 44.131 99.8501 44.1919 99.8943C44.2528 99.9386 44.3262 99.9625 44.4014 99.9625C44.4767 99.9626 44.5501 99.9388 44.611 99.8946L47.1966 98.016C47.2576 97.9718 47.331 97.9481 47.4063 97.9481C47.4816 97.9481 47.555 97.9718 47.616 98.016L50.2016 99.8946C50.2626 99.9388 50.336 99.9626 50.4112 99.9625C50.4865 99.9625 50.5598 99.9386 50.6207 99.8943C50.6816 99.8501 50.7269 99.7877 50.7502 99.7161C50.7735 99.6446 50.7736 99.5675 50.7504 99.4958L49.7625 96.4554C49.7391 96.3838 49.739 96.3066 49.7622 96.2349C49.7855 96.1633 49.8308 96.1008 49.8918 96.0566L52.4775 94.1779C52.7576 93.9752 52.6134 93.5328 52.2682 93.5328H49.072C48.9171 93.5336 48.7803 93.4331 48.7325 93.2864Z" stroke="#313133" stroke-width="2" mask="url(#path-3-outside-1_3602_35094)"/>
<path d="M61.9202 93.2864L60.9322 90.246C60.8259 89.918 60.3604 89.918 60.2557 90.246L59.2678 93.2864C59.22 93.4339 59.0832 93.5328 58.9283 93.5328H55.7321C55.6569 93.5329 55.5836 93.5569 55.5228 93.6012C55.462 93.6455 55.4168 93.7079 55.3935 93.7795C55.3703 93.851 55.3703 93.9281 55.3935 93.9997C55.4168 94.0712 55.462 94.1336 55.5229 94.1779L58.1085 96.0566C58.1693 96.101 58.2145 96.1634 58.2377 96.235C58.261 96.3067 58.261 96.3838 58.2378 96.4554L57.2499 99.4958C57.2267 99.5675 57.2268 99.6446 57.2501 99.7161C57.2734 99.7877 57.3187 99.8501 57.3796 99.8943C57.4405 99.9386 57.5138 99.9625 57.5891 99.9625C57.6643 99.9626 57.7377 99.9388 57.7987 99.8946L60.3843 98.016C60.4453 97.9718 60.5187 97.9481 60.594 97.9481C60.6693 97.9481 60.7427 97.9718 60.8037 98.016L63.3893 99.8946C63.4503 99.9388 63.5236 99.9626 63.5989 99.9625C63.6742 99.9625 63.7475 99.9386 63.8084 99.8943C63.8693 99.8501 63.9146 99.7877 63.9379 99.7161C63.9612 99.6446 63.9612 99.5675 63.9381 99.4958L62.9501 96.4554C62.9267 96.3838 62.9266 96.3066 62.9499 96.2349C62.9731 96.1633 63.0185 96.1008 63.0795 96.0566L65.6651 94.1779C65.9453 93.9752 65.8011 93.5328 65.4558 93.5328H62.2596C62.1047 93.5336 61.9679 93.4331 61.9202 93.2864Z" stroke="#313133" stroke-width="2" mask="url(#path-3-outside-1_3602_35094)"/>
<path d="M75.0765 93.2864L74.0886 90.246C73.9814 89.918 73.5167 89.918 73.4129 90.246L72.425 93.2864C72.3772 93.4339 72.2404 93.5328 72.0855 93.5328H68.8893C68.8141 93.5329 68.7408 93.5569 68.68 93.6012C68.6192 93.6455 68.5739 93.7079 68.5507 93.7795C68.5275 93.851 68.5275 93.9281 68.5507 93.9997C68.5739 94.0712 68.6192 94.1336 68.68 94.1779L71.2656 96.0566C71.3264 96.101 71.3717 96.1634 71.3949 96.235C71.4181 96.3067 71.4182 96.3838 71.395 96.4554L70.4071 99.4958C70.3839 99.5675 70.3839 99.6446 70.4072 99.7161C70.4305 99.7877 70.4759 99.8501 70.5367 99.8943C70.5976 99.9386 70.671 99.9625 70.7462 99.9625C70.8215 99.9626 70.8949 99.9388 70.9558 99.8946L73.5414 98.016C73.6024 97.9718 73.6758 97.9481 73.7511 97.9481C73.8264 97.9481 73.8998 97.9718 73.9608 98.016L76.5465 99.8946C76.6074 99.9388 76.6808 99.9626 76.756 99.9625C76.8313 99.9625 76.9046 99.9386 76.9655 99.8943C77.0264 99.8501 77.0718 99.7877 77.0951 99.7161C77.1183 99.6446 77.1184 99.5675 77.0952 99.4958L76.1073 96.4554C76.0839 96.3838 76.0838 96.3066 76.107 96.2349C76.1303 96.1633 76.1757 96.1008 76.2366 96.0566L78.8223 94.1779C79.1016 93.9752 78.9574 93.5328 78.6122 93.5328H75.416C75.2611 93.5336 75.1243 93.4331 75.0765 93.2864Z" stroke="#313133" stroke-width="2" mask="url(#path-3-outside-1_3602_35094)"/>
<path d="M88.3387 93.3306L87.3507 90.2902C87.2436 89.9623 86.7789 89.9623 86.6742 90.2902L85.6863 93.3306C85.6385 93.4781 85.5017 93.577 85.3468 93.577H82.1506C82.0754 93.5772 82.0021 93.6011 81.9413 93.6454C81.8805 93.6897 81.8352 93.7521 81.812 93.8237C81.7888 93.8953 81.7888 93.9724 81.812 94.0439C81.8353 94.1155 81.8805 94.1779 81.9413 94.2222L84.527 96.1008C84.5878 96.1452 84.633 96.2077 84.6562 96.2793C84.6794 96.3509 84.6795 96.428 84.6563 96.4996L83.6684 99.5401C83.6452 99.6117 83.6453 99.6888 83.6686 99.7604C83.6918 99.832 83.7372 99.8943 83.7981 99.9386C83.859 99.9828 83.9323 100.007 84.0076 100.007C84.0828 100.007 84.1562 99.9831 84.2172 99.9389L86.8028 98.0602C86.8638 98.0161 86.9372 97.9923 87.0125 97.9923C87.0878 97.9923 87.1612 98.0161 87.2222 98.0602L89.8078 99.9389C89.8687 99.9831 89.9421 100.007 90.0174 100.007C90.0927 100.007 90.166 99.9828 90.2269 99.9386C90.2878 99.8943 90.3331 99.832 90.3564 99.7604C90.3797 99.6888 90.3797 99.6117 90.3566 99.5401L89.3686 96.4996C89.3452 96.428 89.3451 96.3508 89.3684 96.2792C89.3916 96.2075 89.437 96.1451 89.498 96.1008L92.0836 94.2222C92.3638 94.0195 92.2196 93.577 91.8743 93.577H88.6781C88.5232 93.5778 88.3864 93.4773 88.3387 93.3306Z" stroke="#313133" stroke-width="2" mask="url(#path-3-outside-1_3602_35094)"/>
</svg>
