<svg
  viewBox="0 0 237 32"
  width="237"
  height="32"
  fill="none"
  xmlns="http://www.w3.org/2000/svg"
>
  <path
    d="M8.46845 29.7649c7.61985 4.399 17.36305 1.7888 21.76205-5.831 4.3992-7.6199 1.7889-17.36313-5.831-21.76218C16.7796-2.22782 7.03639.382968 2.63734 8.00283-1.76171 15.6226.848585 25.3659 8.46845 29.7649Z"
    fill="#37F826"
  />
  <path
    d="m28.4713 8.60415-1.8272-1.05516c-.1721-.09952-.3711-.14422-.5686-.12643-.7967.07162-2.9146.12787-2.4729-1.35708.0423-.14181-.0106-.29467-.1327-.37784-.2606-.17786-.5297-.34707-.807-.50763-3.9954-2.3065-8.7376-2.14834-12.4656.00239-1.09219.63011-.49753 1.36236 0 1.29362 3.3497-.46341 7.0325.36918 6.5032 3.00448-.077.38217-.2854.8059-.5379 1.2571L6.78373 25.398c-.11105.1736-.08509.4019.06345.5448.78886.757 1.68107 1.4325 2.67088 2.0036.46149.2662.93214.5027 1.40944.71.2067.0898.4476.0033.5529-.1957l9.1956-17.3986c.0774-.1467.1746-.2827.2942-.3976 1.0442-1.0018 2.0244.8105 2.354 1.5229.0832.1793.2198.3284.3914.4274l1.8296 1.0566c.1841.1062.4192.0433.5254-.1408l2.5415-4.40198c.1063-.18412.0433-.41919-.1408-.52542v.00095Z"
    fill="#261230"
  />
  <path
    d="M184.389 11.1237c.323 0 .656.0202 1 .0606.364.0404.668.1213.91.2426v4.2449c-.324-.1011-.647-.1718-.97-.2122-.304-.0405-.668-.0607-1.093-.0607-1.414 0-2.517.3842-3.304 1.1522-.768.7479-1.153 1.9608-1.153 3.6386v6.3674h-4.638V11.3662h4.638v4.4875c.162-.9096.415-1.7182.758-2.4256.345-.7278.829-1.2937 1.456-1.698.627-.4043 1.424-.6064 2.396-.6064ZM165.786 11.063c1.779 0 3.233.3841 4.366 1.1522 1.131.7681 1.96 1.8496 2.486 3.2444.525 1.3947.747 3.022.666 4.8816h-10.612c.142 1.0512.476 1.7889 1.001 2.2135.526.4043 1.314.6064 2.365.6064.829 0 1.456-.1414 1.88-.4245.425-.283.798-.8085 1.121-1.5767l3.943 1.3645c-1.031 2.8905-3.386 4.3358-7.065 4.3358-1.597 0-2.992-.3234-4.184-.9702-1.192-.6469-2.124-1.5565-2.79-2.7289-.667-1.1724-1-2.5267-1-4.063 0-1.6172.323-3.022.97-4.2147.666-1.2128 1.587-2.1528 2.759-2.8198 1.172-.6671 2.537-1.0006 4.094-1.0006Zm.121 3.5778c-1.031 0-1.799.2326-2.305.6974-.484.465-.788 1.2028-.91 2.2135h6.095c-.02-1.0713-.273-1.8192-.758-2.2438-.464-.4446-1.172-.6671-2.122-.6671ZM151.466 15.1261V5.3324h4.639v21.2247h-4.639v-3.8508c-.445 1.3544-1.163 2.3853-2.153 3.0928-.97.7076-2.142 1.0613-3.517 1.0613-1.981 0-3.467-.7177-4.457-2.1528-.97-1.4554-1.455-3.3859-1.455-5.7914 0-2.3448.515-4.2348 1.546-5.67 1.051-1.4554 2.618-2.1831 4.7-2.1831 1.293 0 2.395.3537 3.304 1.0612.91.6873 1.587 1.6879 2.032 3.0018Zm-3.456 7.6106c1.293 0 2.202-.3033 2.729-.9097.546-.6064.818-1.5766.818-2.9108 0-1.2937-.272-2.2337-.818-2.8198-.527-.5862-1.436-.8794-2.729-.8794-1.274 0-2.174.2932-2.698.8794-.527.5861-.789 1.5261-.789 2.8198 0 1.3342.262 2.3044.789 2.9108.524.6064 1.424.9097 2.698.9097ZM137.983 26.5571h-4.639V5.3324h4.639v21.2247ZM128.349 9.45604c-1.941 0-2.911-.88941-2.911-2.66825 0-.849.253-1.49584.758-1.94054.506-.44472 1.223-.66707 2.153-.66707.93 0 1.648.22235 2.153.66707.505.4447.758 1.09154.758 1.94054 0 .8692-.253 1.53627-.758 2.00119-.505.4447-1.223.66706-2.153.66706Zm2.335 17.10106h-4.639V11.3663h4.639v15.1908ZM118.749 18.7647v-7.3984h4.639v15.1908h-4.639v-3.4566c-.404 1.2129-1.051 2.1427-1.94 2.7895-.89.6469-1.991.9704-3.305.9704-1.779 0-3.103-.5257-3.973-1.5768-.849-1.0713-1.273-2.7086-1.273-4.912v-9.0053h4.639v8.1563c0 1.1523.233 1.9608.697 2.4258.465.4649 1.153.6974 2.062.6974 1.011 0 1.779-.2932 2.305-.8795.525-.6064.788-1.6069.788-3.0016ZM101.607 15.8234c1.577.2831 2.799.839 3.669 1.6678.869.8287 1.304 1.9608 1.304 3.3959 0 1.7384-.556 3.1232-1.668 4.1541-1.092 1.0106-2.567 1.5159-4.427 1.5159H88.1747V5.3324h11.249c2.1023 0 3.7193.47502 4.8513 1.42509 1.132.95006 1.698 2.25387 1.698 3.91141 0 1.2937-.384 2.3853-1.152 3.2747-.768.8894-1.84 1.516-3.214 1.8798Zm-.667-4.2752c0-.7075-.192-1.2634-.576-1.66764-.3844-.40428-.9908-.60643-1.8196-.60643H92.935v4.82107h5.6094c.8288 0 1.4352-.2224 1.8196-.6671.384-.4447.576-1.0713.576-1.8799Zm-8.005 11.0066h5.8217c.9703 0 1.6773-.2123 2.1223-.6368.445-.4447.667-1.0713.667-1.8799 0-1.5767-.92-2.365-2.759-2.365h-5.852v4.8817ZM79.3572 19.7349l2.5471-8.3686h5.1544l-6.1248 16.4643c-.3032.8085-.6974 1.5059-1.1824 2.0921-.4852.5863-1.1321 1.031-1.9407 1.3342-.7883.3032-1.8192.4548-3.0927.4548h-3.3959v-4.063h5.1545l-6.2461-16.2824h5.1242l2.7289 8.3686.6064 2.6985.6671-2.6985ZM57.1498 18.3098l3.8508-12.9774h8.1261v21.2247h-4.5785V9.638l-1.0006 3.8508-4.4269 13.0683h-6.1248L48.569 13.4888l-1.0006-3.82049V26.5571h-4.6089V5.3324h8.1564l3.8508 12.9471 1.0916 4.3056 1.0915-4.2753Z"
    fill="#EEF0F4"
  />
</svg>