<svg width="40" height="40" viewBox="0 0 40 40" fill="none" xmlns="http://www.w3.org/2000/svg">
<rect x="15.5996" y="7.2002" width="7.342" height="25.078" fill="#EEF0F4"/>
<path fill-rule="evenodd" clip-rule="evenodd" d="M21.4065 40H17.5195C16.2115 40 15.1465 38.936 15.1465 37.627V7.123C15.1465 7.011 15.1755 6.902 15.2305 6.805L18.9015 0.327C19.0165 0.125 19.2305 0 19.4635 0C19.6955 0 19.9105 0.125 20.0245 0.327L23.6955 6.805C23.7505 6.902 23.7795 7.011 23.7795 7.123V37.627C23.7785 38.936 22.7145 40 21.4065 40ZM16.4371 35.8574V37.6284C16.4371 38.2254 16.9231 38.7104 17.5191 38.7104H21.4061C22.0031 38.7104 22.4881 38.2244 22.4881 37.6284V35.8574H16.4371ZM16.4371 34.5658H22.4881V32.8328H16.4371V34.5658ZM20.109 31.5426H22.489V7.76758H20.109V31.5426ZM16.4371 31.5426H18.8181V7.76758H16.4371V31.5426ZM16.8996 6.47791H22.0266L19.4636 1.95391L16.8996 6.47791Z" fill="#313133"/>
</svg>
