<svg width="40" height="40" viewBox="0 0 40 40" fill="none" xmlns="http://www.w3.org/2000/svg">
<path fill-rule="evenodd" clip-rule="evenodd" d="M36.275 23.5L32.44 32.574C32.11 34.219 30.665 35.404 28.987 35.404H11.788C10.11 35.404 8.665 34.22 8.335 32.574L4.5 23.5H36.275Z" fill="#EEF0F4"/>
<path fill-rule="evenodd" clip-rule="evenodd" d="M39.34 19.1698H11.342V16.5288C11.342 16.1638 11.046 15.8688 10.682 15.8688H7.637V2.52581H15.705V5.99281H11.356V7.31381H21.374V5.99281H17.025V1.86581C17.025 1.50081 16.729 1.20581 16.365 1.20581H6.977C6.612 1.20581 6.317 1.50181 6.317 1.86581V15.8688H3.272C2.907 15.8688 2.612 16.1648 2.612 16.5288V19.1698H0.66C0.296 19.1698 0 19.4658 0 19.8298V23.2598C0 23.6248 0.296 23.9198 0.66 23.9198H3.609L7.3 32.4368C7.69 34.3838 9.415 35.7968 11.401 35.7968H12.256V38.1328C12.256 38.4978 12.552 38.7928 12.916 38.7928C13.281 38.7928 13.576 38.4968 13.576 38.1328V35.7968H26.422V38.1328C26.422 38.4978 26.718 38.7928 27.082 38.7928C27.446 38.7928 27.742 38.4968 27.742 38.1328V35.7968H28.598C30.584 35.7968 32.308 34.3838 32.69 32.4728L36.389 23.9198H39.338C39.703 23.9198 39.998 23.6238 39.998 23.2598V19.8298C40 19.4658 39.704 19.1698 39.34 19.1698ZM3.93281 17.189H10.0218V19.17H3.93281V17.189ZM31.4044 32.1777C31.1374 33.5107 29.9574 34.4767 28.5994 34.4767H11.4004C10.0414 34.4767 8.86144 33.5097 8.58644 32.1407L4.97344 23.9207H35.0264L31.4044 32.1777ZM38.6791 22.5998H1.32109V20.4898H38.6801V22.5998H38.6791ZM16.3659 8.57886C16.8519 8.57886 17.2459 8.97286 17.2459 9.45886C17.2459 9.94486 16.8519 10.3389 16.3659 10.3389C15.8799 10.3389 15.4859 9.94486 15.4859 9.45886C15.4859 8.97286 15.8799 8.57886 16.3659 8.57886ZM19.4472 8.57886C19.9332 8.57886 20.3272 8.97286 20.3272 9.45886C20.3272 9.94486 19.9332 10.3389 19.4472 10.3389C18.9612 10.3389 18.5672 9.94486 18.5672 9.45886C18.5672 8.97286 18.9612 8.57886 19.4472 8.57886ZM13.2855 8.57886C13.7715 8.57886 14.1655 8.97286 14.1655 9.45886C14.1655 9.94486 13.7715 10.3389 13.2855 10.3389C12.7995 10.3389 12.4055 9.94486 12.4055 9.45886C12.4045 8.97286 12.7985 8.57886 13.2855 8.57886Z" fill="#313133"/>
</svg>
