<svg width="40" height="40" viewBox="0 0 40 40" fill="none" xmlns="http://www.w3.org/2000/svg">
<path fill-rule="evenodd" clip-rule="evenodd" d="M12 20.6798L31.88 0.799805L36.451 4.6998L36.762 5.0108L37.244 8.6968L33.748 8.9288L34.449 12.3618L30.952 12.5938L31.652 16.0278L28.155 16.2608L28.855 19.6958L25.357 19.9288L26.058 23.3628L22.56 23.5968L23.258 27.0338L19.759 27.2688L19.346 27.6818" fill="#EEF0F4"/>
<path fill-rule="evenodd" clip-rule="evenodd" d="M12.4407 39.9995C12.2657 39.9995 12.0977 39.9295 11.9747 39.8065L9.32467 37.1565C9.20067 37.0325 9.13167 36.8655 9.13167 36.6905C9.13167 36.5155 9.20167 36.3475 9.32467 36.2245L10.8007 34.7485L7.39067 31.3385L5.91467 32.8145C5.65667 33.0725 5.23967 33.0725 4.98167 32.8145L2.33167 30.1645C2.20767 30.0405 2.13867 29.8735 2.13867 29.6985C2.13867 29.5235 2.20867 29.3555 2.33167 29.2325L4.27467 27.2895V27.2895L31.3697 0.192524C31.6137 -0.051476 32.0027 -0.066476 32.2647 0.157524L36.8357 4.05752C36.8487 4.06852 36.8617 4.08052 36.8737 4.09352L37.1847 4.40452C37.2877 4.50752 37.3537 4.64052 37.3727 4.78552L37.8547 8.47152C37.8787 8.65252 37.8267 8.83452 37.7107 8.97552C37.5947 9.11652 37.4267 9.20352 37.2447 9.21552L34.5017 9.39852L35.0517 12.0905C35.0897 12.2775 35.0457 12.4715 34.9297 12.6225C34.8147 12.7735 34.6387 12.8675 34.4487 12.8805L31.7057 13.0625L32.2547 15.7565C32.2927 15.9425 32.2487 16.1365 32.1327 16.2885C32.0167 16.4405 31.8417 16.5335 31.6517 16.5465L28.9077 16.7295L29.4567 19.4245C29.4947 19.6105 29.4507 19.8045 29.3347 19.9565C29.2197 20.1075 29.0447 20.2015 28.8537 20.2145L26.1097 20.3975L26.6587 23.0915C26.6967 23.2785 26.6527 23.4725 26.5367 23.6235C26.4217 23.7745 26.2467 23.8695 26.0567 23.8815L23.3117 24.0655L23.8587 26.7625C23.8967 26.9485 23.8527 27.1425 23.7367 27.2935C23.6217 27.4445 23.4467 27.5385 23.2567 27.5515L20.4347 27.7415L20.4987 27.8065C20.6067 27.9145 20.6737 28.0565 20.6887 28.2085L20.9987 31.3725C21.0177 31.5695 20.9477 31.7635 20.8087 31.9035L12.9057 39.8065C12.7837 39.9295 12.6157 39.9995 12.4407 39.9995ZM10.7225 36.6908L12.4395 38.4068L19.6555 31.1908L19.3995 28.5728L12.1285 21.3008L3.73047 29.6988L5.44747 31.4158L6.92347 29.9398C7.18147 29.6818 7.59847 29.6818 7.85647 29.9398L12.1995 34.2828C12.3235 34.4068 12.3925 34.5738 12.3925 34.7488C12.3925 34.9238 12.3225 35.0918 12.1995 35.2148L10.7225 36.6908ZM13.0605 20.3676L19.3045 26.6116C19.4085 26.5296 19.5365 26.4796 19.6705 26.4706L22.4165 26.2856L21.8685 23.5876C21.8305 23.4016 21.8745 23.2076 21.9905 23.0556C22.1065 22.9046 22.2805 22.8106 22.4705 22.7976L25.2155 22.6136L24.6665 19.9196C24.6285 19.7326 24.6725 19.5386 24.7885 19.3876C24.9035 19.2366 25.0785 19.1426 25.2695 19.1296L28.0135 18.9466L27.4645 16.2516C27.4265 16.0656 27.4705 15.8716 27.5865 15.7196C27.7025 15.5686 27.8775 15.4746 28.0675 15.4616L30.8115 15.2786L30.2625 12.5846C30.2245 12.3986 30.2685 12.2046 30.3845 12.0526C30.5005 11.9006 30.6755 11.8076 30.8655 11.7946L33.6085 11.6126L33.0585 8.92064C33.0205 8.73364 33.0645 8.53964 33.1805 8.38864C33.2955 8.23764 33.4715 8.14364 33.6615 8.13064L36.4565 7.94464L36.0945 5.17864L35.9585 5.04364L31.8715 1.55664L13.0605 20.3676ZM14.4817 33.8543C14.3067 33.8543 14.1387 33.7843 14.0157 33.6613L8.4767 28.1223C8.2187 27.8643 8.2187 27.4473 8.4767 27.1893L11.4427 24.2233C11.6897 23.9763 12.1287 23.9763 12.3757 24.2233L17.9147 29.7623C18.1727 30.0203 18.1727 30.4373 17.9147 30.6953L14.9487 33.6613C14.8247 33.7843 14.6567 33.8543 14.4817 33.8543ZM9.87695 27.6551L14.483 32.2611L16.516 30.2281L11.91 25.6221L9.87695 27.6551Z" fill="#313133"/>
</svg>
