<svg width="40" height="40" viewBox="0 0 40 40" fill="none" xmlns="http://www.w3.org/2000/svg">
<path fill-rule="evenodd" clip-rule="evenodd" d="M28.604 27.008C27.544 24.141 25.286 23.5 22.688 23.5C15.241 23.5 15.992 28.469 15.159 32.721C14.741 34.858 11.5 37.851 11.5 37.851C11.5 38.106 11.708 38.314 11.963 38.314C11.963 38.314 13.194 38.511 14.988 38.631C18.117 37.193 19.5 31 19.5 31C19.5 31 19.373 36.087 17 38.5L16.027 38.688C17.613 38.755 19.482 38.738 21.299 38.5C21.302 38.494 22.844 34.967 23.5 33C23.5 33 23.593 35.835 22.853 37.803C22.746 38.087 22.627 38.316 22.5 38.5C25.036 37.858 28.079 36.217 28.706 33.915C29.201 32.106 29.016 28.122 28.604 27.008Z" fill="#EEF0F4"/>
<path fill-rule="evenodd" clip-rule="evenodd" d="M28.6267 26.752C28.1207 25.377 27.3687 24.477 26.4947 23.889V22.89C26.4947 21.398 25.7037 20.083 24.5187 19.352V2.184C24.5177 0.977 23.5407 0 22.3337 0C21.1267 0 20.1497 0.977 20.1497 2.184V19.352C18.9647 20.083 18.1737 21.398 18.1737 22.89V23.547C15.3497 24.87 14.9307 27.772 14.5497 30.41C14.4587 31.041 14.3637 31.694 14.2427 32.321C13.9357 33.899 11.4187 36.477 10.4757 37.337C10.3417 37.462 10.2637 37.635 10.2637 37.817C10.2637 38.409 10.7307 38.894 11.3147 38.928C11.7257 38.993 14.1217 39.343 17.0187 39.343C21.6417 39.343 27.5487 38.448 28.7467 34.054C29.2537 32.192 29.1067 28.049 28.6267 26.752ZM21.4473 2.18388C21.4473 1.69488 21.8453 1.29688 22.3343 1.29688C22.8233 1.29688 23.2213 1.69488 23.2213 2.18388V18.8249C22.6503 18.6999 22.0193 18.6999 21.4483 18.8249V2.18388H21.4473ZM19.4715 22.8903C19.4715 21.3123 20.7555 20.0273 22.3345 20.0273C23.9125 20.0273 25.1975 21.3113 25.1975 22.8903V23.2493C24.1815 22.8993 23.0955 22.8173 22.1055 22.8173C21.0895 22.8173 20.2195 22.9213 19.4715 23.0983V22.8903ZM27.4984 33.7141C26.9834 35.5991 25.2494 36.6761 23.2124 37.2861C23.9214 35.2921 23.9564 31.4741 23.9564 31.4741C23.4504 32.9881 21.8074 36.3091 21.0724 37.7621C20.3844 37.8701 19.6924 37.9391 19.0354 37.9831C18.5644 38.0091 18.0974 38.0261 17.6384 38.0351C19.5544 35.3321 19.6664 29.9351 19.6664 29.9351C19.6664 29.9351 17.9414 35.7731 15.3204 38.0001C13.8324 37.9311 12.6094 37.7921 11.9684 37.7101C13.0584 36.6291 15.1684 34.3501 15.5144 32.5721C15.6444 31.9101 15.7394 31.2401 15.8344 30.5961C16.3574 26.9761 16.7684 24.1141 22.1054 24.1141C25.0634 24.1141 26.6034 25.0091 27.4114 27.2021C27.7754 28.1831 27.9484 32.0491 27.4984 33.7141Z" fill="#313133"/>
</svg>
