<svg width="40" height="40" viewBox="0 0 40 40" fill="none" xmlns="http://www.w3.org/2000/svg">
<path fill-rule="evenodd" clip-rule="evenodd" d="M26.329 24.2318L26.389 38.6628L2 22.2358V8.7998L26.329 24.2318ZM26.3289 24.2321L26.3889 38.6631L39.3319 30.4521V16.3291L26.3289 24.2321Z" fill="#EEF0F4"/>
<path fill-rule="evenodd" clip-rule="evenodd" d="M26.3795 39.1195C26.3115 39.1195 26.2445 39.1095 26.1785 39.0895V39.0895H26.1775C26.1255 39.0735 26.0745 39.0505 26.0265 39.0215C26.0265 39.0215 26.0265 39.0215 26.0255 39.0215V39.0215C26.0155 39.0155 26.0065 39.0095 25.9975 39.0035L1.61248 22.5775C1.42548 22.4515 1.31348 22.2405 1.31348 22.0155V8.57951C1.31348 8.34051 1.43848 8.12051 1.64248 7.99851L13.7725 0.660513C13.9855 0.531513 14.2535 0.529513 14.4675 0.656513L39.6655 15.5245C39.8725 15.6455 40.0005 15.8675 40.0005 16.1085V30.2315C40.0005 30.4635 39.8815 30.6795 39.6855 30.8035L26.7445 39.0125C26.7385 39.0165 26.7315 39.0205 26.7255 39.0235C26.7255 39.0235 26.7255 39.0235 26.7245 39.0245V39.0245C26.6805 39.0505 26.6335 39.0715 26.5855 39.0865H26.5845V39.0865C26.5195 39.1075 26.4525 39.1175 26.3855 39.1185C26.3855 39.1185 26.3855 39.1185 26.3845 39.1185C26.3845 39.1185 26.3845 39.1185 26.3835 39.1185C26.3835 39.1185 26.3835 39.1185 26.3825 39.1185C26.3825 39.1205 26.3805 39.1195 26.3795 39.1195ZM26.9986 24.3915L27.0516 37.2125L38.6436 29.8585V17.3145L26.9986 24.3915ZM2.66895 21.6545L25.6959 37.1635L25.6429 24.3845L2.66895 9.8125V21.6545ZM3.27832 8.59369L26.3273 23.2137L38.0023 16.1177L14.1273 2.02969L3.27832 8.59369ZM26.6291 21.1406C26.5041 21.1406 26.3791 21.1066 26.2691 21.0376L17.7401 15.7026C17.5401 15.5786 17.4201 15.3586 17.4221 15.1236C17.4241 14.8886 17.5471 14.6706 17.7481 14.5486L24.7641 10.2836C24.9781 10.1546 25.2471 10.1526 25.4621 10.2796L34.1061 15.4156C34.3091 15.5366 34.4351 15.7546 34.4381 15.9906C34.4411 16.2276 34.3201 16.4476 34.1201 16.5736L26.9891 21.0376C26.8781 21.1066 26.7541 21.1406 26.6291 21.1406ZM19.3908 15.1365L26.6278 19.6625L32.4568 16.0135L25.1188 11.6535L19.3908 15.1365ZM15.0128 13.876C14.8878 13.876 14.7628 13.842 14.6528 13.773L7.10982 9.05498C6.91182 8.93098 6.79082 8.71398 6.79082 8.47998C6.79082 8.24598 6.91182 8.02898 7.10982 7.90498L13.7678 3.75498C13.9828 3.61998 14.2548 3.61698 14.4728 3.74698L22.2968 8.39998C22.5018 8.52098 22.6268 8.74198 22.6278 8.97998C22.6288 9.21798 22.5058 9.43898 22.3018 9.56298L15.3648 13.778C15.2568 13.844 15.1348 13.876 15.0128 13.876ZM8.7502 8.48105L15.0192 12.401L20.6352 8.98805L14.1372 5.12305L8.7502 8.48105Z" fill="#313133"/>
</svg>
