<svg width="40" height="40" viewBox="0 0 40 40" fill="none" xmlns="http://www.w3.org/2000/svg">
    <g clip-path="url(#clip0_95_3874)">
        <path
            d="M17.2 21.6001V36.3481H35.467V21.6001H17.2ZM23.592 32.6261H20.209V27.7181H23.592V32.6261ZM32.459 32.6261H29.076V27.7181H32.459V32.6261Z"
            fill="#EEF0F4" />
        <path
            d="M18.388 9.33352V11.2795V11.2805L15.364 13.7325H14.26C13.929 13.7325 13.66 14.0015 13.66 14.3325V18.4725C13.66 18.8035 13.929 19.0725 14.26 19.0725H23.714C24.045 19.0725 24.314 18.8035 24.314 18.4725V14.3325C24.314 14.0015 24.045 13.7325 23.714 13.7325H22.61L19.586 11.2805V11.2795V8.73352C19.586 8.40252 19.317 8.13352 18.986 8.13352H12.509V3.07852C12.509 2.74752 12.24 2.47852 11.909 2.47852H4.703C4.372 2.47852 4.103 2.74752 4.103 3.07852V8.13452H0.6C0.269 8.13452 0 8.40352 0 8.73452C0 9.06552 0.269 9.33452 0.6 9.33452H6.006V13.6465V14.3325V22.8555V23.5415V31.7235V32.4095V36.2435C6.006 36.5745 6.275 36.8435 6.606 36.8435H10.241C10.572 36.8435 10.841 36.5745 10.841 36.2435V9.33352H18.388ZM22.403 14.9335H23.115V17.8735H14.861V14.9335H15.573C15.576 14.9335 15.579 14.9335 15.583 14.9335H22.394C22.397 14.9335 22.4 14.9335 22.403 14.9335ZM17.27 13.7335L18.988 12.3395L20.706 13.7335H17.27ZM7.206 32.1685V31.9355L9.641 28.9435V34.7315L7.206 32.1685ZM7.206 13.8585L9.641 10.8665V16.6545L7.206 14.0915V13.8585V13.8585ZM7.206 11.9575V9.39152H9.294L7.206 11.9575ZM9.511 18.2605C9.524 18.2745 9.539 18.2845 9.554 18.2965C9.528 18.3185 9.503 18.3425 9.481 18.3695L7.206 21.1655V15.8335L9.511 18.2605ZM7.206 23.0675L9.641 20.0755V25.8635L7.206 23.3005V23.0675ZM9.393 27.3455L7.206 30.0335V25.0425L9.393 27.3455ZM5.303 3.67852H11.311V8.13452H5.303V3.67852ZM7.206 33.9105L8.851 35.6415H7.206V33.9105ZM39.4 35.6415H36.048V21.4935C36.048 21.1625 35.779 20.8935 35.448 20.8935H17.18C16.849 20.8935 16.58 21.1625 16.58 21.4935V35.6415H13.228C12.897 35.6415 12.628 35.9105 12.628 36.2415C12.628 36.5725 12.897 36.8415 13.228 36.8415H17.18H35.448H39.4C39.731 36.8415 40 36.5725 40 36.2415C40 35.9105 39.731 35.6415 39.4 35.6415ZM17.78 35.6415V22.0935H34.848V35.6415H17.78ZM32.439 27.0105H29.057C28.726 27.0105 28.457 27.2795 28.457 27.6105V32.5195C28.457 32.8505 28.726 33.1195 29.057 33.1195H32.439C32.77 33.1195 33.039 32.8505 33.039 32.5195V27.6105C33.039 27.2785 32.77 27.0105 32.439 27.0105ZM31.839 31.9195H29.657V28.2105H31.839V31.9195ZM23.571 27.0105H20.188C19.857 27.0105 19.588 27.2795 19.588 27.6105V32.5195C19.588 32.8505 19.857 33.1195 20.188 33.1195H23.571C23.902 33.1195 24.171 32.8505 24.171 32.5195V27.6105C24.171 27.2785 23.903 27.0105 23.571 27.0105ZM22.971 31.9195H20.788V28.2105H22.971V31.9195Z"
            fill="#313133" />
    </g>
    <defs>
        <clipPath id="clip0_95_3874">
            <rect width="40" height="40" fill="white" />
        </clipPath>
    </defs>
</svg>
