<svg width="40" height="40" viewBox="0 0 40 40" fill="none" xmlns="http://www.w3.org/2000/svg">
<path fill-rule="evenodd" clip-rule="evenodd" d="M25.3074 38.6138C31.3312 38.6138 36.2144 33.7306 36.2144 27.7068C36.2144 21.683 31.3312 16.7998 25.3074 16.7998C19.2836 16.7998 14.4004 21.683 14.4004 27.7068C14.4004 33.7306 19.2836 38.6138 25.3074 38.6138Z" fill="#EEF0F4"/>
<path fill-rule="evenodd" clip-rule="evenodd" d="M32.0998 0.0186036C32.0998 0.0186036 30.9048 -0.189396 30.6248 0.785604L29.9068 3.4066C29.7428 4.0066 30.0978 4.6296 30.6978 4.7936L30.7858 4.8176L30.5088 5.8296L30.4198 5.8056C29.8198 5.6426 29.1978 5.9966 29.0328 6.5976L28.3168 9.2176C28.2368 9.5076 28.2758 9.8126 28.4258 10.0756C28.5758 10.3376 28.8178 10.5256 29.1088 10.6056L29.1968 10.6296L28.9418 11.5606C28.3958 11.5396 27.8528 11.6686 27.3668 11.9456C26.6788 12.3376 26.1858 12.9736 25.9758 13.7376C25.7668 14.5006 25.8678 15.2996 26.2608 15.9876C26.3018 16.0596 26.3468 16.1276 26.3928 16.1946C24.0068 15.9476 21.6088 16.4446 19.4838 17.6556C16.7958 19.1886 14.8658 21.6766 14.0488 24.6616C13.2318 27.6456 13.6268 30.7706 15.1588 33.4576C16.6918 36.1456 19.1798 38.0756 22.1648 38.8926C23.1808 39.1706 24.2138 39.3086 25.2408 39.3086C27.2268 39.3086 29.1888 38.7926 30.9608 37.7826C33.6488 36.2496 35.5788 33.7616 36.3958 30.7766C37.9098 25.2426 35.1248 19.5306 30.0778 17.2026C30.1528 17.1676 30.2288 17.1346 30.3018 17.0936C30.9888 16.7016 31.4828 16.0656 31.6918 15.3016C32.0608 13.9516 31.4278 12.5616 30.2478 11.9196L30.5028 10.9876L30.6708 11.0336C30.7698 11.0606 30.8698 11.0736 30.9698 11.0736C31.1638 11.0736 31.3558 11.0236 31.5288 10.9246C31.7908 10.7746 31.9788 10.5326 32.0588 10.2416L32.7748 7.6216C32.8548 7.3316 32.8158 7.0266 32.6658 6.7636C32.5158 6.5016 32.2738 6.3136 31.9828 6.2336L31.8148 6.1876L32.0918 5.1756L32.2598 5.2216C32.3588 5.2486 32.4588 5.2626 32.5598 5.2626C32.7538 5.2626 32.9448 5.2126 33.1188 5.1136C33.3818 4.9636 33.5698 4.7206 33.6488 4.4296L34.3658 1.8096C34.5978 0.771604 33.4058 0.376604 33.4058 0.376604L32.0998 0.0186036ZM31.8734 1.36133L33.0014 1.66933L32.4034 3.85433L31.2754 3.54633L31.8734 1.36133ZM30.2816 7.17188L31.4086 7.47988L30.8106 9.66488L29.6836 9.35688L30.2816 7.17188ZM27.2842 14.0942C27.3972 13.6802 27.6652 13.3352 28.0382 13.1222C28.2842 12.9822 28.5562 12.9102 28.8322 12.9102C28.9752 12.9102 29.1182 12.9292 29.2602 12.9682C29.6742 13.0812 30.0192 13.3492 30.2322 13.7222C30.4452 14.0952 30.4992 14.5282 30.3862 14.9432C30.1532 15.7982 29.2692 16.3042 28.4112 16.0692C27.9972 15.9562 27.6522 15.6882 27.4392 15.3152C27.2252 14.9422 27.1712 14.5082 27.2842 14.0942ZM35.0882 30.4184C34.3672 33.0534 32.6632 35.2504 30.2892 36.6044C27.9162 37.9584 25.1572 38.3064 22.5222 37.5844C19.8872 36.8634 17.6902 35.1594 16.3362 32.7854C14.9822 30.4124 14.6342 27.6534 15.3562 25.0184C16.0772 22.3834 17.7822 20.1864 20.1552 18.8324C21.7202 17.9394 23.4522 17.4844 25.2062 17.4844C26.1132 17.4844 27.0252 17.6064 27.9232 17.8524C30.5582 18.5734 32.7552 20.2774 34.1082 22.6514C35.4612 25.0244 35.8092 27.7834 35.0882 30.4184ZM5.57031 23.4756H13.1213V24.8306H5.57031V23.4756ZM12.1349 28.8667H2.50391V27.5117H12.1349V28.8667ZM7.86719 31.2453H13.1202V32.6003H7.86719V31.2453Z" fill="#313133"/>
</svg>
