<svg width="40" height="40" viewBox="0 0 40 40" fill="none" xmlns="http://www.w3.org/2000/svg">
<path fill-rule="evenodd" clip-rule="evenodd" d="M36.386 7.39985C36.3658 7.32257 36.3243 7.25273 36.2692 7.19623C36.1381 7.06298 35.9376 7.03375 35.7707 7.09608C35.7084 7.1164 35.6529 7.15138 35.611 7.19287L31.9196 10.8819C31.7735 11.021 31.4272 11.0265 31.0122 10.8843C30.4934 10.6996 30.2784 10.6917 29.7686 10.178L29.4859 9.89675C28.9827 9.36935 28.598 8.77265 28.4209 8.24705C28.2911 7.8337 28.2928 7.4979 28.4254 7.33764C28.4254 7.33074 28.4323 7.33074 28.4323 7.32383L30.1178 5.63916L32.1238 3.63477C32.2978 3.46071 32.2992 3.14608 32.1272 2.97007C32.0718 2.91364 32.0026 2.87142 31.9265 2.8499C31.3522 2.68635 30.7499 2.59921 30.1405 2.59579C28.3737 2.58685 26.7144 3.27057 25.4536 4.52374C25.1193 4.85766 24.8262 5.22006 24.575 5.61042C23.8769 6.67746 23.5031 7.92775 23.4962 9.23605C23.4942 9.62105 23.5268 10.0061 23.5942 10.3772C23.6277 10.6153 23.6749 10.8532 23.7433 11.0844L23.7905 11.2458L21.137 13.8977L6.67158 28.3472L5.84285 29.1756L4.819 30.1989V30.2059L4.56132 30.456C4.01822 31.0062 3.69569 31.7249 3.66412 32.5017C3.65681 32.5432 3.65662 32.5928 3.65629 32.6346C3.65227 33.4111 3.93235 34.1473 4.44906 34.7166L4.44216 34.7236C4.45604 34.7378 4.47682 34.7589 4.49023 34.7727L4.53877 34.8222L4.5456 34.815C5.10415 35.3428 5.83 35.6332 6.59919 35.6372C7.41672 35.6413 8.18768 35.3166 8.76568 34.746L17.917 25.5929L25.0558 18.4585L25.3344 18.1799L25.9961 17.5259L26.7551 16.7673L27.9878 15.5281L28.1543 15.5784C28.7421 15.7562 29.3582 15.8433 29.9749 15.8463C31.7417 15.8556 33.4078 15.1715 34.6618 13.9187C35.4901 13.0903 36.0709 12.0789 36.3742 10.9751C36.5299 10.4021 36.616 9.80765 36.6192 9.20635C36.6223 8.59055 36.5421 7.98155 36.386 7.39985Z" fill="#EEF0F4"/>
<path fill-rule="evenodd" clip-rule="evenodd" d="M7.65768 32.7443C7.46535 32.9366 7.12383 32.9347 6.92676 32.7339C6.83168 32.6438 6.77757 32.5051 6.77845 32.3672C6.77933 32.2294 6.83465 32.0986 6.93062 32.0025C7.12992 31.8036 7.47828 31.8121 7.66161 31.9995C7.75667 32.1034 7.81767 32.2417 7.81677 32.3726C7.81597 32.5109 7.76067 32.6417 7.65768 32.7443ZM6.78536 31.029C6.60042 31.0974 6.42922 31.1998 6.28524 31.3438C6.14093 31.4883 6.03758 31.66 5.96804 31.8461C5.76738 32.362 5.8733 32.9835 6.27448 33.3859C6.5394 33.6629 6.90083 33.8169 7.29023 33.8185C7.67279 33.8205 8.02857 33.6708 8.30347 33.403C8.57807 33.1288 8.73017 32.764 8.73227 32.3774C8.73447 31.9912 8.58577 31.6319 8.31387 31.3476C7.91967 30.9456 7.30547 30.8321 6.78536 31.029Z" fill="#313133"/>
<path fill-rule="evenodd" clip-rule="evenodd" d="M28.7496 2.16639C27.2571 2.42958 25.8802 3.14392 24.7818 4.24661C23.3604 5.667 22.5716 7.56725 22.5612 9.58816C22.5582 10.1541 22.6169 10.7197 22.7371 11.2724L17.9783 16.0282L14.4146 19.5899L4.18276 29.8152C3.42759 30.5702 3.00568 31.5821 3.00006 32.6582C2.99526 33.5616 3.2845 34.4187 3.82045 35.1248C3.89528 35.2221 3.97655 35.3191 4.05822 35.409C4.0717 35.4302 4.09195 35.4506 4.11266 35.4644C4.12608 35.4783 4.13949 35.4922 4.15337 35.5133C4.89425 36.2137 5.84871 36.6051 6.87321 36.6105C7.11232 36.6097 7.34828 36.5888 7.57872 36.5482C8.37527 36.4078 9.10767 36.0309 9.69367 35.445L17.7076 27.4365L25.7141 19.4277L28.2481 16.8953C28.794 17.0289 29.3538 17.0943 29.9205 17.0971C30.3759 17.0997 30.8248 17.0611 31.2633 16.9838C32.7546 16.7208 34.1295 16.0065 35.2335 14.9032C35.5422 14.5876 35.824 14.258 36.0721 13.9003C36.9665 12.6427 37.4459 11.1415 37.4537 9.56171C37.4572 8.87222 37.3655 8.18166 37.184 7.51179C37.1173 7.27659 37.002 7.06908 36.8256 6.88896C36.4974 6.55001 35.9938 6.42151 35.5317 6.50298C35.2568 6.55146 34.9966 6.67451 34.7965 6.87144L31.3565 10.3098C31.3289 10.3025 31.3017 10.2959 31.2606 10.2817L31.0358 10.2047C30.722 10.0996 30.6676 10.0857 30.4094 9.82859L30.1376 9.55158C29.9404 9.35036 29.7706 9.13579 29.6284 8.91432C29.5674 8.82434 29.513 8.72752 29.4658 8.63754C29.4049 8.51994 29.3512 8.40917 29.3171 8.29862C29.3106 8.26402 29.2973 8.22982 29.2907 8.20173L32.7308 4.76374C32.9983 4.50292 33.1505 4.13124 33.1527 3.745C33.1548 3.35876 32.9996 2.98524 32.7282 2.70816C32.5579 2.5347 32.3538 2.41634 32.1148 2.34598C31.4603 2.15634 30.7843 2.05661 30.0939 2.05283C29.639 2.05059 29.1893 2.08888 28.7496 2.16639ZM28.9581 3.34814C29.328 3.28292 29.7085 3.25074 30.0879 3.2529C30.6583 3.2559 31.2281 3.33861 31.7764 3.49741C31.8346 3.51436 31.8557 3.53257 31.8706 3.54782C31.9231 3.60152 31.9532 3.67094 31.953 3.73881C31.9524 3.81852 31.9206 3.87774 31.8825 3.91493L28.4421 7.35338C28.1462 7.64926 28.0253 8.07838 28.1247 8.4853C28.1317 8.51371 28.14 8.54474 28.151 8.58179C28.1565 8.60358 28.1624 8.62568 28.1691 8.64726C28.2304 8.85008 28.3165 9.02743 28.4044 9.19633C28.482 9.34429 28.5528 9.46463 28.6263 9.57475C28.8145 9.86609 29.0348 10.1408 29.2804 10.3912L29.5636 10.68C29.9719 11.086 30.203 11.1915 30.6328 11.3351L30.6471 11.3399L30.8718 11.4168C30.9509 11.4439 31.0037 11.4577 31.057 11.4719C31.2255 11.5153 31.3987 11.5209 31.5646 11.4916C31.8033 11.4496 32.0277 11.3356 32.2049 11.1586L35.6397 7.72559C35.6501 7.71523 35.6834 7.69473 35.7401 7.68473C35.8508 7.66521 35.9416 7.70079 35.9681 7.72902C35.9942 7.75527 36.0138 7.7835 36.0259 7.82442C36.1802 8.3955 36.2565 8.9779 36.254 9.55552C36.247 10.8862 35.8459 12.1478 35.0856 13.2168C34.891 13.4973 34.6589 13.775 34.3848 14.0544C33.4629 14.9761 32.3111 15.5805 31.0549 15.802C30.6858 15.8671 30.3064 15.8991 29.9267 15.897C29.4449 15.8946 28.9764 15.8383 28.5341 15.7299C28.3694 15.6895 28.2012 15.685 28.0397 15.7135C27.8014 15.7555 27.5766 15.8699 27.3998 16.0464L24.866 18.5793L16.8594 26.5877L8.84547 34.5962C8.44007 35.0015 7.93017 35.2677 7.37038 35.3664C7.20769 35.3951 7.04014 35.41 6.87975 35.4103C6.18736 35.4065 5.5497 35.1578 5.03059 34.69C5.00879 34.6655 4.98879 34.6442 4.97047 34.6255C4.9615 34.6161 4.95214 34.6068 4.94246 34.598C4.88185 34.5307 4.82312 34.4602 4.77632 34.3998C4.39624 33.8982 4.19661 33.2981 4.1998 32.6643C4.2038 31.9061 4.49892 31.1957 5.03108 30.664L15.2626 20.4388L18.8266 16.877L23.5855 12.1212C23.8745 11.8322 23.9965 11.4163 23.9095 11.0173C23.8085 10.553 23.7587 10.0744 23.7613 9.59423C23.7701 7.8888 24.4339 6.29085 25.6322 5.09339C26.548 4.17359 27.6979 3.57034 28.9581 3.34814Z" fill="#313133"/>
<path fill-rule="evenodd" clip-rule="evenodd" d="M14.8962 16.7006C13.4876 15.1159 11.7455 13.2192 11.6075 13.0616L11.3621 12.7811L11.001 12.689L8.2389 11.9847L4.32129 5.16479L6.45189 3.26307L12.6587 8.0167L12.6613 8.03461L12.6814 8.10681L13.413 10.7139L13.4879 10.9801L13.6712 11.1867L17.0837 15.028L17.8962 14.3006L14.5685 10.3896L13.8369 7.78252C13.7969 7.51634 13.6636 7.27268 13.4478 7.10994L7.04924 2.20878C6.91854 2.10694 6.76868 2.04234 6.61387 2.01504C6.32118 1.96343 6.00996 2.04462 5.77521 2.25871L3.41383 4.36587C3.05519 4.68606 2.96591 5.2154 3.20843 5.63671L7.23836 12.6515C7.37253 12.8811 7.59465 13.0518 7.8516 13.1244L10.7045 13.852C10.8367 14.0033 12.7817 16.0223 14.0962 17.5006L14.8962 16.7006Z" fill="#313133"/>
<path fill-rule="evenodd" clip-rule="evenodd" d="M36.6056 33.6742C36.6615 32.7649 36.3623 31.8912 35.7618 31.2127L28.8115 23.7167L26.2969 21.1006L25.4969 21.9006L27.9681 24.5745L34.8629 32.0075C35.2508 32.4455 35.4443 33.0112 35.4078 33.6007C35.3717 34.1898 35.11 34.7273 34.6669 35.1187L33.486 36.1724C33.0522 36.5594 32.4961 36.7534 31.9199 36.7176C31.8351 36.7128 31.7504 36.7023 31.6681 36.6878C31.1851 36.6026 30.759 36.361 30.4328 35.9838L22.7876 27.6049L21.0969 25.9006L20.2969 26.7006L21.7897 28.2864L29.5302 36.7742C30.0373 37.3604 30.712 37.7377 31.4597 37.8695C31.5869 37.892 31.7158 37.9074 31.8459 37.9157C32.7464 37.9709 33.6126 37.6679 34.2851 37.0676L35.4655 36.0142C36.1453 35.4139 36.5496 34.5835 36.6056 33.6742Z" fill="#313133"/>
<path fill-rule="evenodd" clip-rule="evenodd" d="M23.9178 25.6485C23.6201 25.3221 23.6435 24.8161 23.97 24.5184C24.2965 24.2207 24.8024 24.244 25.1001 24.5705L33.2305 33.4874C33.5281 33.8139 33.5048 34.3199 33.1783 34.6176C32.8518 34.9153 32.3458 34.8919 32.0481 34.5654L23.9178 25.6485Z" fill="#313133"/>
</svg>
