<svg width="40" height="40" viewBox="0 0 40 40" fill="none" xmlns="http://www.w3.org/2000/svg">
<path fill-rule="evenodd" clip-rule="evenodd" d="M18.3974 10.7554C19.4054 14.1794 22.7294 26.0284 11.8404 33.8674L11.4714 34.1674C11.2354 34.3594 11.1404 34.6774 11.2384 34.9664C11.4874 35.7004 12.1144 37.0274 13.0574 37.8974C14.9334 39.6264 16.7364 39.4574 17.8264 39.1684L17.9364 39.1314C32.1004 29.4524 27.6002 10.4004 27.6002 10.4004C27.6002 10.4004 26.47 12.3766 23.8002 12.6004C20.27 12.8963 18.3974 10.7554 18.3974 10.7554Z" fill="#EEF0F4"/>
<path fill-rule="evenodd" clip-rule="evenodd" d="M23.6559 11.054C23.6569 10.815 23.6429 5.14 21.1659 0L20.1719 0.479C22.5359 5.385 22.5529 10.995 22.5529 11.052L23.6559 11.054ZM18.2937 39.4998L18.2307 39.5428L18.0477 39.6038C17.5247 39.7428 17.0167 39.8128 16.5217 39.8128C15.1477 39.8128 13.8817 39.2778 12.7297 38.2158C11.4877 37.0708 10.8727 35.3838 10.7617 35.0568C10.5917 34.5538 10.7557 33.9898 11.1687 33.6538L11.5377 33.3538C18.6547 28.2288 20.7967 20.6748 17.9307 10.8798C17.8647 10.6938 17.8317 10.5028 17.8317 10.3088C17.8317 9.62483 18.2397 8.99283 18.9887 8.49883C17.2167 7.21583 14.2817 7.58183 14.2407 7.58783L14.0947 6.49483C16.3397 6.19683 20.7447 6.62783 21.3437 10.4098L20.2547 10.5828C20.1757 10.0818 20.0047 9.66383 19.7727 9.31183C19.2397 9.61583 18.9337 9.97483 18.9337 10.3088C18.9337 10.3768 18.9457 10.4448 18.9697 10.5138L18.9717 10.5128C18.9747 10.5218 18.9777 10.5318 18.9797 10.5408C19.0377 10.6878 19.1497 10.8368 19.3147 10.9858C20.0107 11.6068 21.4407 12.0098 22.9547 12.0098C24.9737 12.0098 26.3707 11.3548 26.8137 10.7448C26.9247 10.5948 26.9767 10.4538 26.9767 10.3078C26.9767 10.3058 26.9767 10.3038 26.9767 10.3018C26.9517 10.1808 26.9337 10.1008 26.9257 10.0648C26.8047 9.77083 26.4717 9.47883 25.9917 9.23283C25.9647 9.56283 25.9457 9.90383 25.9457 10.2718H24.8427C24.8427 4.76683 27.9237 3.01983 28.0547 2.94883L28.3187 3.43283L28.5867 3.91483C28.4967 3.96483 26.7457 5.00083 26.1467 8.08883C27.2997 8.57983 27.9997 9.32883 28.0727 10.1648C28.6317 12.9618 31.5047 30.4718 18.2937 39.4998ZM27.2482 11.8758C26.3312 12.6398 24.7352 13.1118 22.9552 13.1118C21.6242 13.1118 20.3932 12.8518 19.4692 12.3928C21.0772 19.2758 20.7782 28.0568 12.2082 34.2268L11.8652 34.5068C11.8052 34.5548 11.7822 34.6318 11.8062 34.7018C12.0702 35.4808 12.6662 36.6558 13.4772 37.4038C14.7652 38.5908 16.1562 38.9668 17.7302 38.5468C28.8422 30.9018 27.9702 16.8808 27.2482 11.8758Z" fill="#313133"/>
</svg>
