<svg width="40" height="40" viewBox="0 0 40 40" fill="none" xmlns="http://www.w3.org/2000/svg">
<path fill-rule="evenodd" clip-rule="evenodd" d="M15.2002 16.0004V26.0004H24.8002V16.0004H15.2002V16.0004ZM27.2002 16.0004V26.0004H36.8002V16.0004H27.2002V16.0004ZM3.2002 16.0004V26.0004H12.8002V16.0004H3.2002V16.0004ZM3.2002 30.4004V34.8004H12.8002V30.4004H3.2002V30.4004ZM15.2002 30.4004V34.8004H24.8002V30.4004H15.2002V30.4004ZM27.2002 30.4004V34.8004H36.8002V30.4004H27.2002V30.4004ZM11.6902 7.62039L8.0802 4.40039L8.0002 4.47039L3.6002 8.40039V11.2004H12.5602V8.40039L11.6902 7.62039ZM23.6902 7.62039L20.0802 4.40039L20.0002 4.47039L15.6002 8.40039V11.2004H24.5602V8.40039L23.6902 7.62039ZM35.2902 7.62039L31.6802 4.40039L31.6002 4.47039L27.2002 8.40039V11.2004H36.1602V8.40039L35.2902 7.62039Z" fill="#EEF0F4"/>
<path fill-rule="evenodd" clip-rule="evenodd" d="M40 16.5621V10.9921H37.2V7.71215L32.01 3.20215L26.82 7.71215V10.9921H25.19V7.71215L20 3.20215L14.81 7.71215V10.9921H13.18V7.71215L7.99 3.20215L2.8 7.71215V10.9921H0V16.5621H2.8V25.4121H0V30.9821H2.8V35.3821H13.18V30.9821H14.81V35.3821H25.19V30.9821H26.82V35.3821H37.2V30.9821H40V25.4121H37.2V16.5621H40ZM27.9898 8.24199L32.0098 4.74199L36.0298 8.24199V10.992H27.9898V8.24199V8.24199ZM15.9805 8.24199L20.0005 4.74199L24.0205 8.24199V10.992H15.9805V8.24199ZM3.96953 8.24199L7.98953 4.74199L9.48953 6.04199L12.0095 8.24199V10.992H3.96953V8.24199ZM1.17031 15.4023V12.1623H2.80031H3.97031H12.0103H13.1803H14.8103H15.9803H24.0203H25.1903H26.8203H27.9903H36.0303H37.2003H38.8303V15.4023H37.2003H36.0303H27.9903H26.8203H25.1903H24.0203H15.9803H14.8103H14.0503H13.1803H12.0103H3.97031H2.80031H1.17031ZM26.8206 25.4127H25.1906V16.5627H26.8206V25.4127ZM13.1797 25.4127V16.5627H14.0497H14.8097V25.4127H14.0497H13.1797ZM15.9805 16.5627H24.0205V25.4127H15.9805V16.5627ZM3.96953 16.5627H12.0095V25.4127H3.96953V16.5627ZM12.0095 34.2122H3.96953V30.9822H12.0095V34.2122ZM24.0205 34.2122H15.9805V30.9822H24.0205V34.2122ZM36.0306 34.2122H27.9906V30.9822H36.0306V34.2122ZM38.8303 26.5721V29.8121H37.2003H36.0303H27.9903H26.8203H25.1903H24.0203H15.9803H14.8103H13.1803H12.0103H3.97031H2.80031H1.17031V26.5721H2.80031H3.97031H12.0103H13.1803H14.8103H15.9803H24.0203H25.1903H26.8203H27.9903H36.0303H37.2003H38.8303ZM36.0306 25.4127H27.9906V16.5627H36.0306V25.4127Z" fill="#313133"/>
</svg>
