<svg width="40" height="40" viewBox="0 0 40 40" fill="none" xmlns="http://www.w3.org/2000/svg">
<path fill-rule="evenodd" clip-rule="evenodd" d="M22.4001 7.2002L14.7992 12.0002L7.6001 7.2002H22.4001ZM22.6567 17.2002L23.2001 7.6002L15.6001 12.4474L22.6567 17.2002ZM22.4481 31.9522L23.1471 19.8002L14.7001 27.3732L25.9051 36.5652L22.4481 31.9522ZM14.8516 12.8002L4.44298 19.3023L4.4001 19.5584L13.2673 26.8002L22.784 18.3065L22.8001 18.0439L14.8516 12.8002ZM4.8001 18.4002L14.0001 12.5748L6.56109 7.6002L4.8001 18.4002ZM12.3701 27.4247L4.2801 20.7877L1.6001 37.0797L12.3701 27.4247ZM26.3407 37.1456L25.4887 38.1856L13.5587 28.3986L2.54072 38.2736H27.1857L26.3407 37.1456Z" fill="#EEF0F4"/>
<path fill-rule="evenodd" clip-rule="evenodd" d="M39.9998 29.9854C39.9998 29.9694 39.9978 29.9544 39.9978 29.9384H39.9988L39.9938 29.8574C39.9898 29.5504 39.9718 29.2464 39.9378 28.9474L38.6878 8.70138C38.6878 4.35438 35.1508 0.817383 30.8038 0.817383C27.3258 0.817383 24.3728 3.08338 23.3288 6.19038H5.85476L3.81276 18.6024L3.58376 19.9974L0.426758 39.1824H31.6518V39.1394C36.3258 38.7094 39.9998 34.7694 39.9998 29.9854ZM30.8038 2.33496C34.3148 2.33496 37.1708 5.19096 37.1728 8.74896L38.1418 24.465C36.4618 22.238 33.8028 20.789 30.8038 20.789C27.8048 20.789 25.1458 22.238 23.4658 24.466L23.7838 19.306L23.8918 17.564H23.8908L24.4368 8.70296C24.4358 5.19096 27.2928 2.33496 30.8038 2.33496ZM5.19857 19.5234L14.9086 13.4314L22.3236 18.3444L22.3086 18.5904L13.4306 26.5484L5.15957 19.7634L5.19857 19.5234ZM22.4304 16.5965L16.3174 12.5465L22.9324 8.39551C22.9294 8.48251 22.9194 8.56751 22.9194 8.65551L22.4304 16.5965ZM14.9308 11.627L9.01582 7.70801H21.1758L14.9308 11.627ZM12.2864 27.5732L2.41738 36.4202L4.87438 21.4912L12.2864 27.5732ZM13.4738 28.5479L24.5878 37.6659H3.30176L13.4738 28.5479ZM21.6142 29.8571L21.6092 29.9381H21.6102C21.6102 29.9541 21.6082 29.9691 21.6082 29.9851C21.6082 31.4421 21.9582 32.8161 22.5632 34.0411L14.6182 27.5231L22.1772 20.7471L21.6712 28.9491C21.6362 29.2471 21.6182 29.5501 21.6142 29.8571ZM7.05676 8.22949L13.5198 12.5125L5.52676 17.5275L7.05676 8.22949ZM30.8042 37.6654C26.5742 37.6654 23.1322 34.2274 23.1252 29.9984L23.1812 29.0924C23.6262 25.2774 26.8722 22.3064 30.8042 22.3064C34.7362 22.3064 37.9822 25.2774 38.4272 29.0924L38.4832 29.9994C38.4762 34.2274 35.0342 37.6654 30.8042 37.6654ZM30.8046 24.4658C27.7606 24.4658 25.2846 26.9418 25.2846 29.9858C25.2846 33.0298 27.7616 35.5058 30.8046 35.5058C33.8476 35.5058 36.3246 33.0288 36.3246 29.9858C36.3246 26.9428 33.8476 24.4658 30.8046 24.4658ZM30.8036 34.0151C28.5816 34.0151 26.7736 32.2071 26.7736 29.9851C26.7736 27.7631 28.5816 25.9561 30.8036 25.9561C33.0256 25.9561 34.8336 27.7641 34.8336 29.9851C34.8336 32.2061 33.0246 34.0151 30.8036 34.0151Z" fill="#313133"/>
</svg>
