<svg width="41" height="40" viewBox="0 0 41 40" fill="none" xmlns="http://www.w3.org/2000/svg">
<path fill-rule="evenodd" clip-rule="evenodd" d="M15.5028 25.0518C13.5298 25.0518 11.9238 26.6578 11.9238 28.6308C11.9238 30.6038 13.5298 32.2098 15.5028 32.2098C17.4758 32.2098 19.0818 30.6038 19.0818 28.6308C19.0818 26.6578 17.4758 25.0518 15.5028 25.0518Z" fill="#EEF0F4"/>
<path fill-rule="evenodd" clip-rule="evenodd" d="M32.337 28.2925H20.912C20.912 25.1855 18.393 22.6665 15.286 22.6665C14.661 22.6665 14.062 22.7725 13.5 22.9605V19.2865C13.5 18.1965 14.468 17.3605 15.546 17.5195L36.265 20.5665C37.142 20.6955 37.791 21.4475 37.791 22.3335V24.0475C37.447 23.9605 37.09 23.9105 36.719 23.9105C34.299 23.9105 32.337 25.8725 32.337 28.2925Z" fill="#EEF0F4"/>
<path fill-rule="evenodd" clip-rule="evenodd" d="M15.5032 33.3919C12.8782 33.3919 10.7422 31.2559 10.7422 28.6309C10.7422 26.0059 12.8782 23.8699 15.5032 23.8699C18.1282 23.8699 20.2642 26.0059 20.2642 28.6309C20.2642 31.2559 18.1282 33.3919 15.5032 33.3919ZM15.5032 25.052C13.5302 25.052 11.9242 26.658 11.9242 28.631C11.9242 30.604 13.5302 32.21 15.5032 32.21C17.4762 32.21 19.0822 30.604 19.0822 28.631C19.0822 26.658 17.4762 25.052 15.5032 25.052ZM36.9359 32.1952C34.9709 32.1952 33.3719 30.5962 33.3719 28.6312C33.3719 26.6662 34.9709 25.0672 36.9359 25.0672C38.9009 25.0672 40.4999 26.6662 40.4999 28.6312C40.4999 30.5972 38.9009 32.1952 36.9359 32.1952ZM36.9359 26.25C35.6229 26.25 34.5539 27.318 34.5539 28.631C34.5539 29.945 35.6219 31.013 36.9359 31.013C38.2489 31.013 39.3169 29.945 39.3169 28.631C39.3179 27.318 38.2489 26.25 36.9359 26.25ZM32.553 29.223H21.129V28.041H32.553V29.223ZM38.599 24.381H37.417V22.673C37.417 22.084 36.978 21.575 36.397 21.49L15.679 18.443C15.336 18.393 14.987 18.494 14.723 18.722C14.46 18.949 14.309 19.278 14.309 19.626V23.295H13.127V19.626C13.127 18.935 13.427 18.28 13.949 17.828C14.458 17.388 15.128 17.186 15.793 17.265L4.244 8.682H0.5V7.5H4.635L17.009 16.697V15.985C17.009 15.068 17.755 14.322 18.672 14.322H20.489V12.267H19.659V11.085H32.688V12.267H31.637V14.322H33.675C34.592 14.322 35.338 15.068 35.338 15.985V20.14L36.568 20.321C37.726 20.491 38.598 21.503 38.598 22.674V24.381H38.599ZM18.1914 17.6177L34.1554 19.9657V15.9847C34.1554 15.7197 33.9394 15.5047 33.6744 15.5047H18.6724C18.4074 15.5047 18.1914 15.7207 18.1914 15.9847V17.6177ZM21.6711 14.3214H30.4541V12.2664H21.6711V14.3214Z" fill="#313133"/>
<path fill-rule="evenodd" clip-rule="evenodd" d="M36.9357 26.25C35.6227 26.25 34.5537 27.318 34.5537 28.631C34.5537 29.945 35.6217 31.013 36.9357 31.013C38.2487 31.013 39.3167 29.945 39.3167 28.631C39.3177 27.318 38.2487 26.25 36.9357 26.25Z" fill="#EEF0F4"/>
</svg>
