<svg width="40" height="40" viewBox="0 0 40 40" fill="none" xmlns="http://www.w3.org/2000/svg">
<path fill-rule="evenodd" clip-rule="evenodd" d="M10.2696 35.4941L10.2596 35.5041C10.2696 35.5141 10.2796 35.5241 10.2896 35.5341C10.2796 35.5241 10.2696 35.5141 10.2696 35.4941ZM10.3205 35.5539V35.5639L10.3305 35.5539H10.3205ZM20.3902 3.67383L0.950195 21.2338H4.9602L6.6402 19.7138L20.2202 7.46383L20.3902 7.31383L33.2802 18.9338L34.5802 20.1038L35.8302 21.2338H39.8102L20.3902 3.67383ZM28.7702 20.8139C28.7702 21.8339 28.3702 22.7939 27.6502 23.5139C26.9302 24.2339 25.9702 24.6339 24.9502 24.6339C24.5902 24.6339 24.2402 24.5839 23.8902 24.4939L23.8002 24.4639L22.6502 25.6039L22.2802 25.9839L12.7602 35.5039C12.4302 35.8339 11.9802 36.0139 11.5102 36.0239C11.0702 36.0239 10.6002 35.7939 10.2702 35.4939C9.9702 35.1639 9.8002 34.7539 9.8002 34.3139C9.8102 33.8439 9.9902 33.3939 10.3202 33.0639L19.8402 23.5439L20.2202 23.1739L21.3602 22.0239L21.3402 21.9339C21.2402 21.5839 21.1902 21.2339 21.1902 20.8739C21.1902 19.8539 21.5902 18.8939 22.3102 18.1739C23.0302 17.4539 23.9902 17.0539 25.0102 17.0539C25.3602 17.0539 25.7002 17.1039 26.0402 17.2039C26.0802 17.2139 26.1202 17.2339 26.1502 17.2639C26.2502 17.3639 26.2502 17.5439 26.1502 17.6439L24.0302 19.7639C23.9502 19.8539 23.9502 20.0539 24.0302 20.2939C24.1302 20.5939 24.3602 20.9339 24.6502 21.2339C24.9502 21.5239 25.2302 21.6939 25.5302 21.7939C25.7702 21.8739 25.9702 21.8739 26.0602 21.7939L28.1802 19.6739C28.2802 19.5739 28.4602 19.5739 28.5602 19.6739C28.5902 19.7039 28.6102 19.7439 28.6202 19.7839C28.7202 20.1239 28.7702 20.4639 28.7702 20.8139Z" fill="#EEF0F4"/>
<path fill-rule="evenodd" clip-rule="evenodd" d="M39.8121 20.486L35.0931 16.219V8.43002H36.0451C36.3611 8.43002 36.6161 8.17402 36.6161 7.85902V5.41302C36.6161 5.09702 36.3601 4.84202 36.0451 4.84202H28.3041C27.9881 4.84202 27.7331 5.09802 27.7331 5.41302V7.85902C27.7331 8.17502 27.9891 8.43002 28.3041 8.43002H29.2561V10.942L20.3941 2.92802C20.1771 2.73102 19.8461 2.73102 19.6281 2.92802L0.189139 20.486C0.0141393 20.644 -0.0458607 20.895 0.0391393 21.115C0.124139 21.335 0.336139 21.481 0.572139 21.481H4.58014C4.72114 21.481 4.85814 21.429 4.96314 21.334L6.02014 20.38V36.807H7.16314V19.349L20.0101 7.75502L32.8611 19.347V36.807H34.0041V20.377L35.0651 21.335C35.1701 21.43 35.3061 21.482 35.4481 21.482H39.4291C39.6651 21.482 39.8771 21.337 39.9621 21.116C40.0471 20.895 39.9871 20.645 39.8121 20.486ZM28.876 7.28757V5.98457H35.474V7.28757H28.876ZM33.9502 8.42988V15.1859L30.4002 11.9759V8.42988H33.9502ZM35.668 20.3391L20.395 6.56207C20.178 6.36707 19.85 6.36607 19.632 6.56007L4.36001 20.3391H2.05801L20.012 4.12207L37.945 20.3381H35.668V20.3391ZM25.0353 24.5031C26.2073 24.5031 27.3093 24.0471 28.1393 23.2181C28.9683 22.3881 29.4243 21.2861 29.4243 20.1131C29.4243 19.7111 29.3693 19.3131 29.2603 18.9231C29.2213 18.7881 29.1513 18.6691 29.0483 18.5631C28.7403 18.2531 28.1713 18.2511 27.8583 18.5621L25.8573 20.5651C25.8413 20.5611 25.8223 20.5561 25.8013 20.5481L25.6673 20.5041C25.4863 20.4461 25.4533 20.4361 25.3003 20.2861L25.1423 20.1281C24.9133 19.8941 24.7323 19.6241 24.6583 19.4061C24.6513 19.3841 24.6453 19.3651 24.6413 19.3491L26.6443 17.3461C26.7983 17.1911 26.8873 16.9751 26.8873 16.7521C26.8873 16.5281 26.7983 16.3121 26.6383 16.1521C26.5363 16.0531 26.4163 15.9831 26.2773 15.9431C25.8933 15.8351 25.4953 15.7811 25.0933 15.7811C23.9213 15.7811 22.8183 16.2371 21.9883 17.0671C21.1603 17.8971 20.7033 18.9991 20.7033 20.1701C20.7033 20.5001 20.7403 20.8271 20.8133 21.1481L18.0403 23.9211L15.9943 21.8751L15.7113 20.4631C15.6813 20.3141 15.5943 20.1841 15.4683 20.1001L11.6733 17.5701C11.4463 17.4191 11.1453 17.4491 10.9523 17.6411L9.68729 18.9061C9.49429 19.0991 9.46529 19.4001 9.61629 19.6271L12.1463 23.4221C12.2303 23.5481 12.3613 23.6361 12.5093 23.6651L13.9253 23.9481C14.1613 24.1871 14.7093 24.7351 15.9673 25.9931L10.0053 31.9551C9.56529 32.3951 9.32229 32.9821 9.32129 33.6071C9.32129 34.2031 9.54329 34.7651 9.94929 35.1991L9.94829 35.2001C9.95829 35.2101 9.96929 35.2211 9.97929 35.2311C9.98829 35.2401 9.99629 35.2481 10.0053 35.2571L10.0063 35.2561C10.4403 35.6621 11.0023 35.8841 11.5993 35.8841C12.2233 35.8831 12.8103 35.6401 13.2513 35.2001L17.9153 30.5351C17.9483 30.6981 17.9843 30.8761 18.0263 31.0811C18.0813 31.3471 18.3153 31.5381 18.5863 31.5381H18.5873C18.5873 31.5381 19.7443 31.5381 20.2463 31.5371L25.1403 36.4311C25.5013 36.7921 25.9823 36.9911 26.4933 36.9911C27.0043 36.9911 27.4853 36.7921 27.8463 36.4311L28.4783 35.7991C28.8393 35.4381 29.0383 34.9571 29.0383 34.4461C29.0383 33.9351 28.8393 33.4541 28.4783 33.0931L23.5833 28.2001C23.5833 27.6981 23.5843 26.5411 23.5843 26.5411C23.5843 26.2691 23.3933 26.0351 23.1273 25.9801C22.9223 25.9381 22.7443 25.9021 22.5813 25.8691L24.0573 24.3931C24.3773 24.4661 24.7053 24.5031 25.0353 24.5031ZM14.608 23.0198C14.528 22.9398 14.426 22.8848 14.315 22.8618L12.965 22.5918L10.826 19.3838L11.428 18.7818L14.636 20.9208L14.906 22.2698C14.928 22.3798 14.982 22.4818 15.062 22.5618L17.023 24.5228L16.575 24.9888C15.903 24.3148 14.636 23.0478 14.608 23.0198ZM27.6691 33.9018C27.9691 34.2018 27.9691 34.6908 27.6691 34.9908L27.0361 35.6228C26.7451 35.9138 26.2381 35.9138 25.9471 35.6228L20.9011 30.5778C20.7481 30.4128 20.7311 30.3948 19.2271 30.3948C19.1711 30.3948 19.1121 30.3948 19.0511 30.3948C18.9871 30.0798 18.9271 29.7818 18.8861 29.5758L21.6211 26.8408C21.8271 26.8818 22.1251 26.9418 22.4401 27.0058C22.4391 28.6718 22.4511 28.6838 22.6081 28.8408L27.6691 33.9018ZM23.4809 23.3517L12.4419 34.3927C12.2169 34.6177 11.9159 34.7417 11.5969 34.7427C11.2929 34.7427 11.0069 34.6297 10.7849 34.4227C10.5759 34.2007 10.4619 33.9127 10.4619 33.6097C10.4629 33.2897 10.5869 32.9897 10.8119 32.7647L21.8529 21.7247C21.9999 21.5777 22.0559 21.3617 21.9979 21.1617L21.9709 21.0677C21.8879 20.7767 21.8459 20.4747 21.8459 20.1707C21.8459 19.3037 22.1839 18.4887 22.7959 17.8757C23.4899 17.1817 24.4649 16.8427 25.4319 16.9417L23.7029 18.6707C23.4659 18.9227 23.4199 19.3137 23.5759 19.7727C23.7069 20.1567 23.9739 20.5677 24.3269 20.9287L24.7349 20.5287L24.3309 20.9327L24.4959 21.0977C24.8219 21.4167 25.0329 21.5007 25.3169 21.5917L25.4329 21.6297C25.8909 21.7847 26.2809 21.7387 26.5459 21.4897L28.2629 19.7727C28.2749 19.8847 28.2799 19.9977 28.2799 20.1117C28.2799 20.9787 27.9419 21.7947 27.3299 22.4077C26.7159 23.0207 25.9009 23.3587 25.0339 23.3587C24.7299 23.3587 24.4279 23.3167 24.1389 23.2337L24.0439 23.2057C23.8449 23.1487 23.6289 23.2047 23.4809 23.3517Z" fill="#313133"/>
</svg>
