<svg width="40" height="40" viewBox="0 0 40 40" fill="none" xmlns="http://www.w3.org/2000/svg">
<path fill-rule="evenodd" clip-rule="evenodd" d="M21.4448 19.3442H6.87278C3.53378 19.3442 0.800781 16.6122 0.800781 13.2722C0.800781 9.9332 3.53278 7.2002 6.87278 7.2002H21.4448C21.6448 7.2002 21.8088 7.3642 21.8088 7.5642V18.9802C21.8098 19.1802 21.6458 19.3442 21.4448 19.3442Z" fill="#EEF0F4"/>
<path fill-rule="evenodd" clip-rule="evenodd" d="M5.69141 10.3955V11.5055H11.0614V10.3955H5.69141ZM5.69141 14.7656V15.8756H11.0614V14.7656H5.69141ZM5.69141 15.8756H11.0614V14.7656H5.69141V15.8756ZM5.69141 10.3955V11.5055H11.0614V10.3955H5.69141ZM25.57 12.5803V9.44531C25.57 8.96531 25.16 8.57531 24.65 8.57531H22.12V7.36531C22.12 6.86531 21.71 6.44531 21.2 6.44531H6.63C2.97 6.44531 0 9.42531 0 13.0753C0 16.4553 2.54 19.2453 5.81 19.6553V29.1653H4.55C4.24 29.1653 3.99 29.4153 3.99 29.7153V32.9953C3.99 33.3053 4.24 33.5553 4.55 33.5553H14.61C14.92 33.5553 15.17 33.3053 15.17 32.9953V29.7153C15.17 29.4153 14.92 29.1653 14.61 29.1653H13.35V23.9653H15.61C16.92 23.9653 17.99 22.9053 17.99 21.5953V19.7053H21.2C21.71 19.7053 22.12 19.2853 22.12 18.7853V17.6953H24.65C25.16 17.6953 25.57 17.3053 25.57 16.8253V13.6903H40V12.5803H25.57ZM14.0596 30.2754V32.4454H5.09961V30.2754H14.0596ZM6.91992 29.1651V19.7051H12.2299V29.1651H6.91992ZM16.8796 21.5951C16.8796 22.2851 16.3096 22.8551 15.6096 22.8551H13.3496V19.7051H16.8796V21.5951ZM21.0094 18.5957H12.8694C12.8494 18.5857 12.8194 18.5857 12.7894 18.5857H6.35938C3.43937 18.4457 1.10938 16.0257 1.10938 13.0757C1.10938 10.0357 3.58938 7.55566 6.62937 7.55566H21.0094V18.5957ZM24.4611 16.5855H22.1211V9.68555H24.4611V16.5855ZM5.69141 15.8756H11.0614V14.7656H5.69141V15.8756ZM5.69141 11.5055H11.0614V10.3955H5.69141V11.5055Z" fill="#313133"/>
</svg>
