<svg width="40" height="40" viewBox="0 0 40 40" fill="none" xmlns="http://www.w3.org/2000/svg">
<g clip-path="url(#clip0_2847_44802)">
<path fill-rule="evenodd" clip-rule="evenodd" d="M38.3826 38.4002H2.41781C1.74528 38.4002 1.2002 37.8517 1.2002 37.175V2.42544C1.2002 1.7487 1.74528 1.2002 2.41781 1.2002H38.3826C39.0551 1.2002 39.6002 1.7487 39.6002 2.42544V37.175C39.6002 37.8517 39.0551 38.4002 38.3826 38.4002ZM20.4003 33.3398C27.8314 33.3398 33.8558 27.2778 33.8558 19.8001C33.8558 12.3225 27.8314 6.26036 20.4003 6.26036C12.9692 6.26036 6.94488 12.322 6.94488 19.8001C6.94488 27.2782 12.9688 33.3398 20.4003 33.3398Z" fill="#EEF0F4"/>
<path fill-rule="evenodd" clip-rule="evenodd" d="M2.19504 39.2004H37.805C39.0155 39.2004 40.0004 38.2095 40 36.9915V2.60888C40 1.39091 39.0155 0.400391 37.805 0.400391H2.19504C0.984491 0.400391 0 1.39132 0 2.60929V36.9915C0 38.2095 0.984491 39.2004 2.19504 39.2004ZM1.46349 2.60902C1.46349 2.2033 1.79138 1.87299 2.19503 1.87299V1.8734H37.805C38.2082 1.8734 38.5365 2.2033 38.5365 2.60943V36.9917C38.5365 37.3974 38.2086 37.7277 37.805 37.7277H2.19503C1.79179 37.7277 1.46349 37.3978 1.46349 36.9917V2.60902ZM20.0002 34.1228C12.1508 34.1228 5.76474 27.6977 5.76474 19.8006C5.76474 11.9035 12.1508 5.47834 20.0002 5.47834C27.8497 5.47834 34.2352 11.903 34.2352 19.8002C34.2352 27.6973 27.8497 34.1228 20.0002 34.1228ZM20.7316 32.6293C27.4353 32.2466 32.772 26.6386 32.772 19.8001C32.772 12.9615 27.4353 7.354 20.7316 6.97082H19.2686C12.5649 7.354 7.22823 12.9619 7.22823 19.8001C7.22823 26.6382 12.5649 32.2466 19.2681 32.6293H20.7316Z" fill="#313133"/>
<path d="M20.6004 22.8004C21.8154 22.8004 22.8004 21.8154 22.8004 20.6004C22.8004 19.3854 21.8154 18.4004 20.6004 18.4004C19.3854 18.4004 18.4004 19.3854 18.4004 20.6004C18.4004 21.8154 19.3854 22.8004 20.6004 22.8004Z" fill="#EEF0F4"/>
<path d="M20.1044 16.3304C20.5883 16.3304 21.0319 16.4505 21.4756 16.6107C21.6369 16.1701 21.8385 15.6895 22.1611 15.249C22.6048 14.6482 23.25 14.0475 24.0969 13.6871C24.2583 13.6069 24.4196 13.4867 24.5406 13.3667C24.7422 13.1663 24.8632 12.886 24.8632 12.6057C24.9035 12.2853 24.8229 11.9248 24.6616 11.6044C24.5406 11.324 24.3389 11.0437 24.0969 10.8034C23.492 10.2427 22.2822 9.76209 20.9109 9.72201C19.9027 9.68202 18.8138 9.92233 17.8862 10.6833C17.8056 10.7633 17.6846 10.8435 17.6443 10.9236C16.999 11.6445 16.999 12.7258 17.2813 13.7671C17.5637 14.9286 18.1686 16.0099 18.6121 16.5706L18.6929 16.6508C19.1364 16.4505 19.6205 16.3304 20.1044 16.3304ZM23.4114 18.5331C24.2986 18.4129 25.7102 18.453 27.0006 18.7734C28.4121 19.1739 29.7431 19.975 30.227 21.3766C30.2674 21.5369 30.3076 21.7371 30.348 21.9373C30.5496 23.4593 30.1464 24.781 29.5011 25.9024C28.6139 27.3041 27.2829 28.3054 26.1941 28.6258C25.7102 28.7859 25.1859 28.826 24.7018 28.7859C24.1373 28.7059 23.5726 28.5457 23.1291 28.2252C22.6854 27.9049 22.3224 27.4643 22.1208 26.9036C22.0401 26.5832 21.9999 26.2228 22.0401 25.8222C22.0805 25.1414 21.9999 24.5807 21.7982 24.1401C21.6369 23.8197 21.4352 23.5394 21.2336 23.2991C20.8707 23.4192 20.5077 23.4994 20.1044 23.4994C19.943 23.4994 19.7817 23.4593 19.6205 23.4593C19.6205 23.4994 19.5801 23.5394 19.5397 23.6195C19.2172 24.5006 18.4509 25.7421 17.4829 26.7034C16.4344 27.7447 15.1035 28.4655 13.692 28.2252C13.4904 28.1853 13.2887 28.1452 13.0467 28.025C11.6352 27.4643 10.6673 26.4631 10.0624 25.3417C9.2558 23.8598 9.05416 22.2177 9.29613 21.1363C9.41712 20.6558 9.61877 20.1752 9.90107 19.7746C10.264 19.2941 10.7077 18.9336 11.1916 18.6933C11.6756 18.453 12.2805 18.3729 12.8451 18.4931C13.1677 18.5732 13.5307 18.7334 13.8533 18.9336C14.4583 19.3742 15.0229 19.5744 15.5875 19.5744C15.9102 19.6145 16.2327 19.5744 16.5554 19.4943C16.6361 18.6933 16.999 17.9324 17.5637 17.3716H17.6039C17.0797 16.6908 16.3537 15.4492 16.0311 14.1276C15.6278 12.6858 15.6682 11.1639 16.636 10.0425C16.7974 9.92233 16.9184 9.76209 17.0797 9.64194C18.2895 8.72079 19.6607 8.40039 20.9513 8.40039C22.6048 8.48049 24.1776 9.1213 24.9842 9.88225C25.3471 10.2026 25.6698 10.6432 25.8714 11.0838C26.1134 11.6044 26.2344 12.1651 26.1941 12.6857C26.1134 13.2465 25.9118 13.8072 25.5085 14.2478C25.2665 14.4881 24.9842 14.6883 24.6212 14.8485C24.0163 15.1288 23.5726 15.5694 23.2097 16.0099C22.8871 16.4505 22.6854 16.9311 22.6048 17.3316L22.6451 17.3716C22.9677 17.6921 23.25 18.0925 23.4114 18.5331ZM22.4032 22.6583C22.6048 22.9387 22.8064 23.2591 22.9677 23.6195C23.25 24.2603 23.4114 25.0212 23.3307 25.9424C23.2904 26.1427 23.3307 26.3429 23.371 26.5031C23.4516 26.7835 23.6534 27.0238 23.8953 27.1839C24.1373 27.3442 24.4599 27.4643 24.8229 27.5044C25.1455 27.5044 25.5085 27.5044 25.8311 27.3842C26.6377 27.1439 27.6863 26.3429 28.3719 25.2215C28.8961 24.3404 29.2188 23.299 29.0574 22.1377C29.0172 22.0175 29.0172 21.8974 28.9768 21.7772C28.6541 20.856 27.6863 20.3353 26.6377 20.055C25.5892 19.7346 24.4599 19.6946 23.6936 19.7746C23.6936 19.8147 23.6936 19.8548 23.6936 19.8948C23.6936 20.8961 23.2904 21.7772 22.6451 22.418C22.5644 22.5381 22.4838 22.5782 22.4032 22.6583ZM16.636 20.8159C16.2731 20.856 15.9102 20.8961 15.5068 20.8961C14.7406 20.856 13.934 20.6157 13.0871 20.0149C12.9257 19.8948 12.7241 19.8147 12.5628 19.7746C12.2805 19.6946 11.9982 19.7346 11.7159 19.8948C11.4336 20.0149 11.1916 20.2553 10.9899 20.5357C10.7883 20.776 10.6673 21.0963 10.5867 21.4167C10.385 22.2578 10.5463 23.5393 11.1916 24.7008C11.6756 25.5819 12.4418 26.423 13.5307 26.8236C13.6517 26.9036 13.813 26.9437 13.934 26.9437C14.8616 27.1038 15.7892 26.5432 16.5554 25.7822C17.4023 24.9411 18.0476 23.8998 18.3299 23.1389L18.3702 23.0588C18.0879 22.8986 17.8056 22.6583 17.5637 22.418C17.12 21.9774 16.7974 21.4167 16.636 20.8159ZM21.7175 18.2928C21.3142 17.8923 20.7497 17.652 20.1044 17.652C19.4591 17.652 18.8945 17.8923 18.4912 18.2928C18.0879 18.6933 17.8056 19.2941 17.8056 19.8948C17.8056 20.5357 18.0879 21.0963 18.4912 21.5369C18.8945 21.9373 19.4994 22.1776 20.1044 22.1776C20.7497 22.1776 21.3142 21.9373 21.7175 21.5369C22.1611 21.0963 22.4032 20.5357 22.4032 19.8948C22.4032 19.2941 22.1611 18.6933 21.7175 18.2928Z" fill="#313133"/>
</g>
<defs>
<clipPath id="clip0_2847_44802">
<rect width="40" height="40" fill="white"/>
</clipPath>
</defs>
</svg>
