<svg width="40" height="40" viewBox="0 0 40 40" fill="none" xmlns="http://www.w3.org/2000/svg">
<path fill-rule="evenodd" clip-rule="evenodd" d="M39.2216 20.6976L19.8712 3.5L0.5 20.6976H4.8072L19.8712 7.152L34.918 20.6976H39.2216Z" fill="#EEF0F4"/>
<path fill-rule="evenodd" clip-rule="evenodd" d="M39.6337 20.2039L20.2833 3.00631C20.0761 2.82231 19.7633 2.82191 19.5557 3.00631L0.18411 20.2035C0.0141103 20.3547 -0.0450897 20.5951 0.0357103 20.8075C0.11651 21.0203 0.32051 21.1611 0.54771 21.1611H4.85491C4.99011 21.1611 5.12051 21.1111 5.22131 21.0207L5.87691 20.4311V36.0363H1.55331V37.1319H37.8001V36.0363H33.4985V20.0295L34.5993 21.0207C34.6997 21.1111 34.8305 21.1611 34.9657 21.1611H39.2693C39.4965 21.1611 39.7005 21.0207 39.7813 20.8079C39.8625 20.5955 39.8033 20.3551 39.6337 20.2039ZM32.4031 36.0365H6.97266V19.4461L19.9195 7.80488L32.4035 19.0437V36.0365H32.4031ZM35.1758 20.0654L20.2854 6.66064C20.077 6.47304 19.761 6.47304 19.5526 6.66064L4.64464 20.0654H1.98984L19.919 4.14824L37.8286 20.0654H35.1758Z" fill="#313133"/>
<path fill-rule="evenodd" clip-rule="evenodd" d="M15.0739 19.2918C15.4647 19.4979 15.6144 19.9818 15.4083 20.3726C15.1702 20.8241 14.8086 21.5782 14.5089 22.3509C14.1958 23.158 14.0004 23.8622 14.0004 24.266C14.0004 24.6749 14.1979 25.0071 14.6832 25.6513C14.7108 25.6879 14.7391 25.7252 14.7679 25.7633C15.2195 26.3601 15.8087 27.1387 16.2055 28.2673C16.6017 29.3939 16.3356 30.5117 15.9321 31.3774C15.527 32.2466 14.9372 32.9664 14.5009 33.38C14.1803 33.6839 13.6739 33.6704 13.3699 33.3498C13.066 33.0291 13.0795 32.5228 13.4002 32.2188C13.7141 31.9212 14.1745 31.361 14.4819 30.7014C14.7911 30.0382 14.9001 29.3782 14.6961 28.7981C14.384 27.9103 13.9291 27.3078 13.4744 26.7056C13.4514 26.6751 13.4284 26.6446 13.4054 26.6141C12.9531 26.0138 12.4004 25.2794 12.4004 24.266C12.4004 23.5321 12.705 22.5771 13.0171 21.7723C13.3426 20.9332 13.7311 20.1228 13.9931 19.6262C14.1992 19.2354 14.6831 19.0856 15.0739 19.2918Z" fill="#313133"/>
<path fill-rule="evenodd" clip-rule="evenodd" d="M20.7725 19.267C21.177 19.4448 21.3608 19.9168 21.183 20.3213C20.9838 20.7745 20.6814 21.5312 20.4305 22.3077C20.1705 23.1122 20.0004 23.8353 20.0004 24.2661C20.0004 24.7215 20.185 25.0765 20.5812 25.7073C20.6039 25.7435 20.6271 25.7803 20.6507 25.8178C21.0287 26.4174 21.516 27.1903 21.8435 28.3078C22.1612 29.3919 21.9512 30.4721 21.6183 31.3291C21.2843 32.189 20.7948 32.9085 20.4264 33.3276C20.1346 33.6594 19.6292 33.692 19.2973 33.4003C18.9655 33.1086 18.933 32.6031 19.2247 32.2712C19.4813 31.9793 19.867 31.4188 20.1269 30.7498C20.3879 30.0778 20.4905 29.3802 20.308 28.7577C20.0447 27.8589 19.6621 27.2509 19.2854 26.6525C19.2657 26.621 19.2459 26.5896 19.2261 26.5582C18.8409 25.9446 18.4004 25.2329 18.4004 24.2661C18.4004 23.5591 18.6471 22.623 18.908 21.8156C19.178 20.9802 19.5007 20.1725 19.7183 19.6775C19.8961 19.273 20.3681 19.0893 20.7725 19.267Z" fill="#313133"/>
<path fill-rule="evenodd" clip-rule="evenodd" d="M26.5702 19.318C26.9465 19.5495 27.0638 20.0423 26.8323 20.4186C26.555 20.8693 26.1342 21.6215 25.7858 22.3913C25.6118 22.776 25.4613 23.153 25.3556 23.4913C25.2466 23.8401 25.2006 24.1001 25.2006 24.266C25.2006 24.6308 25.4065 24.9453 25.986 25.6045C26.0186 25.6415 26.0519 25.6793 26.086 25.7178C26.6105 26.3118 27.3001 27.0928 27.7663 28.229C28.2451 29.3963 27.9178 30.5512 27.4445 31.4215C26.9688 32.2963 26.2807 33.0136 25.7802 33.4202C25.4373 33.6988 24.9335 33.6467 24.6549 33.3038C24.3763 32.9609 24.4284 32.4571 24.7713 32.1785C25.146 31.874 25.6831 31.3113 26.0389 30.6571C26.397 29.9986 26.5073 29.3757 26.286 28.8363C25.9248 27.9559 25.3962 27.3557 24.8624 26.7495C24.8364 26.72 24.8103 26.6905 24.7843 26.6609L24.7712 26.6459C24.2585 26.0628 23.6006 25.3145 23.6006 24.266C23.6006 23.863 23.7004 23.4238 23.8284 23.0141C23.9598 22.5938 24.1375 22.1531 24.3281 21.7318C24.7091 20.8898 25.1635 20.0776 25.4696 19.5801C25.7012 19.2038 26.1939 19.0864 26.5702 19.318Z" fill="#313133"/>
</svg>
