<svg width="40" height="40" viewBox="0 0 40 40" fill="none" xmlns="http://www.w3.org/2000/svg">
<path fill-rule="evenodd" clip-rule="evenodd" d="M1.45996 4.73926V37.5773H37.979V4.73926H1.45996ZM24.0435 7.08613C25.0415 7.08613 25.8505 7.89513 25.8505 8.89313C25.8505 9.89113 25.0415 10.7001 24.0435 10.7001C23.0455 10.7001 22.2365 9.89113 22.2365 8.89313C22.2365 7.89513 23.0455 7.08613 24.0435 7.08613ZM31.0209 7.08613C32.0189 7.08613 32.8279 7.89513 32.8279 8.89313C32.8279 9.89113 32.0189 10.7001 31.0209 10.7001C30.0229 10.7001 29.2139 9.89113 29.2139 8.89313C29.2139 7.89513 30.0239 7.08613 31.0209 7.08613ZM16.4349 7.08613C17.4329 7.08613 18.2419 7.89513 18.2419 8.89313C18.2419 9.89113 17.4329 10.7001 16.4349 10.7001C15.4369 10.7001 14.6279 9.89113 14.6279 8.89313C14.6279 7.89513 15.4369 7.08613 16.4349 7.08613ZM8.82634 7.08613C9.82434 7.08613 10.6333 7.89513 10.6333 8.89313C10.6333 9.89113 9.82434 10.7001 8.82634 10.7001C7.82834 10.7001 7.01934 9.89113 7.01934 8.89313C7.01934 7.89513 7.82834 7.08613 8.82634 7.08613ZM31.8916 33.4927H7.80762V16.0627H31.8916V33.4927Z" fill="#EEF0F4"/>
<path fill-rule="evenodd" clip-rule="evenodd" d="M38.5243 4.09219H0.822266V38.1132H3.51027V40.0002H4.69227V38.1132H35.1163V40.0002H36.2983V38.1132H38.5233V4.09219H38.5243ZM37.3411 5.27422V12.5672H2.00508V5.27422H37.3411ZM2.00508 36.93V13.75H37.3421V36.93H2.00508ZM6.14883 34.4382H32.4378V15.8262H6.14883V34.4382ZM7.33008 17.0078H31.2551V33.2548H7.33008V17.0078ZM30.9765 11.6456C32.2985 11.6456 33.3745 10.5696 33.3745 9.24761C33.3745 7.92561 32.2985 6.84961 30.9765 6.84961C29.6545 6.84961 28.5785 7.92561 28.5785 9.24761C28.5785 10.5706 29.6535 11.6456 30.9765 11.6456ZM30.9773 8.0332C31.6473 8.0332 32.1933 8.5782 32.1933 9.2492C32.1933 9.9202 31.6483 10.4652 30.9773 10.4652C30.3063 10.4652 29.7613 9.9192 29.7613 9.2482C29.7613 8.5772 30.3063 8.0332 30.9773 8.0332ZM15.9796 11.6456C17.3016 11.6456 18.3776 10.5696 18.3776 9.24761C18.3776 7.92561 17.3016 6.84961 15.9796 6.84961C14.6576 6.84961 13.5816 7.92561 13.5816 9.24761C13.5816 10.5706 14.6566 11.6456 15.9796 11.6456ZM15.9797 8.0332C16.6497 8.0332 17.1957 8.5782 17.1957 9.2492C17.1957 9.9202 16.6507 10.4652 15.9797 10.4652C15.3087 10.4652 14.7637 9.9202 14.7637 9.2492C14.7637 8.5782 15.3087 8.0332 15.9797 8.0332ZM23.5875 11.6456C24.9095 11.6456 25.9855 10.5696 25.9855 9.24761C25.9855 7.92561 24.9095 6.84961 23.5875 6.84961C22.2655 6.84961 21.1895 7.92561 21.1895 9.24761C21.1895 10.5706 22.2645 11.6456 23.5875 11.6456ZM23.5867 8.03281C24.2567 8.03281 24.8027 8.57781 24.8027 9.24881C24.8027 9.91981 24.2577 10.4648 23.5867 10.4648C22.9167 10.4648 22.3707 9.91981 22.3707 9.24881C22.3707 8.57781 22.9157 8.03281 23.5867 8.03281ZM8.37183 11.6456C9.69383 11.6456 10.7698 10.5696 10.7698 9.24761C10.7698 7.92561 9.69383 6.84961 8.37183 6.84961C7.04983 6.84961 5.97383 7.92561 5.97383 9.24761C5.97383 10.5706 7.04883 11.6456 8.37183 11.6456ZM8.37108 8.03281C9.04108 8.03281 9.58708 8.57781 9.58708 9.24881C9.58708 9.91981 9.04208 10.4648 8.37108 10.4648C7.70008 10.4648 7.15508 9.91881 7.15508 9.24781C7.15508 8.57681 7.70008 8.03281 8.37108 8.03281ZM11.3051 19.4406H27.2821V20.6226H11.3051V19.4406ZM33.6049 2.182H23.6199V1H33.6049V2.182ZM14.9651 2.182H4.98008V1H14.9651V2.182Z" fill="#313133"/>
</svg>
