<svg width="40" height="40" viewBox="0 0 40 40" fill="none" xmlns="http://www.w3.org/2000/svg">
<path fill-rule="evenodd" clip-rule="evenodd" d="M8.00117 36.3994C6.45516 36.3994 5.20117 35.1041 5.20117 33.5072V22.3994H10.8012V33.5072C10.8012 35.1041 9.54801 36.3994 8.00117 36.3994Z" fill="#EEF0F4"/>
<path fill-rule="evenodd" clip-rule="evenodd" d="M7.73167 36.6738H7.73081C5.8944 36.6738 4.40039 35.1798 4.40039 33.3434V22.282C4.40039 22.0332 4.60205 21.8307 4.85177 21.8307H5.29972V20.0758C5.29972 19.8269 5.50138 19.6244 5.75109 19.6244H6.20247V9.9884L5.33576 7.96749C5.29972 7.88254 5.29028 7.789 5.3083 7.69889L6.24195 3.16108C6.28485 2.94998 6.47021 2.7998 6.68389 2.7998H8.77859C8.99313 2.7998 9.17763 2.94998 9.22053 3.16022L10.1542 7.69804C10.1731 7.78814 10.1636 7.88254 10.1267 7.96663L9.26086 9.98754V19.6235H9.71224C9.96196 19.6235 10.1636 19.8261 10.1636 20.0749V21.8298H10.6116C10.8613 21.8298 11.0629 22.0323 11.0629 22.2812V33.3425C11.0629 35.1798 9.56808 36.6738 7.73167 36.6738ZM5.30273 22.7314V33.3414C5.30273 34.6801 6.39171 35.7699 7.73126 35.7699H7.73211C9.0708 35.7699 10.1606 34.681 10.1606 33.3414V22.7314H5.30273ZM6.20117 21.8307H9.26042V20.5271H6.20117V21.8307ZM7.10547 19.6243H8.3592V10.3213H7.10547V19.6243ZM6.93896 9.41904H8.52222L9.24134 7.74139L8.41066 3.70215H7.05138L6.2207 7.74139L6.93896 9.41904ZM8.18401 33.2634H7.28125V24.4375H8.18401V33.2634Z" fill="#313133"/>
<path d="M14 2.4C14 2.17909 14.1791 2 14.4 2H35.2C35.4209 2 35.6 2.17909 35.6 2.4V37.2C35.6 37.4209 35.4209 37.6 35.2 37.6H14.4C14.1791 37.6 14 37.4209 14 37.2V2.4Z" fill="#EEF0F4"/>
<path fill-rule="evenodd" clip-rule="evenodd" d="M15.2 3.2V36.4H34.4V3.2H15.2ZM14.4 2C14.1791 2 14 2.17909 14 2.4V37.2C14 37.4209 14.1791 37.6 14.4 37.6H35.2C35.4209 37.6 35.6 37.4209 35.6 37.2V2.4C35.6 2.17909 35.4209 2 35.2 2H14.4Z" fill="#313133"/>
<path fill-rule="evenodd" clip-rule="evenodd" d="M21.1445 17.0426C21.1445 14.8295 22.9841 13.4004 24.5959 13.4004C26.2442 13.4004 27.9517 14.9448 28.0467 17.0151C28.1139 18.4781 27.2147 19.4816 26.5398 19.9679L27.0697 24.4439V24.4793C27.0697 25.5045 26.1349 26.6004 24.5959 26.6004C23.0186 26.6004 22.2036 25.4669 22.2036 24.4793V24.4489L22.6575 19.9764C21.9962 19.5049 21.1445 18.5267 21.1445 17.0426ZM24.5959 14.6004C23.6007 14.6004 22.3445 15.5374 22.3445 17.0426C22.3445 18.2321 23.176 18.9366 23.557 19.1239L23.9315 19.3079L23.4041 24.5045C23.4182 24.8474 23.7184 25.4004 24.5959 25.4004C25.5057 25.4004 25.8492 24.8182 25.8688 24.5071L25.2548 19.3208L25.6232 19.1297C26.0628 18.9017 26.8979 18.158 26.848 17.0702C26.7801 15.5912 25.5547 14.6004 24.5959 14.6004Z" fill="#313133"/>
</svg>
