<svg width="40" height="40" viewBox="0 0 40 40" fill="none" xmlns="http://www.w3.org/2000/svg">
<path d="M3.65546 36.4567C2.84265 36.7841 2.03174 35.9821 2.35023 35.1657L10.2167 15.0025C10.4781 14.3324 11.3402 14.1492 11.8515 14.655L24.0611 26.7317C24.5724 27.2375 24.3986 28.1015 23.7315 28.3703L3.65546 36.4567Z" fill="#EEF0F4"/>
<path fill-rule="evenodd" clip-rule="evenodd" d="M3.44971 37.3726C2.88571 37.3726 2.33971 37.1526 1.91871 36.7366C1.30071 36.1246 1.11171 35.2426 1.42571 34.4356L9.06271 14.8096C9.32871 14.1256 9.92071 13.6266 10.6447 13.4746C11.3697 13.3226 12.1147 13.5416 12.6377 14.0596L18.2177 19.5836L22.5347 15.3106L20.7427 13.5366C20.4587 13.2556 20.4587 12.8006 20.7427 12.5196L31.9757 1.39961C33.4527 -0.0623906 35.8567 -0.0633906 37.3337 1.39961L37.6137 1.67761C39.0907 3.13961 39.0907 5.51961 37.6137 6.98161L26.3807 18.1016C26.1087 18.3716 25.6257 18.3716 25.3537 18.1016L23.5617 16.3276L19.2447 20.6006L24.8247 26.1246C25.3487 26.6426 25.5697 27.3806 25.4157 28.0976C25.2627 28.8146 24.7577 29.4006 24.0667 29.6636L4.24371 37.2246C3.98271 37.3246 3.71371 37.3726 3.44971 37.3726ZM11.1017 14.8641C11.0507 14.8641 10.9987 14.8701 10.9457 14.8801C10.7007 14.9321 10.5087 15.0941 10.4187 15.3251L2.78165 34.9521C2.62365 35.3571 2.86765 35.6411 2.94565 35.7191C3.02365 35.7971 3.31265 36.0371 3.72065 35.8821L23.5457 28.3211C23.7797 28.2321 23.9437 28.0411 23.9957 27.7991C24.0477 27.5561 23.9757 27.3171 23.7987 27.1411L18.2187 21.6171L11.9077 27.8651L10.8807 26.8481L17.1917 20.6001L11.6117 15.0761C11.4717 14.9381 11.2917 14.8641 11.1017 14.8641ZM25.869 16.5756L36.588 5.96356C37.499 5.06256 37.499 3.59556 36.588 2.69356L36.308 2.41556C35.397 1.51356 33.916 1.51356 33.005 2.41556L22.285 13.0276L25.869 16.5756Z" fill="#313133"/>
</svg>
