<svg width="40" height="40" viewBox="0 0 40 40" fill="none" xmlns="http://www.w3.org/2000/svg">
<path fill-rule="evenodd" clip-rule="evenodd" d="M18.0532 40.0002C16.1022 40.0002 14.5192 38.4162 14.5192 36.4702V22.2642H12.9002V20.8762H17.3572V19.7202C17.3572 17.8072 18.9142 16.2502 20.8272 16.2502H35.9242C37.0722 16.2502 38.0062 15.3162 38.0062 14.1682V9.00116C38.0062 7.85316 37.0722 6.91916 35.9242 6.91916H35.3652V9.29016H33.9772V3.16016H35.3652V5.53116H35.9242C37.8372 5.53116 39.3942 7.08816 39.3942 9.00116V14.1672C39.3942 16.0802 37.8372 17.6372 35.9242 17.6372H20.8272C19.6792 17.6372 18.7452 18.5712 18.7452 19.7192V20.8762H23.0782V22.2642H21.5832V36.4702C21.5832 38.4162 20.0002 40.0002 18.0532 40.0002ZM15.9072 22.2637V36.4697C15.9072 37.6507 16.8682 38.6117 18.0492 38.6117C19.2342 38.6117 20.1952 37.6507 20.1952 36.4697V22.2637H15.9072ZM31.5282 12.451H4.45016C3.30216 12.451 2.36816 11.517 2.36816 10.369V2.082C2.36816 0.934 3.30216 0 4.45016 0H31.5292C32.6772 0 33.6112 0.934 33.6112 2.082V10.369C33.6102 11.517 32.6762 12.451 31.5282 12.451ZM4.45045 1.3875C4.06745 1.3875 3.75645 1.6985 3.75645 2.0815V10.3685C3.75645 10.7515 4.06745 11.0625 4.45045 11.0625H31.5294C31.9124 11.0625 32.2234 10.7515 32.2234 10.3685V2.0815C32.2234 1.6985 31.9124 1.3875 31.5294 1.3875H4.45045ZM1.99445 9.29016H0.606445V3.16016H1.99445V9.29016Z" fill="#313133"/>
<path fill-rule="evenodd" clip-rule="evenodd" d="M4.45084 1.3877C4.06784 1.3877 3.75684 1.6987 3.75684 2.0817V10.3687C3.75684 10.7517 4.06784 11.0627 4.45084 11.0627H31.5298C31.9128 11.0627 32.2238 10.7517 32.2238 10.3687V2.0817C32.2238 1.6987 31.9128 1.3877 31.5298 1.3877H4.45084Z" fill="#EEF0F4"/>
</svg>
