<svg width="40" height="40" viewBox="0 0 40 40" fill="none" xmlns="http://www.w3.org/2000/svg">
<path fill-rule="evenodd" clip-rule="evenodd" d="M0.400391 0.799805V38.8288H19.3494C19.2924 38.8288 19.2354 38.8228 19.1774 38.8098C18.7604 38.7148 18.4994 38.2998 18.5944 37.8828C18.9384 36.3728 19.5794 33.5628 21.7844 32.5148C22.3564 32.2428 22.9484 32.1288 23.5204 32.0188C24.1574 31.8968 24.7584 31.7818 25.1824 31.4548C25.4704 31.2328 25.6754 30.8948 25.7594 30.5298C25.4454 30.5328 25.1224 30.5258 24.7924 30.5168C22.8464 30.4638 20.9664 30.3328 19.3584 29.3238C18.9114 29.0428 18.5184 28.7128 18.1394 28.3938C17.7774 28.0888 17.4364 27.8018 17.0714 27.5758C15.5024 26.6048 13.2464 26.8758 11.9364 28.1948C11.6774 28.4548 11.4394 28.7598 11.1874 29.0818C10.6384 29.7838 10.0714 30.5088 9.18639 30.9278C7.93439 31.5188 6.59939 31.2298 5.42139 30.9738C5.12939 30.9098 4.83739 30.8468 4.55039 30.7978C3.60539 30.6358 2.11939 30.8388 1.93639 31.7828C1.85539 32.2018 1.44839 32.4758 1.02839 32.3958C0.608391 32.3138 0.334391 31.9078 0.415391 31.4878C0.777391 29.6258 2.95239 28.9558 4.80939 29.2718C5.12039 29.3238 5.43439 29.3928 5.74939 29.4608C6.77739 29.6838 7.74839 29.8938 8.52339 29.5278C9.07739 29.2658 9.50939 28.7138 9.96739 28.1278C10.2364 27.7848 10.5144 27.4288 10.8374 27.1038C12.6634 25.2668 15.6934 24.9028 17.8864 26.2598C18.3474 26.5448 18.7484 26.8828 19.1374 27.2088C19.4914 27.5068 19.8264 27.7888 20.1824 28.0118C21.4614 28.8148 23.0464 28.9208 24.8354 28.9688C26.0304 29.0018 27.0144 28.9998 27.9124 28.6668C29.8114 27.9648 30.9154 25.8598 31.5074 24.2168C32.4444 21.6158 32.7814 18.8278 32.4974 16.0808C32.1594 16.4388 31.8754 16.8718 31.5764 17.3288C31.4434 17.5308 31.3114 17.7338 31.1734 17.9318C29.8614 19.8108 28.0674 21.2738 25.9834 22.1638C24.5464 22.7778 23.3524 22.7938 22.4374 22.2098C21.0244 21.3088 20.8974 19.3128 21.5894 17.9798C22.2234 16.7598 23.3624 15.9808 24.4984 15.3218C24.7754 15.1608 25.0564 15.0008 25.3404 14.8398C27.7024 13.4968 30.1444 12.1088 30.9234 9.72281C31.1084 9.15681 31.1754 8.4108 30.8114 8.0168C30.3804 7.5498 29.4364 7.7268 28.7424 8.0878C28.4964 8.2158 28.2554 8.3598 28.0144 8.5038C27.3014 8.9298 26.4934 9.41181 25.5384 9.49881C25.3264 9.51581 25.1164 9.4498 24.9574 9.3098C24.7974 9.1698 24.7024 8.9708 24.6934 8.7588C24.6304 7.2038 24.5594 5.4398 23.7894 4.0668C23.1454 2.9168 21.7064 1.9878 20.5084 2.4898C20.2714 2.5888 20.0404 2.7448 19.8454 2.8838C18.1934 4.0648 16.7484 6.1718 17.2454 8.2148C17.2684 8.3098 17.2954 8.4068 17.3224 8.5038C17.4784 9.0678 17.6714 9.77081 17.3394 10.4728C16.7704 11.6738 15.2394 11.6658 14.7284 11.6628L10.8164 11.6438C10.6494 11.6428 10.4254 11.6418 10.3364 11.6888C10.1014 11.8158 10.2264 12.6098 10.3084 13.1358C10.3334 13.2958 10.3584 13.4538 10.3774 13.6038C10.6264 15.5338 9.57539 17.6348 7.70139 18.9558C6.39539 19.8768 4.26039 20.3508 2.54439 20.7308C2.14039 20.8208 1.75939 20.9048 1.42039 20.9888C1.00839 21.0938 0.586391 20.8378 0.483391 20.4228C0.380391 20.0078 0.634391 19.5878 1.04939 19.4858C1.39939 19.3988 1.79239 19.3118 2.20939 19.2188C3.79039 18.8678 5.75739 18.4308 6.80939 17.6898C7.88039 16.9348 9.05539 15.4628 8.84139 13.8018C8.82339 13.6658 8.80139 13.5228 8.77839 13.3768C8.62739 12.4198 8.39939 10.9738 9.60139 10.3258C10.0384 10.0908 10.4924 10.0968 10.8234 10.0948L14.7354 10.1138C15.5984 10.1178 15.8714 9.9508 15.9394 9.8088C16.0254 9.6268 15.9254 9.2648 15.8294 8.9158C15.7994 8.8008 15.7684 8.6898 15.7414 8.5798C15.0724 5.8338 16.8694 3.1068 18.9464 1.6218C19.2114 1.4328 19.5324 1.2188 19.9114 1.0598C21.9234 0.218805 24.1514 1.5418 25.1424 3.3088C25.9144 4.6878 26.1144 6.2948 26.1974 7.7308C26.5334 7.5828 26.8714 7.3808 27.2214 7.1728C27.4894 7.0128 27.7564 6.8538 28.0294 6.7128C29.1804 6.1158 30.8964 5.8248 31.9504 6.9658C32.6454 7.7188 32.8124 8.9288 32.3964 10.2038C31.4314 13.1608 28.6024 14.7688 26.1064 16.1868C25.8264 16.3458 25.5494 16.5038 25.2764 16.6618C24.1974 17.2888 23.3914 17.8738 22.9644 18.6948C22.5924 19.4088 22.6444 20.5058 23.2704 20.9038C23.8404 21.2678 24.7304 21.0138 25.3764 20.7388C27.1664 19.9748 28.7744 18.6628 29.9044 17.0448C30.0334 16.8598 30.1574 16.6698 30.2814 16.4808C30.6174 15.9678 30.9644 15.4368 31.4224 14.9648C31.8884 14.4848 32.4144 14.1198 32.9244 13.7658C33.0444 13.6828 33.1654 13.5998 33.2844 13.5138C35.1234 12.2068 36.7334 10.4948 37.9394 8.5648C38.1664 8.2018 38.6444 8.0918 39.0064 8.3178C39.3694 8.5448 39.4794 9.0228 39.2534 9.3848C37.9404 11.4868 36.1864 13.3508 34.1824 14.7758C34.0944 14.8388 34.0064 14.8998 33.9174 14.9618C34.4174 18.2468 34.0904 21.6188 32.9664 24.7418C32.8314 25.1168 32.6864 25.4748 32.5314 25.8158C33.6214 25.8688 35.0834 26.2928 36.3354 27.8728C37.5724 29.4328 38.2184 29.5868 38.3424 29.6018C38.6834 29.4808 39.0764 29.6178 39.2654 29.9438C39.4804 30.3138 39.3544 30.7878 38.9854 31.0028C38.5444 31.2598 37.2834 31.5598 35.1224 28.8348C33.8254 27.1998 32.2494 27.3018 31.6554 27.4138C30.7724 28.7438 29.6894 29.6628 28.4524 30.1208C28.0864 30.2558 27.7184 30.3488 27.3444 30.4118C27.2724 31.2958 26.8324 32.1418 26.1314 32.6818C25.4154 33.2348 24.5644 33.3968 23.8144 33.5408C23.3164 33.6368 22.8454 33.7268 22.4524 33.9138C21.0434 34.5838 20.5034 36.4918 20.1074 38.2278C20.0254 38.5878 19.7064 38.8308 19.3524 38.8308H39.3684V0.799805H0.400391Z" fill="#EEF0F4"/>
<path fill-rule="evenodd" clip-rule="evenodd" d="M38.5934 0.400679H21.0914C21.0774 0.401679 21.0644 0.399679 21.0504 0.400679H1.17439C0.747391 0.400679 0.400391 0.747679 0.400391 1.17568V31.2397V31.2407V38.5937C0.400391 39.0217 0.747391 39.3677 1.17439 39.3677H38.5924C39.0204 39.3677 39.3664 39.0207 39.3664 38.5937V1.17568C39.3674 0.747679 39.0204 0.400679 38.5934 0.400679ZM1.94883 20.4594C2.13983 20.4154 2.33983 20.3714 2.54483 20.3254C4.26083 19.9444 6.39583 19.4704 7.70183 18.5504C9.57583 17.2294 10.6268 15.1284 10.3778 13.1984C10.3588 13.0484 10.3338 12.8904 10.3088 12.7304C10.2258 12.2054 10.1008 11.4104 10.3368 11.2834C10.4258 11.2364 10.6488 11.2384 10.8168 11.2384L14.7288 11.2574C15.2398 11.2604 16.7708 11.2674 17.3398 10.0674C17.6728 9.36544 17.4788 8.66244 17.3228 8.09844C17.2958 8.00144 17.2688 7.90444 17.2458 7.80944C16.7488 5.76644 18.1938 3.65944 19.8458 2.47844C20.0408 2.33944 20.2718 2.18444 20.5088 2.08444C20.7148 1.99844 20.9278 1.95644 21.1418 1.94844H21.2768C22.2698 1.98044 23.2788 2.75044 23.7888 3.66144C24.5578 5.03444 24.6298 6.79844 24.6928 8.35344C24.7018 8.56544 24.7968 8.76444 24.9568 8.90444C25.1158 9.04444 25.3258 9.11044 25.5378 9.09344C26.4918 9.00544 27.3008 8.52344 28.0138 8.09844C28.2558 7.95444 28.4958 7.81044 28.7418 7.68244C29.4358 7.32144 30.3798 7.14544 30.8108 7.61144C31.1748 8.00544 31.1068 8.75144 30.9228 9.31744C30.1438 11.7034 27.7018 13.0924 25.3398 14.4344C25.0558 14.5954 24.7748 14.7554 24.4978 14.9164C23.3618 15.5754 22.2228 16.3544 21.5888 17.5744C20.8958 18.9074 21.0228 20.9034 22.4368 21.8044C23.3518 22.3884 24.5458 22.3724 25.9828 21.7584C28.0658 20.8684 29.8608 19.4054 31.1728 17.5264C31.3108 17.3284 31.4428 17.1264 31.5758 16.9234C31.8748 16.4664 32.1578 16.0334 32.4968 15.6754C32.7798 18.4224 32.4438 21.2114 31.5068 23.8114C30.9148 25.4544 29.8108 27.5594 27.9118 28.2614C27.0138 28.5944 26.0298 28.5964 24.8348 28.5634C23.0458 28.5144 21.4608 28.4084 20.1818 27.6064C19.8258 27.3834 19.4908 27.1014 19.1368 26.8034C18.7478 26.4764 18.3468 26.1384 17.8858 25.8544C15.6928 24.4984 12.6628 24.8614 10.8368 26.6984C10.5138 27.0234 10.2358 27.3794 9.96683 27.7224C9.50883 28.3074 9.07683 28.8604 8.52283 29.1224C7.74783 29.4894 6.77583 29.2784 5.74883 29.0554C5.43283 28.9864 5.11883 28.9184 4.80883 28.8664C3.84083 28.7014 2.78883 28.8074 1.94983 29.2074V20.4594H1.94883ZM32.9635 24.3385C34.0885 21.2155 34.4155 17.8435 33.9145 14.5585C34.0035 14.4965 34.0915 14.4355 34.1795 14.3725C35.5265 13.4145 36.7555 12.2555 37.8185 10.9625V28.9565C37.4845 28.7325 36.9935 28.3025 36.3325 27.4685C35.0805 25.8895 33.6185 25.4645 32.5285 25.4115C32.6825 25.0715 32.8285 24.7135 32.9635 24.3385ZM37.8182 8.339C36.6252 10.195 35.0632 11.844 33.2812 13.11C33.1622 13.195 33.0422 13.278 32.9212 13.362C32.4112 13.715 31.8852 14.08 31.4192 14.561C30.9622 15.033 30.6142 15.564 30.2782 16.077C30.1542 16.267 30.0302 16.456 29.9012 16.641C28.7722 18.259 27.1642 19.57 25.3732 20.335C24.7272 20.61 23.8382 20.863 23.2672 20.5C22.6422 20.101 22.5902 19.005 22.9612 18.291C23.3882 17.47 24.1942 16.885 25.2732 16.258C25.5462 16.1 25.8232 15.942 26.1032 15.783C28.5992 14.365 31.4272 12.757 32.3932 9.8C32.8082 8.525 32.6422 7.315 31.9472 6.562C30.8932 5.42 29.1762 5.711 28.0262 6.309C27.7542 6.45 27.4862 6.61 27.2182 6.769C26.8692 6.977 26.5302 7.179 26.1942 7.327C26.1102 5.891 25.9112 4.283 25.1392 2.905C24.9492 2.566 24.7122 2.244 24.4422 1.95H37.8172V8.339H37.8182ZM18.0598 1.94922C16.3968 3.50522 15.1698 5.83222 15.7408 8.17622C15.7678 8.28622 15.7978 8.39822 15.8288 8.51022C15.9258 8.86022 16.0258 9.22122 15.9388 9.40322C15.8718 9.54422 15.5978 9.69722 14.7348 9.70822L10.8228 9.68922C10.4928 9.68722 10.0378 9.68522 9.60083 9.92022C8.39983 10.5682 8.62783 12.0152 8.77883 12.9722C8.80183 13.1182 8.82383 13.2602 8.84183 13.3972C9.05583 15.0592 7.88083 16.5302 6.80983 17.2852C5.75783 18.0262 3.79083 18.4632 2.20983 18.8142C2.11983 18.8342 2.03683 18.8532 1.94883 18.8722V1.94922H18.0598ZM1.94883 31.3306C2.17383 30.4296 3.62083 30.2366 4.54883 30.3946C4.83583 30.4436 5.12783 30.5066 5.41983 30.5706C6.59783 30.8256 7.93283 31.1156 9.18483 30.5246C10.0698 30.1056 10.6378 29.3806 11.1858 28.6786C11.4388 28.3566 11.6768 28.0516 11.9348 27.7916C13.2438 26.4736 15.5008 26.2026 17.0698 27.1726C17.4348 27.3986 17.7758 27.6856 18.1378 27.9906C18.5168 28.3096 18.9088 28.6396 19.3568 28.9206C20.9648 29.9296 22.8448 30.0616 24.7908 30.1136C25.1208 30.1226 25.4438 30.1306 25.7578 30.1266C25.6738 30.4916 25.4698 30.8296 25.1808 31.0516C24.7568 31.3786 24.1548 31.4936 23.5188 31.6156C22.9468 31.7256 22.3548 31.8386 21.7828 32.1116C19.5778 33.1606 18.9378 35.9706 18.5928 37.4796C18.5668 37.5956 18.5698 37.7106 18.5938 37.8186H1.94883V31.3306ZM20.1051 37.8182C20.5001 36.0842 21.0411 34.1792 22.4491 33.5092C22.8421 33.3212 23.3131 33.2322 23.8111 33.1362C24.5611 32.9922 25.4121 32.8292 26.1281 32.2772C26.8281 31.7372 27.2691 30.8912 27.3411 30.0072C27.7161 29.9442 28.0841 29.8512 28.4491 29.7162C29.6861 29.2582 30.7691 28.3392 31.6521 27.0092C32.2461 26.8992 33.8231 26.7962 35.1191 28.4302C36.2721 29.8842 37.1661 30.4732 37.8191 30.6702V37.8172H20.1051V37.8182Z" fill="#313133"/>
</svg>
