<svg width="40" height="40" viewBox="0 0 40 40" fill="none" xmlns="http://www.w3.org/2000/svg">
<path fill-rule="evenodd" clip-rule="evenodd" d="M37.2682 36.0333L1.19922 5.1273L2.07922 4.1003C4.07422 1.89142 4.07422 1.89126 6.30922 3.7743L37.8222 30.7763C39.8742 32.8283 39.8742 32.8914 38.1482 35.0063L37.2682 36.0333Z" fill="#EEF0F4"/>
<path fill-rule="evenodd" clip-rule="evenodd" d="M37.119 37.1683L0 5.36126L2.382 2.58126C3.126 1.71126 4.438 1.61226 5.306 2.35626L7.942 4.61426L9.795 2.45126L15.72 7.52826L16.946 6.09726C18.555 4.21926 21.392 4.00126 23.269 5.61026L33.307 14.2113C34.216 14.9893 34.767 16.0763 34.859 17.2723C34.951 18.4673 34.573 19.6263 33.795 20.5343L32.569 21.9663L38.494 27.0423L36.641 29.2053L39.276 31.4633C39.697 31.8233 39.952 32.3263 39.995 32.8783C40.037 33.4303 39.862 33.9663 39.502 34.3873L37.119 37.1683ZM1.94922 5.21111L36.9682 35.2181L38.4502 33.4881C38.5702 33.3481 38.6282 33.1691 38.6142 32.9851C38.6002 32.8011 38.5152 32.6331 38.3752 32.5131L4.40622 3.40611C4.11622 3.15911 3.67922 3.19111 3.43122 3.48111L1.94922 5.21111ZM8.99219 5.51417L35.5902 28.3052L36.5442 27.1922L9.94619 4.40117L8.99219 5.51417ZM30.2635 19.991L31.5175 21.066L32.7445 19.635C33.8575 18.336 33.7055 16.374 32.4075 15.261L22.3695 6.65897C21.0705 5.54597 19.1085 5.69797 17.9955 6.99597L16.7695 8.42797L18.0245 9.50297L19.2505 8.07197C19.5025 7.77797 19.8535 7.59897 20.2405 7.56997C20.6285 7.54297 21.0025 7.66297 21.2955 7.91497L31.3335 16.516C31.9405 17.036 32.0105 17.953 31.4915 18.56L30.2635 19.991ZM19.0742 10.4016L29.2142 19.0906L30.4412 17.6596C30.4642 17.6316 30.4612 17.5876 30.4332 17.5646L20.3962 8.96363C20.3722 8.94263 20.3212 8.94663 20.3012 8.97063L19.0742 10.4016Z" fill="#313133"/>
</svg>
