<svg width="40" height="40" viewBox="0 0 40 40" fill="none" xmlns="http://www.w3.org/2000/svg">
<path fill-rule="evenodd" clip-rule="evenodd" d="M4 15.4986H13.705C14.453 14.2296 15.513 13.1696 16.773 12.4026H16.801V9.59961H26.209V12.4026H26.228C27.423 13.1556 28.441 14.2756 29.166 15.4986H35.922V24.6976H29.166C27.6 27.3286 24.722 29.0946 21.436 29.0946C18.15 29.0946 15.273 27.3286 13.706 24.6976H12.028L10.304 22.3736L8.659 24.6976H4V15.4986ZM10.7088 36.4472C12.2228 36.4472 13.4488 35.2202 13.4488 33.7072C13.4488 32.1932 10.7088 28.0402 10.7088 28.0402C10.7088 28.0402 7.96875 32.1942 7.96875 33.7072C7.96875 35.2202 9.19575 36.4472 10.7088 36.4472Z" fill="#EEF0F4"/>
<path fill-rule="evenodd" clip-rule="evenodd" d="M39.431 14.5899H29.579C28.849 13.4429 27.904 12.4489 26.873 11.7439V9.26092C26.873 8.94692 26.618 8.69192 26.304 8.69192H24.443V6.72692H27.355C28.438 6.72692 29.32 5.84492 29.32 4.75992C29.32 3.67692 28.439 2.79492 27.355 2.79492H15.843C14.76 2.79492 13.878 3.67692 13.878 4.76192C13.878 5.84492 14.759 6.72692 15.843 6.72692H18.754V8.69092H16.897C16.583 8.69092 16.328 8.94592 16.328 9.25992V11.7309C15.182 12.4769 14.207 13.4559 13.483 14.5889H4.908V13.5539C4.908 13.2399 4.653 12.9849 4.339 12.9849H0.569C0.255 12.9859 0 13.2409 0 13.5549V25.9619C0 26.2759 0.255 26.5309 0.569 26.5309H4.339C4.653 26.5309 4.908 26.2759 4.908 25.9619V24.9269H8.753C8.937 24.9269 9.111 24.8369 9.217 24.6869L10.409 23.0029L11.666 24.6969C11.773 24.8419 11.943 24.9269 12.123 24.9269H13.484C15.234 27.6469 18.287 29.3239 21.531 29.3239C24.774 29.3239 27.827 27.6469 29.578 24.9269H39.431C39.745 24.9269 40 24.6719 40 24.3579V15.1589C40 14.8449 39.745 14.5899 39.431 14.5899ZM15.0156 4.76059C15.0156 4.30459 15.3866 3.93359 15.8426 3.93359H27.3556C27.8116 3.93359 28.1826 4.30459 28.1826 4.76259C28.1826 5.21859 27.8116 5.58959 27.3556 5.58959H15.8426C15.3866 5.58959 15.0156 5.21759 15.0156 4.76059ZM19.8914 6.72656H23.3054V8.69056H19.8914V6.72656ZM3.7695 25.3932H1.1375V14.1242H3.7695V25.3932ZM29.2612 23.7891C29.0612 23.7891 28.8752 23.8951 28.7722 24.0671C27.2592 26.6081 24.4842 28.1861 21.5312 28.1861C18.5772 28.1861 15.8032 26.6081 14.2902 24.0671C14.1872 23.8951 14.0012 23.7891 13.8012 23.7891H12.4102L10.8562 21.6951C10.8172 21.6421 10.7652 21.6001 10.7102 21.5641L9.93716 19.6551C9.91416 19.5981 9.88216 19.5461 9.84316 19.4991L9.84016 19.4951L11.3102 17.6571L10.4212 16.9471L9.08916 18.6131L8.06216 17.4071L7.19616 18.1451L8.91816 20.1671L9.68416 22.0601L8.46016 23.7891H4.91016V15.7281H13.8032C14.0052 15.7281 14.1912 15.6221 14.2932 15.4481C14.9682 14.3041 15.9302 13.3221 17.0802 12.6031C17.3052 12.5271 17.4672 12.3141 17.4672 12.0641V9.83008H25.7372V12.0641C25.7372 12.2841 25.8712 12.4751 26.0592 12.5701C27.1042 13.2391 28.0662 14.2601 28.7732 15.4501C28.8762 15.6231 29.0622 15.7291 29.2622 15.7291H35.5912V23.7901H29.2612V23.7891ZM38.8613 23.7883H36.7273V15.7273H38.8613V23.7883ZM10.1215 27.5158C9.8315 27.9558 7.2875 31.8598 7.2875 33.4968C7.2875 35.3218 8.7725 36.8058 10.5965 36.8058C12.4215 36.8058 13.9065 35.3208 13.9065 33.4968C13.9065 31.8598 11.3615 27.9558 11.0715 27.5158C10.8605 27.1968 10.3315 27.1968 10.1215 27.5158ZM10.596 35.6679C9.399 35.6679 8.425 34.6939 8.425 33.4969C8.425 32.6609 9.613 30.4729 10.596 28.8859C11.58 30.4719 12.768 32.6609 12.768 33.4969C12.767 34.6939 11.793 35.6679 10.596 35.6679Z" fill="#313133"/>
</svg>
