<svg width="40" height="40" viewBox="0 0 40 40" fill="none" xmlns="http://www.w3.org/2000/svg">
<path fill-rule="evenodd" clip-rule="evenodd" d="M39.2005 21.0629L19.9857 8.86133L0.75293 21.0629H5.49173L19.9861 12.0649L34.4649 21.0629H39.2005Z" fill="#EEF0F4"/>
<path fill-rule="evenodd" clip-rule="evenodd" d="M39.3556 20.4028L32.6172 16.1236V10.8388H33.298C33.6244 10.8388 33.8892 10.574 33.8892 10.2476V8.19081C33.8892 7.86441 33.6244 7.59961 33.298 7.59961H26.8076C26.4812 7.59961 26.2164 7.86441 26.2164 8.19081V10.2476C26.2164 10.574 26.4812 10.8388 26.8076 10.8388H27.4884V12.8672L20.1408 8.20121C19.9476 8.07881 19.7004 8.07881 19.5072 8.20121L0.274427 20.4028C0.052427 20.5436 -0.049973 20.8144 0.023627 21.0668C0.097227 21.3196 0.328427 21.4932 0.591227 21.4932H5.33003C5.44003 21.4932 5.54843 21.4624 5.64163 21.4044L6.31883 20.9836V30.6088V31.3213C6.31883 31.6477 6.58363 31.9125 6.91003 31.9125H32.7392C32.8972 31.9125 33.0488 31.8489 33.1604 31.7361C33.2716 31.6233 33.3328 31.4709 33.3304 31.3129V30.6088V20.9936L33.9908 21.4044C34.0848 21.4624 34.1924 21.4932 34.3028 21.4932H39.0388C39.3016 21.4932 39.5328 21.3196 39.6064 21.0672C39.6804 20.8144 39.578 20.544 39.3556 20.4028ZM27.3984 8.78203V9.65643H32.7064V8.78203H27.3984ZM28.6711 10.8387H31.4351V15.3727L28.6711 13.6175V10.8387ZM7.50078 20.2496V30.6084V30.6088H32.1476V20.2588L19.8236 12.5996L7.50078 20.2496ZM34.4714 20.3108L20.1362 11.4012C19.9454 11.2828 19.7034 11.2828 19.5122 11.4012L5.16096 20.3108H2.62656L19.8238 9.40039L37.005 20.3104H34.4714V20.3108ZM16.9826 19.4875H23.1906C23.517 19.4875 23.7818 19.7523 23.7818 20.0787V26.2867C23.7818 26.6131 23.517 26.8779 23.1906 26.8779H16.9826C16.6562 26.8779 16.3914 26.6131 16.3914 26.2867V20.0787C16.3914 19.7523 16.6562 19.4875 16.9826 19.4875ZM19.4962 25.695H17.5742V23.7734H19.4962V25.695ZM17.5742 22.5907H19.4962V20.6687H17.5742V22.5907ZM22.6005 25.695H20.6789V23.7734H22.6005V25.695ZM20.6789 22.5907H22.6005V20.6687H20.6789V22.5907Z" fill="#313133"/>
</svg>
