<svg width="40" height="40" viewBox="0 0 40 40" fill="none" xmlns="http://www.w3.org/2000/svg">
<path fill-rule="evenodd" clip-rule="evenodd" d="M27.2388 28.971C27.2388 29.496 26.9238 29.964 26.4378 30.161C26.2848 30.222 26.1228 30.253 25.9608 30.253L23.1998 30.257L20.2248 30.261L14.0818 30.265C13.3778 30.265 12.7998 29.692 12.7998 28.987C12.7998 28.462 13.1148 27.994 13.6048 27.797C13.7538 27.74 13.9158 27.709 14.0778 27.705H14.7208L15.0398 23.758C15.3858 20.822 16.4358 18.446 19.2178 18.022L20.8368 18C23.6808 18.363 24.8048 20.866 25.1598 23.732L25.5098 27.692H25.9558C26.2968 27.692 26.6208 27.823 26.8618 28.064C27.1028 28.31 27.2388 28.63 27.2388 28.971Z" fill="#EEF0F4"/>
<path fill-rule="evenodd" clip-rule="evenodd" d="M35.707 35.7613H3.871V34.6283H6.543V21.3603L5.827 22.0043H0L20.011 4.23926L40 22.0043H34.178L33.036 20.9763V34.6283H35.708V35.7613H35.707ZM7.67578 34.6282H31.9018V19.9552L20.0098 9.2502L7.67578 20.3412V34.6282ZM34.6136 20.8711H37.0196L20.0106 5.7541L2.98359 20.8711H5.39259L20.0116 7.7261L34.6136 20.8711ZM21.6832 32.8938C20.7992 32.8938 19.9602 32.3648 19.6112 31.4948C19.5252 31.2798 19.4732 31.0528 19.4582 30.8238L14.0492 30.8308C12.9822 30.8308 12.1132 29.9638 12.1102 28.8978C12.1092 28.1028 12.5852 27.3968 13.3232 27.0978C13.5542 27.0058 13.7952 26.9598 14.0422 26.9588H14.0482L14.3512 23.6068C14.7702 20.0668 16.1162 18.0358 18.4582 17.4118C18.2462 17.0868 18.1232 16.6998 18.1232 16.2838C18.1232 15.1438 19.0512 14.2158 20.1912 14.2158C21.3312 14.2158 22.2592 15.1438 22.2592 16.2838C22.2592 16.7288 22.1182 17.1418 21.8772 17.4798C23.5472 18.0328 25.2872 19.5928 25.7752 23.5608L26.1092 26.9508C26.5552 26.9928 26.9702 27.1868 27.2912 27.5078C27.6582 27.8728 27.8592 28.3588 27.8602 28.8758C27.8612 29.6728 27.3842 30.3788 26.6452 30.6758C26.4172 30.7668 26.1772 30.8138 25.9292 30.8148L23.8972 30.8168C23.8402 31.6458 23.3222 32.4048 22.5102 32.7308C22.2402 32.8418 21.9602 32.8938 21.6832 32.8938ZM20.7773 30.8235C20.7873 30.8825 20.8033 30.9435 20.8293 31.0065C21.0173 31.4755 21.5533 31.7035 22.0223 31.5155C22.3253 31.3935 22.5273 31.1245 22.5783 30.8205L20.7773 30.8235ZM25.9247 28.2568L14.0447 28.2718C13.9647 28.2718 13.8867 28.2868 13.8127 28.3168C13.5757 28.4128 13.4217 28.6398 13.4227 28.8958C13.4227 29.2388 13.7037 29.5188 14.0477 29.5188L22.2527 29.5078L25.9267 29.5038C26.0057 29.5038 26.0847 29.4878 26.1587 29.4588C26.3967 29.3638 26.5497 29.1358 26.5497 28.8788C26.5497 28.7098 26.4857 28.5588 26.3667 28.4388C26.2457 28.3198 26.0937 28.2568 25.9247 28.2568ZM19.2416 18.5872C17.1736 18.9222 16.0336 20.5632 15.6566 23.7452L15.3656 26.9592L24.7896 26.9472L24.4706 23.7082C24.0826 20.5452 22.8686 18.8582 20.7636 18.5682L19.2416 18.5872ZM20.1919 15.5303C19.7749 15.5303 19.4359 15.8693 19.4359 16.2853C19.4359 16.7023 19.7749 17.0413 20.1919 17.0413C20.6089 17.0413 20.9469 16.7023 20.9469 16.2853C20.9479 15.8693 20.6089 15.5303 20.1919 15.5303Z" fill="#313133"/>
</svg>
