<svg width="40" height="40" viewBox="0 0 40 40" fill="none" xmlns="http://www.w3.org/2000/svg">
<path fill-rule="evenodd" clip-rule="evenodd" d="M20.0988 20.1976L10.7998 10.8986L20.0988 1.59961L29.3978 10.8986L20.0988 20.1976ZM29.3978 29.4963L20.0988 20.1973L10.7998 29.4963L20.0988 38.7953L29.3978 29.4963Z" fill="#EEF0F4"/>
<path fill-rule="evenodd" clip-rule="evenodd" d="M38.8752 0H1.12516C0.71816 0 0.38916 0.329 0.38916 0.735V38.486C0.38916 38.892 0.71816 39.221 1.12416 39.221H38.8752C39.2812 39.221 39.6102 38.892 39.6102 38.486V0.735C39.6112 0.329 39.2822 0 38.8752 0ZM18.9602 19.6109L10.5622 28.0089L2.16416 19.6109L10.5622 11.2129L18.9602 19.6109ZM11.6017 10.1734L19.9997 1.77539L28.3977 10.1734L19.9997 18.5714L11.6017 10.1734ZM19.9997 20.6516L28.3977 29.0496L19.9997 37.4466L11.6017 29.0486L19.9997 20.6516ZM21.0407 19.6109L29.4387 11.2129L37.8367 19.6109L29.4387 28.0089L21.0407 19.6109ZM21.7751 1.4707H37.1001L29.4381 9.1327L21.7751 1.4707ZM10.5621 9.1327L2.9001 1.4707H18.2251L10.5621 9.1327ZM9.52147 10.1729L1.85947 17.8359V2.51094L9.52147 10.1729ZM9.52147 29.0489L1.85947 36.7109V21.3859L9.52147 29.0489ZM10.5621 30.0891L18.2241 37.7511H2.9001L10.5621 30.0891ZM29.4381 30.0891L37.1001 37.7511H21.7751L29.4381 30.0891ZM30.4782 29.0487L38.1402 21.3867V36.7117L30.4782 29.0487ZM30.4782 10.1729L38.1402 2.51094V17.8359L30.4782 10.1729Z" fill="#313133"/>
</svg>
