<svg width="40" height="40" viewBox="0 0 40 40" fill="none" xmlns="http://www.w3.org/2000/svg">
<path fill-rule="evenodd" clip-rule="evenodd" d="M4 1.2002V38.8002H36V1.2002H4ZM19.4114 35.9455C19.4114 36.3409 19.0964 36.6595 18.7054 36.6595H6.94037C6.54938 36.6595 6.23438 36.3409 6.23438 35.9455V4.05585C6.23438 3.66039 6.54938 3.3418 6.94037 3.3418H18.7054C19.0964 3.3418 19.4114 3.66039 19.4114 4.05585V35.9455ZM33.8681 35.9737C33.8681 36.3692 33.5531 36.6878 33.1621 36.6878H21.8681C21.4771 36.6878 21.1621 36.3692 21.1621 35.9737V4.08515C21.1621 3.68969 21.4771 3.37109 21.8681 3.37109H33.1621C33.5531 3.37109 33.8681 3.68969 33.8681 4.08515V35.9737Z" fill="#EEF0F4"/>
<path fill-rule="evenodd" clip-rule="evenodd" d="M36.7059 40H3.29389C2.90389 40 2.58789 39.684 2.58789 39.294V0.706C2.58789 0.316 2.90389 0 3.29389 0H36.7059C37.0959 0 37.4119 0.316 37.4119 0.706V39.294C37.4119 39.684 37.0959 40 36.7059 40ZM4 38.5881H36V1.41211H4V38.5881ZM33.6321 36.9709H21.8681C21.4781 36.9709 21.1621 36.6549 21.1621 36.2649V3.79389C21.1621 3.40389 21.4781 3.08789 21.8681 3.08789H33.6331C34.0231 3.08789 34.3391 3.40389 34.3391 3.79389V36.2649C34.3381 36.6549 34.0221 36.9709 33.6321 36.9709ZM22.5742 35.559H32.9272V4.5H22.5742V35.559ZM18.7047 36.9406H6.46967C6.07967 36.9406 5.76367 36.6246 5.76367 36.2346V3.76459C5.76367 3.37459 6.07967 3.05859 6.46967 3.05859H18.7047C19.0947 3.05859 19.4107 3.37459 19.4107 3.76459V36.2356C19.4107 36.6246 19.0947 36.9406 18.7047 36.9406ZM7.17578 35.5287H17.9998V4.4707H7.17578V35.5287Z" fill="#313133"/>
</svg>
